<mxfile host="app.diagrams.net" agent="Mozilla/5.0 (Windows NT 10.0; Win64; x64) AppleWebKit/537.36 (KHTML, like Gecko) Chrome/126.0.0.0 Safari/537.36 OPR/112.0.0.0" version="24.7.10" pages="5">
  <diagram name="Page-1" id="929967ad-93f9-6ef4-fab6-5d389245f69c">
    <mxGraphModel dx="7952" dy="5028" grid="1" gridSize="10" guides="1" tooltips="1" connect="1" arrows="1" fold="1" page="1" pageScale="1.5" pageWidth="1169" pageHeight="826" background="none" math="0" shadow="0">
      <root>
        <mxCell id="0" style=";html=1;" />
        <mxCell id="1" style=";html=1;" parent="0" />
        <UserObject label="" plantUmlData="{&quot;data&quot;:&quot;@startuml\nskinparam componentStyle rectangle\n\nactor User\n\npackage \&quot;Frontend\&quot; {\n  [Next.js]\n  [Tailwind CSS]\n  [Firebase]\n}\n\npackage \&quot;Backend\&quot; {\n  [NestJS]\n  [Blockchain]\n  [LevelDB]\n  [MongoDB]\n  [AI &amp; Big Data]\n  [MEH-MAC Protocol]\n}\n\npackage \&quot;External Services\&quot; {\n  [CSP (Cloud Service Providers)]\n  [Miners]\n}\n\npackage \&quot;IoT Layer\&quot; {\n  [IoT Devices]\n  [Edges]\n}\n\nUser --&gt; [Next.js] : Interacts\n[Next.js] --&gt; [NestJS] : Sends API Requests\n[Next.js] --&gt; [Tailwind CSS] : UI Styling\n[Next.js] --&gt; [Firebase] : User Authentication\n\n[NestJS] --&gt; [Blockchain] : Sends Transactions\n[NestJS] --&gt; [CSP (Cloud Service Providers)] : Outsources Data\n[NestJS] --&gt; [AI &amp; Big Data] : Analyzes Data\n[NestJS] --&gt; [MEH-MAC Protocol] : Optimizes Data Transmission\n\n[Blockchain] --&gt; [Miners] : Validates Transactions\n[Blockchain] --&gt; [LevelDB] : Local Storage\n\n[IoT Devices] --&gt; [Edges] : Sends Data\n[Edges] --&gt; [MEH-MAC Protocol] : Optimizes Transmission\n\n[CSP (Cloud Service Providers)] --&gt; [MongoDB] : Stores Outsourced Data\n[MEH-MAC Protocol] --&gt; [Blockchain] : Secures Data\n\n@enduml\n&quot;,&quot;format&quot;:&quot;svg&quot;}" id="rw3OgF8e1h7--vYEPHoo-5">
          <mxCell style="shape=image;noLabel=1;verticalAlign=top;aspect=fixed;imageAspect=0;image=data:image/svg+xml,PD94bWwgdmVyc2lvbj0iMS4wIiBlbmNvZGluZz0idXMtYXNjaWkiIHN0YW5kYWxvbmU9Im5vIj8+PHN2ZyB4bWxucz0iaHR0cDovL3d3dy53My5vcmcvMjAwMC9zdmciIHhtbG5zOnhsaW5rPSJodHRwOi8vd3d3LnczLm9yZy8xOTk5L3hsaW5rIiBjb250ZW50U3R5bGVUeXBlPSJ0ZXh0L2NzcyIgaGVpZ2h0PSI3MTRweCIgcHJlc2VydmVBc3BlY3RSYXRpbz0ibm9uZSIgc3R5bGU9IndpZHRoOjEzODlweDtoZWlnaHQ6NzE0cHg7YmFja2dyb3VuZDojRkZGRkZGOyIgdmVyc2lvbj0iMS4xIiB2aWV3Qm94PSIwIDAgMTM4OSA3MTQiIHdpZHRoPSIxMzg5cHgiIHpvb21BbmRQYW49Im1hZ25pZnkiPjxkZWZzLz48Zz48IS0tY2x1c3RlciBGcm9udGVuZC0tPjxnIGlkPSJjbHVzdGVyX0Zyb250ZW5kIj48cGF0aCBkPSJNOTE3LjUsMTQxLjUgTDk3NC41LDE0MS41IEEzLjc1LDMuNzUgMCAwIDEgOTc3LDE0NCBMOTg0LDE2Mi40ODQ0IEwxMjE3LjUsMTYyLjQ4NDQgQTIuNSwyLjUgMCAwIDEgMTIyMCwxNjQuOTg0NCBMMTIyMCwzNTIgQTIuNSwyLjUgMCAwIDEgMTIxNy41LDM1NC41IEw5MTcuNSwzNTQuNSBBMi41LDIuNSAwIDAgMSA5MTUsMzUyIEw5MTUsMTQ0IEEyLjUsMi41IDAgMCAxIDkxNy41LDE0MS41ICIgZmlsbD0ibm9uZSIgc3R5bGU9InN0cm9rZTojMDAwMDAwO3N0cm9rZS13aWR0aDoxLjU7Ii8+PGxpbmUgc3R5bGU9InN0cm9rZTojMDAwMDAwO3N0cm9rZS13aWR0aDoxLjU7IiB4MT0iOTE1IiB4Mj0iOTg0IiB5MT0iMTYyLjQ4NDQiIHkyPSIxNjIuNDg0NCIvPjx0ZXh0IGZpbGw9IiMwMDAwMDAiIGZvbnQtZmFtaWx5PSJzYW5zLXNlcmlmIiBmb250LXNpemU9IjE0IiBmb250LXdlaWdodD0iYm9sZCIgbGVuZ3RoQWRqdXN0PSJzcGFjaW5nIiB0ZXh0TGVuZ3RoPSI1NiIgeD0iOTE5IiB5PSIxNTYuNzM0NCI+RnJvbnRlbmQ8L3RleHQ+PC9nPjwhLS1jbHVzdGVyIEJhY2tlbmQtLT48ZyBpZD0iY2x1c3Rlcl9CYWNrZW5kIj48cGF0aCBkPSJNMzg3LjUsMjcwLjUgTDQzNy41LDI3MC41IEEzLjc1LDMuNzUgMCAwIDEgNDQwLDI3MyBMNDQ3LDI5MS40ODQ0IEw4ODguNSwyOTEuNDg0NCBBMi41LDIuNSAwIDAgMSA4OTEsMjkzLjk4NDQgTDg5MSw3MDUgQTIuNSwyLjUgMCAwIDEgODg4LjUsNzA3LjUgTDM4Ny41LDcwNy41IEEyLjUsMi41IDAgMCAxIDM4NSw3MDUgTDM4NSwyNzMgQTIuNSwyLjUgMCAwIDEgMzg3LjUsMjcwLjUgIiBmaWxsPSJub25lIiBzdHlsZT0ic3Ryb2tlOiMwMDAwMDA7c3Ryb2tlLXdpZHRoOjEuNTsiLz48bGluZSBzdHlsZT0ic3Ryb2tlOiMwMDAwMDA7c3Ryb2tlLXdpZHRoOjEuNTsiIHgxPSIzODUiIHgyPSI0NDciIHkxPSIyOTEuNDg0NCIgeTI9IjI5MS40ODQ0Ii8+PHRleHQgZmlsbD0iIzAwMDAwMCIgZm9udC1mYW1pbHk9InNhbnMtc2VyaWYiIGZvbnQtc2l6ZT0iMTQiIGZvbnQtd2VpZ2h0PSJib2xkIiBsZW5ndGhBZGp1c3Q9InNwYWNpbmciIHRleHRMZW5ndGg9IjQ5IiB4PSIzODkiIHk9IjI4NS43MzQ0Ij5CYWNrZW5kPC90ZXh0PjwvZz48IS0tY2x1c3RlciBFeHRlcm5hbCBTZXJ2aWNlcy0tPjxnIGlkPSJjbHVzdGVyX0V4dGVybmFsIFNlcnZpY2VzIj48cGF0aCBkPSJNOC41LDQwMS41IEwxMjguNSw0MDEuNSBBMy43NSwzLjc1IDAgMCAxIDEzMSw0MDQgTDEzOCw0MjIuNDg0NCBMMzU4LjUsNDIyLjQ4NDQgQTIuNSwyLjUgMCAwIDEgMzYxLDQyNC45ODQ0IEwzNjEsNDgzIEEyLjUsMi41IDAgMCAxIDM1OC41LDQ4NS41IEw4LjUsNDg1LjUgQTIuNSwyLjUgMCAwIDEgNiw0ODMgTDYsNDA0IEEyLjUsMi41IDAgMCAxIDguNSw0MDEuNSAiIGZpbGw9Im5vbmUiIHN0eWxlPSJzdHJva2U6IzAwMDAwMDtzdHJva2Utd2lkdGg6MS41OyIvPjxsaW5lIHN0eWxlPSJzdHJva2U6IzAwMDAwMDtzdHJva2Utd2lkdGg6MS41OyIgeDE9IjYiIHgyPSIxMzgiIHkxPSI0MjIuNDg0NCIgeTI9IjQyMi40ODQ0Ii8+PHRleHQgZmlsbD0iIzAwMDAwMCIgZm9udC1mYW1pbHk9InNhbnMtc2VyaWYiIGZvbnQtc2l6ZT0iMTQiIGZvbnQtd2VpZ2h0PSJib2xkIiBsZW5ndGhBZGp1c3Q9InNwYWNpbmciIHRleHRMZW5ndGg9IjExOSIgeD0iMTAiIHk9IjQxNi43MzQ0Ij5FeHRlcm5hbCBTZXJ2aWNlczwvdGV4dD48L2c+PCEtLWNsdXN0ZXIgSW9UIExheWVyLS0+PGcgaWQ9ImNsdXN0ZXJfSW9UIExheWVyIj48cGF0aCBkPSJNMTI0Ni41LDE0MS41IEwxMzEwLjUsMTQxLjUgQTMuNzUsMy43NSAwIDAgMSAxMzEzLDE0NCBMMTMyMCwxNjIuNDg0NCBMMTM3OS41LDE2Mi40ODQ0IEEyLjUsMi41IDAgMCAxIDEzODIsMTY0Ljk4NDQgTDEzODIsMzUyIEEyLjUsMi41IDAgMCAxIDEzNzkuNSwzNTQuNSBMMTI0Ni41LDM1NC41IEEyLjUsMi41IDAgMCAxIDEyNDQsMzUyIEwxMjQ0LDE0NCBBMi41LDIuNSAwIDAgMSAxMjQ2LjUsMTQxLjUgIiBmaWxsPSJub25lIiBzdHlsZT0ic3Ryb2tlOiMwMDAwMDA7c3Ryb2tlLXdpZHRoOjEuNTsiLz48bGluZSBzdHlsZT0ic3Ryb2tlOiMwMDAwMDA7c3Ryb2tlLXdpZHRoOjEuNTsiIHgxPSIxMjQ0IiB4Mj0iMTMyMCIgeTE9IjE2Mi40ODQ0IiB5Mj0iMTYyLjQ4NDQiLz48dGV4dCBmaWxsPSIjMDAwMDAwIiBmb250LWZhbWlseT0ic2Fucy1zZXJpZiIgZm9udC1zaXplPSIxNCIgZm9udC13ZWlnaHQ9ImJvbGQiIGxlbmd0aEFkanVzdD0ic3BhY2luZyIgdGV4dExlbmd0aD0iNjMiIHg9IjEyNDgiIHk9IjE1Ni43MzQ0Ij5Jb1QgTGF5ZXI8L3RleHQ+PC9nPjwhLS1lbnRpdHkgTmV4dC5qcy0tPjxnIGlkPSJlbGVtX05leHQuanMiPjxyZWN0IGZpbGw9IiNGMUYxRjEiIGhlaWdodD0iMzQuOTg0NCIgcng9IjIuNSIgcnk9IjIuNSIgc3R5bGU9InN0cm9rZTojMTgxODE4O3N0cm9rZS13aWR0aDowLjU7IiB3aWR0aD0iNjkiIHg9IjkzMS41IiB5PSIxNzQuNSIvPjx0ZXh0IGZpbGw9IiMwMDAwMDAiIGZvbnQtZmFtaWx5PSJzYW5zLXNlcmlmIiBmb250LXNpemU9IjE0IiBsZW5ndGhBZGp1c3Q9InNwYWNpbmciIHRleHRMZW5ndGg9IjQ5IiB4PSI5NDEuNSIgeT0iMTk3LjczNDQiPk5leHQuanM8L3RleHQ+PC9nPjwhLS1lbnRpdHkgVGFpbHdpbmQgQ1NTLS0+PGcgaWQ9ImVsZW1fVGFpbHdpbmQgQ1NTIj48cmVjdCBmaWxsPSIjRjFGMUYxIiBoZWlnaHQ9IjM0Ljk4NDQiIHJ4PSIyLjUiIHJ5PSIyLjUiIHN0eWxlPSJzdHJva2U6IzE4MTgxODtzdHJva2Utd2lkdGg6MC41OyIgd2lkdGg9IjEwNSIgeD0iOTMxLjUiIHk9IjMwMy41Ii8+PHRleHQgZmlsbD0iIzAwMDAwMCIgZm9udC1mYW1pbHk9InNhbnMtc2VyaWYiIGZvbnQtc2l6ZT0iMTQiIGxlbmd0aEFkanVzdD0ic3BhY2luZyIgdGV4dExlbmd0aD0iODUiIHg9Ijk0MS41IiB5PSIzMjYuNzM0NCI+VGFpbHdpbmQgQ1NTPC90ZXh0PjwvZz48IS0tZW50aXR5IEZpcmViYXNlLS0+PGcgaWQ9ImVsZW1fRmlyZWJhc2UiPjxyZWN0IGZpbGw9IiNGMUYxRjEiIGhlaWdodD0iMzQuOTg0NCIgcng9IjIuNSIgcnk9IjIuNSIgc3R5bGU9InN0cm9rZTojMTgxODE4O3N0cm9rZS13aWR0aDowLjU7IiB3aWR0aD0iNzYiIHg9IjEwNzIiIHk9IjMwMy41Ii8+PHRleHQgZmlsbD0iIzAwMDAwMCIgZm9udC1mYW1pbHk9InNhbnMtc2VyaWYiIGZvbnQtc2l6ZT0iMTQiIGxlbmd0aEFkanVzdD0ic3BhY2luZyIgdGV4dExlbmd0aD0iNTYiIHg9IjEwODIiIHk9IjMyNi43MzQ0Ij5GaXJlYmFzZTwvdGV4dD48L2c+PCEtLWVudGl0eSBOZXN0SlMtLT48ZyBpZD0iZWxlbV9OZXN0SlMiPjxyZWN0IGZpbGw9IiNGMUYxRjEiIGhlaWdodD0iMzQuOTg0NCIgcng9IjIuNSIgcnk9IjIuNSIgc3R5bGU9InN0cm9rZTojMTgxODE4O3N0cm9rZS13aWR0aDowLjU7IiB3aWR0aD0iNjMiIHg9IjUzMC41IiB5PSIzMDMuNSIvPjx0ZXh0IGZpbGw9IiMwMDAwMDAiIGZvbnQtZmFtaWx5PSJzYW5zLXNlcmlmIiBmb250LXNpemU9IjE0IiBsZW5ndGhBZGp1c3Q9InNwYWNpbmciIHRleHRMZW5ndGg9IjQzIiB4PSI1NDAuNSIgeT0iMzI2LjczNDQiPk5lc3RKUzwvdGV4dD48L2c+PCEtLWVudGl0eSBCbG9ja2NoYWluLS0+PGcgaWQ9ImVsZW1fQmxvY2tjaGFpbiI+PHJlY3QgZmlsbD0iI0YxRjFGMSIgaGVpZ2h0PSIzNC45ODQ0IiByeD0iMi41IiByeT0iMi41IiBzdHlsZT0ic3Ryb2tlOiMxODE4MTg7c3Ryb2tlLXdpZHRoOjAuNTsiIHdpZHRoPSI5MCIgeD0iNDAxIiB5PSI1NDYuNSIvPjx0ZXh0IGZpbGw9IiMwMDAwMDAiIGZvbnQtZmFtaWx5PSJzYW5zLXNlcmlmIiBmb250LXNpemU9IjE0IiBsZW5ndGhBZGp1c3Q9InNwYWNpbmciIHRleHRMZW5ndGg9IjcwIiB4PSI0MTEiIHk9IjU2OS43MzQ0Ij5CbG9ja2NoYWluPC90ZXh0PjwvZz48IS0tZW50aXR5IExldmVsREItLT48ZyBpZD0iZWxlbV9MZXZlbERCIj48cmVjdCBmaWxsPSIjRjFGMUYxIiBoZWlnaHQ9IjM0Ljk4NDQiIHJ4PSIyLjUiIHJ5PSIyLjUiIHN0eWxlPSJzdHJva2U6IzE4MTgxODtzdHJva2Utd2lkdGg6MC41OyIgd2lkdGg9IjY5IiB4PSI0MTEuNSIgeT0iNjU2LjUiLz48dGV4dCBmaWxsPSIjMDAwMDAwIiBmb250LWZhbWlseT0ic2Fucy1zZXJpZiIgZm9udC1zaXplPSIxNCIgbGVuZ3RoQWRqdXN0PSJzcGFjaW5nIiB0ZXh0TGVuZ3RoPSI0OSIgeD0iNDIxLjUiIHk9IjY3OS43MzQ0Ij5MZXZlbERCPC90ZXh0PjwvZz48IS0tZW50aXR5IE1vbmdvREItLT48ZyBpZD0iZWxlbV9Nb25nb0RCIj48cmVjdCBmaWxsPSIjRjFGMUYxIiBoZWlnaHQ9IjM0Ljk4NDQiIHJ4PSIyLjUiIHJ5PSIyLjUiIHN0eWxlPSJzdHJva2U6IzE4MTgxODtzdHJva2Utd2lkdGg6MC41OyIgd2lkdGg9IjY5IiB4PSI0MDEuNSIgeT0iMzAzLjUiLz48dGV4dCBmaWxsPSIjMDAwMDAwIiBmb250LWZhbWlseT0ic2Fucy1zZXJpZiIgZm9udC1zaXplPSIxNCIgbGVuZ3RoQWRqdXN0PSJzcGFjaW5nIiB0ZXh0TGVuZ3RoPSI0OSIgeD0iNDExLjUiIHk9IjMyNi43MzQ0Ij5Nb25nb0RCPC90ZXh0PjwvZz48IS0tZW50aXR5IEFJICYgQmlnIERhdGEtLT48ZyBpZD0iZWxlbV9BSSAmYW1wOyBCaWcgRGF0YSI+PHJlY3QgZmlsbD0iI0YxRjFGMSIgaGVpZ2h0PSIzNC45ODQ0IiByeD0iMi41IiByeT0iMi41IiBzdHlsZT0ic3Ryb2tlOiMxODE4MTg7c3Ryb2tlLXdpZHRoOjAuNTsiIHdpZHRoPSIxMTEiIHg9IjU5Ni41IiB5PSI0MzQuNSIvPjx0ZXh0IGZpbGw9IiMwMDAwMDAiIGZvbnQtZmFtaWx5PSJzYW5zLXNlcmlmIiBmb250LXNpemU9IjE0IiBsZW5ndGhBZGp1c3Q9InNwYWNpbmciIHRleHRMZW5ndGg9IjkxIiB4PSI2MDYuNSIgeT0iNDU3LjczNDQiPkFJICZhbXA7IEJpZyBEYXRhPC90ZXh0PjwvZz48IS0tZW50aXR5IE1FSC1NQUMgUHJvdG9jb2wtLT48ZyBpZD0iZWxlbV9NRUgtTUFDIFByb3RvY29sIj48cmVjdCBmaWxsPSIjRjFGMUYxIiBoZWlnaHQ9IjM0Ljk4NDQiIHJ4PSIyLjUiIHJ5PSIyLjUiIHN0eWxlPSJzdHJva2U6IzE4MTgxODtzdHJva2Utd2lkdGg6MC41OyIgd2lkdGg9IjEzMiIgeD0iNzQzIiB5PSI0MzQuNSIvPjx0ZXh0IGZpbGw9IiMwMDAwMDAiIGZvbnQtZmFtaWx5PSJzYW5zLXNlcmlmIiBmb250LXNpemU9IjE0IiBsZW5ndGhBZGp1c3Q9InNwYWNpbmciIHRleHRMZW5ndGg9IjExMiIgeD0iNzUzIiB5PSI0NTcuNzM0NCI+TUVILU1BQyBQcm90b2NvbDwvdGV4dD48L2c+PCEtLWVudGl0eSBDU1AgKENsb3VkIFNlcnZpY2UgUHJvdmlkZXJzKS0tPjxnIGlkPSJlbGVtX0NTUCAoQ2xvdWQgU2VydmljZSBQcm92aWRlcnMpIj48cmVjdCBmaWxsPSIjRjFGMUYxIiBoZWlnaHQ9IjM0Ljk4NDQiIHJ4PSIyLjUiIHJ5PSIyLjUiIHN0eWxlPSJzdHJva2U6IzE4MTgxODtzdHJva2Utd2lkdGg6MC41OyIgd2lkdGg9IjIyNSIgeD0iMTE5LjUiIHk9IjQzNC41Ii8+PHRleHQgZmlsbD0iIzAwMDAwMCIgZm9udC1mYW1pbHk9InNhbnMtc2VyaWYiIGZvbnQtc2l6ZT0iMTQiIGxlbmd0aEFkanVzdD0ic3BhY2luZyIgdGV4dExlbmd0aD0iMjA1IiB4PSIxMjkuNSIgeT0iNDU3LjczNDQiPkNTUCAoQ2xvdWQgU2VydmljZSBQcm92aWRlcnMpPC90ZXh0PjwvZz48IS0tZW50aXR5IE1pbmVycy0tPjxnIGlkPSJlbGVtX01pbmVycyI+PHJlY3QgZmlsbD0iI0YxRjFGMSIgaGVpZ2h0PSIzNC45ODQ0IiByeD0iMi41IiByeT0iMi41IiBzdHlsZT0ic3Ryb2tlOiMxODE4MTg7c3Ryb2tlLXdpZHRoOjAuNTsiIHdpZHRoPSI2MiIgeD0iMjIiIHk9IjQzNC41Ii8+PHRleHQgZmlsbD0iIzAwMDAwMCIgZm9udC1mYW1pbHk9InNhbnMtc2VyaWYiIGZvbnQtc2l6ZT0iMTQiIGxlbmd0aEFkanVzdD0ic3BhY2luZyIgdGV4dExlbmd0aD0iNDIiIHg9IjMyIiB5PSI0NTcuNzM0NCI+TWluZXJzPC90ZXh0PjwvZz48IS0tZW50aXR5IElvVCBEZXZpY2VzLS0+PGcgaWQ9ImVsZW1fSW9UIERldmljZXMiPjxyZWN0IGZpbGw9IiNGMUYxRjEiIGhlaWdodD0iMzQuOTg0NCIgcng9IjIuNSIgcnk9IjIuNSIgc3R5bGU9InN0cm9rZTojMTgxODE4O3N0cm9rZS13aWR0aDowLjU7IiB3aWR0aD0iOTciIHg9IjEyNTkuNSIgeT0iMTc0LjUiLz48dGV4dCBmaWxsPSIjMDAwMDAwIiBmb250LWZhbWlseT0ic2Fucy1zZXJpZiIgZm9udC1zaXplPSIxNCIgbGVuZ3RoQWRqdXN0PSJzcGFjaW5nIiB0ZXh0TGVuZ3RoPSI3NyIgeD0iMTI2OS41IiB5PSIxOTcuNzM0NCI+SW9UIERldmljZXM8L3RleHQ+PC9nPjwhLS1lbnRpdHkgRWRnZXMtLT48ZyBpZD0iZWxlbV9FZGdlcyI+PHJlY3QgZmlsbD0iI0YxRjFGMSIgaGVpZ2h0PSIzNC45ODQ0IiByeD0iMi41IiByeT0iMi41IiBzdHlsZT0ic3Ryb2tlOiMxODE4MTg7c3Ryb2tlLXdpZHRoOjAuNTsiIHdpZHRoPSI1NSIgeD0iMTI2My41IiB5PSIzMDMuNSIvPjx0ZXh0IGZpbGw9IiMwMDAwMDAiIGZvbnQtZmFtaWx5PSJzYW5zLXNlcmlmIiBmb250LXNpemU9IjE0IiBsZW5ndGhBZGp1c3Q9InNwYWNpbmciIHRleHRMZW5ndGg9IjM1IiB4PSIxMjczLjUiIHk9IjMyNi43MzQ0Ij5FZGdlczwvdGV4dD48L2c+PCEtLWVudGl0eSBVc2VyLS0+PGcgaWQ9ImVsZW1fVXNlciI+PGVsbGlwc2UgY3g9Ijk2NiIgY3k9IjE0IiBmaWxsPSIjRjFGMUYxIiByeD0iOCIgcnk9IjgiIHN0eWxlPSJzdHJva2U6IzE4MTgxODtzdHJva2Utd2lkdGg6MC41OyIvPjxwYXRoIGQ9Ik05NjYsMjIgTDk2Niw0OSBNOTUzLDMwIEw5NzksMzAgTTk2Niw0OSBMOTUzLDY0IE05NjYsNDkgTDk3OSw2NCAiIGZpbGw9Im5vbmUiIHN0eWxlPSJzdHJva2U6IzE4MTgxODtzdHJva2Utd2lkdGg6MC41OyIvPjx0ZXh0IGZpbGw9IiMwMDAwMDAiIGZvbnQtZmFtaWx5PSJzYW5zLXNlcmlmIiBmb250LXNpemU9IjE0IiBsZW5ndGhBZGp1c3Q9InNwYWNpbmciIHRleHRMZW5ndGg9IjI4IiB4PSI5NTIiIHk9Ijc4LjczNDQiPlVzZXI8L3RleHQ+PC9nPjwhLS1saW5rIFVzZXIgdG8gTmV4dC5qcy0tPjxnIGlkPSJsaW5rX1VzZXJfTmV4dC5qcyI+PHBhdGggZD0iTTk2Niw4MC43MiBDOTY2LDExMC42NSA5NjYsMTQ1LjU1IDk2NiwxNjguMTkgIiBmaWxsPSJub25lIiBpZD0iVXNlci10by1OZXh0LmpzIiBzdHlsZT0ic3Ryb2tlOiMxODE4MTg7c3Ryb2tlLXdpZHRoOjEuMDsiLz48cG9seWdvbiBmaWxsPSIjMTgxODE4IiBwb2ludHM9Ijk2NiwxNzQuMTksOTcwLDE2NS4xOSw5NjYsMTY5LjE5LDk2MiwxNjUuMTksOTY2LDE3NC4xOSIgc3R5bGU9InN0cm9rZTojMTgxODE4O3N0cm9rZS13aWR0aDoxLjA7Ii8+PHRleHQgZmlsbD0iIzAwMDAwMCIgZm9udC1mYW1pbHk9InNhbnMtc2VyaWYiIGZvbnQtc2l6ZT0iMTMiIGxlbmd0aEFkanVzdD0ic3BhY2luZyIgdGV4dExlbmd0aD0iNjAiIHg9Ijk2NyIgeT0iMTIzLjc4OTEiPkludGVyYWN0czwvdGV4dD48L2c+PCEtLWxpbmsgTmV4dC5qcyB0byBOZXN0SlMtLT48ZyBpZD0ibGlua19OZXh0LmpzX05lc3RKUyI+PHBhdGggZD0iTTkzMS4yMSwyMDMuOTQgQzg1My43OSwyMjguMjggNjczLjk3MzgsMjg0LjgwMDYgNTk5LjQ3MzgsMzA4LjIyMDYgIiBmaWxsPSJub25lIiBpZD0iTmV4dC5qcy10by1OZXN0SlMiIHN0eWxlPSJzdHJva2U6IzE4MTgxODtzdHJva2Utd2lkdGg6MS4wOyIvPjxwb2x5Z29uIGZpbGw9IiMxODE4MTgiIHBvaW50cz0iNTkzLjc1LDMxMC4wMiw2MDMuNTM1MywzMTEuMTM2OSw1OTguNTE5OSwzMDguNTIwNSw2MDEuMTM2MiwzMDMuNTA1MSw1OTMuNzUsMzEwLjAyIiBzdHlsZT0ic3Ryb2tlOiMxODE4MTg7c3Ryb2tlLXdpZHRoOjEuMDsiLz48dGV4dCBmaWxsPSIjMDAwMDAwIiBmb250LWZhbWlseT0ic2Fucy1zZXJpZiIgZm9udC1zaXplPSIxMyIgbGVuZ3RoQWRqdXN0PSJzcGFjaW5nIiB0ZXh0TGVuZ3RoPSIxMjQiIHg9IjgxMyIgeT0iMjUyLjc4OTEiPlNlbmRzIEFQSSBSZXF1ZXN0czwvdGV4dD48L2c+PCEtLWxpbmsgTmV4dC5qcyB0byBUYWlsd2luZCBDU1MtLT48ZyBpZD0ibGlua19OZXh0LmpzX1RhaWx3aW5kIENTUyI+PHBhdGggZD0iTTk2NC42NiwyMDkuNzggQzk2NC4wMSwyMTguNjEgOTYzLjMyLDIyOS42NCA5NjMsMjM5LjUgQzk2Mi43OSwyNDYuMTYgOTYxLjk3LDI0Ny45MSA5NjMsMjU0LjUgQzk2NS42OCwyNzEuNjEgOTY5Ljg5OTIsMjg0Ljc1MjYgOTc0LjkyOTIsMjk3Ljc4MjYgIiBmaWxsPSJub25lIiBpZD0iTmV4dC5qcy10by1UYWlsd2luZCBDU1MiIHN0eWxlPSJzdHJva2U6IzE4MTgxODtzdHJva2Utd2lkdGg6MS4wOyIvPjxwb2x5Z29uIGZpbGw9IiMxODE4MTgiIHBvaW50cz0iOTc3LjA5LDMwMy4zOCw5NzcuNTgwNCwyOTMuNTQzNCw5NzUuMjg5MywyOTguNzE1NSw5NzAuMTE3MiwyOTYuNDI0NCw5NzcuMDksMzAzLjM4IiBzdHlsZT0ic3Ryb2tlOiMxODE4MTg7c3Ryb2tlLXdpZHRoOjEuMDsiLz48dGV4dCBmaWxsPSIjMDAwMDAwIiBmb250LWZhbWlseT0ic2Fucy1zZXJpZiIgZm9udC1zaXplPSIxMyIgbGVuZ3RoQWRqdXN0PSJzcGFjaW5nIiB0ZXh0TGVuZ3RoPSI2NiIgeD0iOTY0IiB5PSIyNTIuNzg5MSI+VUkgU3R5bGluZzwvdGV4dD48L2c+PCEtLWxpbmsgTmV4dC5qcyB0byBGaXJlYmFzZS0tPjxnIGlkPSJsaW5rX05leHQuanNfRmlyZWJhc2UiPjxwYXRoIGQ9Ik05OTMuNTcsMjA5LjUzIEMxMDA2LjYzLDIxNy44NyAxMDIyLjE1LDIyOC41MiAxMDM1LDIzOS41IEMxMDU4LjM4LDI1OS40NyAxMDc4LjE2MjUsMjgxLjU2NDQgMTA5Mi40ODI1LDI5OC42MjQ0ICIgZmlsbD0ibm9uZSIgaWQ9Ik5leHQuanMtdG8tRmlyZWJhc2UiIHN0eWxlPSJzdHJva2U6IzE4MTgxODtzdHJva2Utd2lkdGg6MS4wOyIvPjxwb2x5Z29uIGZpbGw9IiMxODE4MTgiIHBvaW50cz0iMTA5Ni4zNCwzMDMuMjIsMTA5My42MTc1LDI5My43NTQ5LDEwOTMuMTI1NCwyOTkuMzkwMywxMDg3LjQ5LDI5OC44OTgzLDEwOTYuMzQsMzAzLjIyIiBzdHlsZT0ic3Ryb2tlOiMxODE4MTg7c3Ryb2tlLXdpZHRoOjEuMDsiLz48dGV4dCBmaWxsPSIjMDAwMDAwIiBmb250LWZhbWlseT0ic2Fucy1zZXJpZiIgZm9udC1zaXplPSIxMyIgbGVuZ3RoQWRqdXN0PSJzcGFjaW5nIiB0ZXh0TGVuZ3RoPSIxMjgiIHg9IjEwNTEiIHk9IjI1Mi43ODkxIj5Vc2VyIEF1dGhlbnRpY2F0aW9uPC90ZXh0PjwvZz48IS0tbGluayBOZXN0SlMgdG8gQmxvY2tjaGFpbi0tPjxnIGlkPSJsaW5rX05lc3RKU19CbG9ja2NoYWluIj48cGF0aCBkPSJNNTMwLjQ5LDMzOC42MiBDNTAxLjg2LDM1NC40NCA0NjIuNzcsMzc4LjA1IDQ1NCwzOTMuNSBDNDI1LjkyLDQ0Mi45NCA0MzQuNDQxNyw1MDguMjg4OSA0NDAuOTIxNyw1NDAuMzU4OSAiIGZpbGw9Im5vbmUiIGlkPSJOZXN0SlMtdG8tQmxvY2tjaGFpbiIgc3R5bGU9InN0cm9rZTojMTgxODE4O3N0cm9rZS13aWR0aDoxLjA7Ii8+PHBvbHlnb24gZmlsbD0iIzE4MTgxOCIgcG9pbnRzPSI0NDIuMTEsNTQ2LjI0LDQ0NC4yNDgzLDUzNi42MjYxLDQ0MS4xMTk3LDU0MS4zMzksNDM2LjQwNjcsNTM4LjIxMDUsNDQyLjExLDU0Ni4yNCIgc3R5bGU9InN0cm9rZTojMTgxODE4O3N0cm9rZS13aWR0aDoxLjA7Ii8+PHRleHQgZmlsbD0iIzAwMDAwMCIgZm9udC1mYW1pbHk9InNhbnMtc2VyaWYiIGZvbnQtc2l6ZT0iMTMiIGxlbmd0aEFkanVzdD0ic3BhY2luZyIgdGV4dExlbmd0aD0iMTIzIiB4PSI0NTUiIHk9IjQ1Ny43ODkxIj5TZW5kcyBUcmFuc2FjdGlvbnM8L3RleHQ+PC9nPjwhLS1saW5rIE5lc3RKUyB0byBDU1AgKENsb3VkIFNlcnZpY2UgUHJvdmlkZXJzKS0tPjxnIGlkPSJsaW5rX05lc3RKU19DU1AgKENsb3VkIFNlcnZpY2UgUHJvdmlkZXJzKSI+PHBhdGggZD0iTTUzOC4yLDMzOC42NSBDNTI0LjI2LDM0Ny40NSA1MDUuOSwzNTcuNDYgNDg4LDM2Mi41IEM0NTIuNDUsMzcyLjUxIDM1Ni4xNywzNTYuNDkgMzIyLDM3MC41IEMyODkuMDIsMzg0LjAxIDI2My45Mzg3LDQxMC40MTkzIDI0OC4yNTg3LDQyOS43NTkzICIgZmlsbD0ibm9uZSIgaWQ9Ik5lc3RKUy10by1DU1AgKENsb3VkIFNlcnZpY2UgUHJvdmlkZXJzKSIgc3R5bGU9InN0cm9rZTojMTgxODE4O3N0cm9rZS13aWR0aDoxLjA7Ii8+PHBvbHlnb24gZmlsbD0iIzE4MTgxOCIgcG9pbnRzPSIyNDQuNDgsNDM0LjQyLDI1My4yNTUxLDQyOS45NDgxLDI0Ny42Mjg5LDQzMC41MzYxLDI0Ny4wNDA5LDQyNC45MDk5LDI0NC40OCw0MzQuNDIiIHN0eWxlPSJzdHJva2U6IzE4MTgxODtzdHJva2Utd2lkdGg6MS4wOyIvPjx0ZXh0IGZpbGw9IiMwMDAwMDAiIGZvbnQtZmFtaWx5PSJzYW5zLXNlcmlmIiBmb250LXNpemU9IjEzIiBsZW5ndGhBZGp1c3Q9InNwYWNpbmciIHRleHRMZW5ndGg9IjEwMyIgeD0iMzIzIiB5PSIzODMuNzg5MSI+T3V0c291cmNlcyBEYXRhPC90ZXh0PjwvZz48IS0tbGluayBOZXN0SlMgdG8gQUkgJiBCaWcgRGF0YS0tPjxnIGlkPSJsaW5rX05lc3RKU19BSSAmYW1wOyBCaWcgRGF0YSI+PHBhdGggZD0iTTU1Ni44MywzMzguNjMgQzU1My42NiwzNTIuMDQgNTUxLjQ4LDM3MSA1NTksMzg1LjUgQzU1OS45NywzODcuMzYgNTk1LjcyMDgsNDEyLjIzMzUgNjIyLjk1MDgsNDMxLjAxMzUgIiBmaWxsPSJub25lIiBpZD0iTmVzdEpTLXRvLUFJICZhbXA7IEJpZyBEYXRhIiBzdHlsZT0ic3Ryb2tlOiMxODE4MTg7c3Ryb2tlLXdpZHRoOjEuMDsiLz48cG9seWdvbiBmaWxsPSIjMTgxODE4IiBwb2ludHM9IjYyNy44OSw0MzQuNDIsNjIyLjc1MjIsNDI2LjAxNzUsNjIzLjc3NCw0MzEuNTgxMyw2MTguMjEwMiw0MzIuNjAzMSw2MjcuODksNDM0LjQyIiBzdHlsZT0ic3Ryb2tlOiMxODE4MTg7c3Ryb2tlLXdpZHRoOjEuMDsiLz48dGV4dCBmaWxsPSIjMDAwMDAwIiBmb250LWZhbWlseT0ic2Fucy1zZXJpZiIgZm9udC1zaXplPSIxMyIgbGVuZ3RoQWRqdXN0PSJzcGFjaW5nIiB0ZXh0TGVuZ3RoPSI4OSIgeD0iNTYwIiB5PSIzODMuNzg5MSI+QW5hbHl6ZXMgRGF0YTwvdGV4dD48L2c+PCEtLWxpbmsgTmVzdEpTIHRvIE1FSC1NQUMgUHJvdG9jb2wtLT48ZyBpZD0ibGlua19OZXN0SlNfTUVILU1BQyBQcm90b2NvbCI+PHBhdGggZD0iTTU5My43OCwzMzMuODkgQzYyNy4yNSwzNDYuODkgNjgxLjEsMzY5LjEzIDcyNSwzOTMuNSBDNzQ3LjEsNDA1Ljc3IDc2NS44ODg2LDQxOC43MTIyIDc4Mi40Mjg2LDQzMC44OTIyICIgZmlsbD0ibm9uZSIgaWQ9Ik5lc3RKUy10by1NRUgtTUFDIFByb3RvY29sIiBzdHlsZT0ic3Ryb2tlOiMxODE4MTg7c3Ryb2tlLXdpZHRoOjEuMDsiLz48cG9seWdvbiBmaWxsPSIjMTgxODE4IiBwb2ludHM9Ijc4Ny4yNiw0MzQuNDUsNzgyLjM4NDgsNDI1Ljg5MjQsNzgzLjIzMzksNDMxLjQ4NTIsNzc3LjY0MTEsNDMyLjMzNDIsNzg3LjI2LDQzNC40NSIgc3R5bGU9InN0cm9rZTojMTgxODE4O3N0cm9rZS13aWR0aDoxLjA7Ii8+PHRleHQgZmlsbD0iIzAwMDAwMCIgZm9udC1mYW1pbHk9InNhbnMtc2VyaWYiIGZvbnQtc2l6ZT0iMTMiIGxlbmd0aEFkanVzdD0ic3BhY2luZyIgdGV4dExlbmd0aD0iMTgwIiB4PSI3MDkiIHk9IjM4My43ODkxIj5PcHRpbWl6ZXMgRGF0YSBUcmFuc21pc3Npb248L3RleHQ+PC9nPjwhLS1saW5rIEJsb2NrY2hhaW4gdG8gTWluZXJzLS0+PGcgaWQ9ImxpbmtfQmxvY2tjaGFpbl9NaW5lcnMiPjxwYXRoIGQ9Ik00MDAuOTIsNTYwLjg2IEMzMzMuMDEsNTU2LjE0IDIwMS44MSw1NDEuMTEgMTAyLDQ5My41IEM4OS44NSw0ODcuNyA4Mi41Mzc2LDQ4Mi4zMjI1IDczLjYxNzYsNDc0LjAwMjUgIiBmaWxsPSJub25lIiBpZD0iQmxvY2tjaGFpbi10by1NaW5lcnMiIHN0eWxlPSJzdHJva2U6IzE4MTgxODtzdHJva2Utd2lkdGg6MS4wOyIvPjxwb2x5Z29uIGZpbGw9IiMxODE4MTgiIHBvaW50cz0iNjkuMjMsNDY5LjkxLDczLjA4MzEsNDc4Ljk3MzksNzIuODg2NCw0NzMuMzIwNCw3OC41Mzk4LDQ3My4xMjM3LDY5LjIzLDQ2OS45MSIgc3R5bGU9InN0cm9rZTojMTgxODE4O3N0cm9rZS13aWR0aDoxLjA7Ii8+PHRleHQgZmlsbD0iIzAwMDAwMCIgZm9udC1mYW1pbHk9InNhbnMtc2VyaWYiIGZvbnQtc2l6ZT0iMTMiIGxlbmd0aEFkanVzdD0ic3BhY2luZyIgdGV4dExlbmd0aD0iMTQ4IiB4PSIxNTYiIHk9IjUxNC43ODkxIj5WYWxpZGF0ZXMgVHJhbnNhY3Rpb25zPC90ZXh0PjwvZz48IS0tbGluayBCbG9ja2NoYWluIHRvIExldmVsREItLT48ZyBpZD0ibGlua19CbG9ja2NoYWluX0xldmVsREIiPjxwYXRoIGQ9Ik00NDYsNTgxLjg4IEM0NDYsNjAyLjE2IDQ0Niw2MzAuMDEgNDQ2LDY1MC4yNCAiIGZpbGw9Im5vbmUiIGlkPSJCbG9ja2NoYWluLXRvLUxldmVsREIiIHN0eWxlPSJzdHJva2U6IzE4MTgxODtzdHJva2Utd2lkdGg6MS4wOyIvPjxwb2x5Z29uIGZpbGw9IiMxODE4MTgiIHBvaW50cz0iNDQ2LDY1Ni4yNCw0NTAsNjQ3LjI0LDQ0Niw2NTEuMjQsNDQyLDY0Ny4yNCw0NDYsNjU2LjI0IiBzdHlsZT0ic3Ryb2tlOiMxODE4MTg7c3Ryb2tlLXdpZHRoOjEuMDsiLz48dGV4dCBmaWxsPSIjMDAwMDAwIiBmb250LWZhbWlseT0ic2Fucy1zZXJpZiIgZm9udC1zaXplPSIxMyIgbGVuZ3RoQWRqdXN0PSJzcGFjaW5nIiB0ZXh0TGVuZ3RoPSI4OSIgeD0iNDQ3IiB5PSI2MjQuNzg5MSI+TG9jYWwgU3RvcmFnZTwvdGV4dD48L2c+PCEtLWxpbmsgSW9UIERldmljZXMgdG8gRWRnZXMtLT48ZyBpZD0ibGlua19Jb1QgRGV2aWNlc19FZGdlcyI+PHBhdGggZD0iTTEzMDUuNzgsMjA5LjYgQzEzMDIuNTIsMjMzLjk0IDEyOTcuMjc2NSwyNzMuMTAzMSAxMjk0LjAxNjUsMjk3LjQ0MzEgIiBmaWxsPSJub25lIiBpZD0iSW9UIERldmljZXMtdG8tRWRnZXMiIHN0eWxlPSJzdHJva2U6IzE4MTgxODtzdHJva2Utd2lkdGg6MS4wOyIvPjxwb2x5Z29uIGZpbGw9IiMxODE4MTgiIHBvaW50cz0iMTI5My4yMiwzMDMuMzksMTI5OC4zNzk0LDI5NS4wMDA3LDEyOTMuODgzOCwyOTguNDM0MywxMjkwLjQ1MDIsMjkzLjkzODcsMTI5My4yMiwzMDMuMzkiIHN0eWxlPSJzdHJva2U6IzE4MTgxODtzdHJva2Utd2lkdGg6MS4wOyIvPjx0ZXh0IGZpbGw9IiMwMDAwMDAiIGZvbnQtZmFtaWx5PSJzYW5zLXNlcmlmIiBmb250LXNpemU9IjEzIiBsZW5ndGhBZGp1c3Q9InNwYWNpbmciIHRleHRMZW5ndGg9IjY5IiB4PSIxMzAyIiB5PSIyNTIuNzg5MSI+U2VuZHMgRGF0YTwvdGV4dD48L2c+PCEtLWxpbmsgRWRnZXMgdG8gTUVILU1BQyBQcm90b2NvbC0tPjxnIGlkPSJsaW5rX0VkZ2VzX01FSC1NQUMgUHJvdG9jb2wiPjxwYXRoIGQ9Ik0xMjY2LjMsMzM4LjU5IEMxMjUzLjA1LDM0Ni44MyAxMjM2LjE3LDM1Ni4zMiAxMjIwLDM2Mi41IEMxMTAyLjkxLDQwNy4yOCA5NjMuODg0OSw0MzAuOTk4OCA4ODEuMTQ0OSw0NDIuMjg4OCAiIGZpbGw9Im5vbmUiIGlkPSJFZGdlcy10by1NRUgtTUFDIFByb3RvY29sIiBzdHlsZT0ic3Ryb2tlOiMxODE4MTg7c3Ryb2tlLXdpZHRoOjEuMDsiLz48cG9seWdvbiBmaWxsPSIjMTgxODE4IiBwb2ludHM9Ijg3NS4yLDQ0My4xLDg4NC42NTgyLDQ0NS44NDY1LDg4MC4xNTQxLDQ0Mi40MjQsODgzLjU3NjYsNDM3LjkxOTksODc1LjIsNDQzLjEiIHN0eWxlPSJzdHJva2U6IzE4MTgxODtzdHJva2Utd2lkdGg6MS4wOyIvPjx0ZXh0IGZpbGw9IiMwMDAwMDAiIGZvbnQtZmFtaWx5PSJzYW5zLXNlcmlmIiBmb250LXNpemU9IjEzIiBsZW5ndGhBZGp1c3Q9InNwYWNpbmciIHRleHRMZW5ndGg9IjE0NiIgeD0iMTE4OCIgeT0iMzgzLjc4OTEiPk9wdGltaXplcyBUcmFuc21pc3Npb248L3RleHQ+PC9nPjwhLS1saW5rIENTUCAoQ2xvdWQgU2VydmljZSBQcm92aWRlcnMpIHRvIE1vbmdvREItLT48ZyBpZD0ibGlua19DU1AgKENsb3VkIFNlcnZpY2UgUHJvdmlkZXJzKV9Nb25nb0RCIj48cGF0aCBkPSJNMTgyLjYzLDQzNC40OCBDMTQ2LjMxLDQxOS43MyAxMDYuODEsMzk2LjQ3IDEyOSwzNzAuNSBDMTYzLjc1LDMyOS44MyAzMjIuNzkwNiwzMjMuMTUxNyAzOTUuNDgwNiwzMjIuMTYxNyAiIGZpbGw9Im5vbmUiIGlkPSJDU1AgKENsb3VkIFNlcnZpY2UgUHJvdmlkZXJzKS10by1Nb25nb0RCIiBzdHlsZT0ic3Ryb2tlOiMxODE4MTg7c3Ryb2tlLXdpZHRoOjEuMDsiLz48cG9seWdvbiBmaWxsPSIjMTgxODE4IiBwb2ludHM9IjQwMS40OCwzMjIuMDgsMzkyLjQyNjQsMzE4LjIwMjksMzk2LjQ4MDUsMzIyLjE0ODEsMzkyLjUzNTMsMzI2LjIwMjIsNDAxLjQ4LDMyMi4wOCIgc3R5bGU9InN0cm9rZTojMTgxODE4O3N0cm9rZS13aWR0aDoxLjA7Ii8+PHRleHQgZmlsbD0iIzAwMDAwMCIgZm9udC1mYW1pbHk9InNhbnMtc2VyaWYiIGZvbnQtc2l6ZT0iMTMiIGxlbmd0aEFkanVzdD0ic3BhY2luZyIgdGV4dExlbmd0aD0iMTUxIiB4PSIxMzAiIHk9IjM4My43ODkxIj5TdG9yZXMgT3V0c291cmNlZCBEYXRhPC90ZXh0PjwvZz48IS0tbGluayBNRUgtTUFDIFByb3RvY29sIHRvIEJsb2NrY2hhaW4tLT48ZyBpZD0ibGlua19NRUgtTUFDIFByb3RvY29sX0Jsb2NrY2hhaW4iPjxwYXRoIGQ9Ik03NzguNTQsNDY5LjU2IEM3NjIuODcsNDc3LjU5IDc0My4yNyw0ODYuOSA3MjUsNDkzLjUgQzY0NC43Miw1MjIuNSA1NTMuMDg4Nyw1NDIuNjE5NyA0OTcuMTg4Nyw1NTMuNTM5NyAiIGZpbGw9Im5vbmUiIGlkPSJNRUgtTUFDIFByb3RvY29sLXRvLUJsb2NrY2hhaW4iIHN0eWxlPSJzdHJva2U6IzE4MTgxODtzdHJva2Utd2lkdGg6MS4wOyIvPjxwb2x5Z29uIGZpbGw9IiMxODE4MTgiIHBvaW50cz0iNDkxLjMsNTU0LjY5LDUwMC44OTk5LDU1Ni44OTAzLDQ5Ni4yMDcyLDU1My43MzE0LDQ5OS4zNjYxLDU0OS4wMzg3LDQ5MS4zLDU1NC42OSIgc3R5bGU9InN0cm9rZTojMTgxODE4O3N0cm9rZS13aWR0aDoxLjA7Ii8+PHRleHQgZmlsbD0iIzAwMDAwMCIgZm9udC1mYW1pbHk9InNhbnMtc2VyaWYiIGZvbnQtc2l6ZT0iMTMiIGxlbmd0aEFkanVzdD0ic3BhY2luZyIgdGV4dExlbmd0aD0iODMiIHg9IjY5NyIgeT0iNTE0Ljc4OTEiPlNlY3VyZXMgRGF0YTwvdGV4dD48L2c+PCEtLVNSQz1bWkxEREotQ200QnR4THVtdWVEcjMtRzRTYUQ4Rmo0NjVoSlE1Mi04bXd1bzJnTWp0UlFUQkdWbFZUbm9kOEtxSFMxa0Z0eG9QVVNfc0FzS3N3NzBEcWd1dHJmMDlIVFhmMGFTb2VBYXEyTzRvTTBVdGRmbUc2dkdoaDBYRUJmcXJXS252MGd5MnVGdzZkaUZQYXQtOHlIQUxfZ2pDMlBFWVExQU5vajVsekZHV19sS09uWHBxMk5vdUlsMm5qZDhiN3I2UHZaWWRCVWRmazhjbGhRYmk2c1N2ZEM5T0xKMzVXRWJzemNEcWRLcld1TW9tcWtoM1ZoRmRHQ3dXWGVCU0xhZG9SVVQ5aU8xbDRzdGhTZHlKMlJRZzlFVV85cnZiRTN2YW8tcUl2aFdacnhCNHl2R1F0Z1BjTGJRS0lnOW1DMWZUbDhhNHZ2MnBVOHc1elU4anNzOFE3SFhJaTNXVWlhS0VsLVhGcFVhWng4N0dONzZSR3BIRmNNZzh4MW84ZzNYRkxlVDd6YmY5M0NlUThSZy0zUnBkRzNWOHFnN25GMzczX0czLWlPQkN5QkNFdGpRRWpNZEM2ZkdWNmlkbVo1dFFsUm1GRmw4dXFjLTJNZ2p6R1BmcWhSbkZjX01OSUhKOUpZd3lHd3JBMzNKU3hnWGFfbVF2UGN2YlY0Rnk5VldUQzd0Vi0wSEVyZFYyZklOUXYxVHM2OHBfWVJZOWlGcU1pSVNGbllJVHVjTlJfeFpka3F4QnNoS29fV1MwXS0tPjwvZz48L3N2Zz4=;direction=east;" parent="1" vertex="1">
            <mxGeometry x="-2090" y="-1820" width="2139.92" height="1100" as="geometry" />
          </mxCell>
        </UserObject>
      </root>
    </mxGraphModel>
  </diagram>
  <diagram id="3HeBiT7_UX5r-vkwqmmQ" name="Page-2">
    <mxGraphModel dx="2496" dy="991" grid="1" gridSize="10" guides="1" tooltips="1" connect="1" arrows="1" fold="1" page="1" pageScale="1" pageWidth="827" pageHeight="1169" math="0" shadow="0">
      <root>
        <mxCell id="0" />
        <mxCell id="1" parent="0" />
        <UserObject label="" plantUmlData="{&quot;data&quot;:&quot;@startuml\n!define RECTANGLE class\n\n&#39; Define the components for each microservice\nRECTANGLE UserService {\n  + User Management\n  + Authentication\n  + Interaction with Firebase\n}\n\nRECTANGLE BlockchainService {\n  + Blockchain Management\n  + Transaction Processing\n  + Interaction with LevelDB (Local Storage)\n  + Interaction with MongoDB (Global Storage)\n}\n\nRECTANGLE DataService {\n  + Data Storage and Retrieval\n  + Interaction with MongoDB\n}\n\nRECTANGLE CSPService {\n  + Data Processing and Storage\n  + Interaction with Firebase\n}\n\nRECTANGLE IoTService {\n  + Data Collection from IoT Devices\n  + Interaction with BlockchainService\n}\n\nRECTANGLE AnalyticsService {\n  + Data Analysis\n  + Integration with AI\n}\n\nRECTANGLE EdgeService {\n  + Edge Data Processing\n  + Interaction with IoTService and BlockchainService\n}\n\n&#39; Define interactions between components\nUserService --&gt; Firebase : Authentication, Data Management\nUserService --&gt; DataService : User Data Retrieval\nBlockchainService --&gt; LevelDB : Local Blockchain Data Storage\nBlockchainService --&gt; MongoDB : Global Blockchain Data Retrieval\nBlockchainService --&gt; CSPService : Blockchain Data Exchange\nDataService --&gt; MongoDB : Data Storage and Retrieval\nCSPService --&gt; Firebase : Data Storage and Access\nIoTService --&gt; BlockchainService : Data Submission\nAnalyticsService --&gt; BlockchainService : Data Analysis\nEdgeService --&gt; IoTService : Data Collection and Processing\nEdgeService --&gt; BlockchainService : Data Submission\n\n@enduml\n&quot;,&quot;format&quot;:&quot;svg&quot;}" id="J96UiG3L0MqMB5QkRdJR-2">
          <mxCell style="shape=image;noLabel=1;verticalAlign=top;aspect=fixed;imageAspect=0;image=data:image/svg+xml,PD94bWwgdmVyc2lvbj0iMS4wIiBlbmNvZGluZz0idXMtYXNjaWkiIHN0YW5kYWxvbmU9Im5vIj8+PHN2ZyB4bWxucz0iaHR0cDovL3d3dy53My5vcmcvMjAwMC9zdmciIHhtbG5zOnhsaW5rPSJodHRwOi8vd3d3LnczLm9yZy8xOTk5L3hsaW5rIiBjb250ZW50U3R5bGVUeXBlPSJ0ZXh0L2NzcyIgaGVpZ2h0PSI3MTlweCIgcHJlc2VydmVBc3BlY3RSYXRpbz0ibm9uZSIgc3R5bGU9IndpZHRoOjEyMzZweDtoZWlnaHQ6NzE5cHg7YmFja2dyb3VuZDojRkZGRkZGOyIgdmVyc2lvbj0iMS4xIiB2aWV3Qm94PSIwIDAgMTIzNiA3MTkiIHdpZHRoPSIxMjM2cHgiIHpvb21BbmRQYW49Im1hZ25pZnkiPjxkZWZzLz48Zz48IS0tY2xhc3MgVXNlclNlcnZpY2UtLT48ZyBpZD0iZWxlbV9Vc2VyU2VydmljZSI+PHJlY3QgY29kZUxpbmU9IjQiIGZpbGw9IiNGMUYxRjEiIGhlaWdodD0iOTIuOTUzMSIgaWQ9IlVzZXJTZXJ2aWNlIiByeD0iMi41IiByeT0iMi41IiBzdHlsZT0ic3Ryb2tlOiMxODE4MTg7c3Ryb2tlLXdpZHRoOjAuNTsiIHdpZHRoPSIyMDIiIHg9Ijg3Ny41IiB5PSIxNjAiLz48ZWxsaXBzZSBjeD0iOTM1Ljc1IiBjeT0iMTc2IiBmaWxsPSIjQUREMUIyIiByeD0iMTEiIHJ5PSIxMSIgc3R5bGU9InN0cm9rZTojMTgxODE4O3N0cm9rZS13aWR0aDoxLjA7Ii8+PHBhdGggZD0iTTkzMy4zNzUsMTgwLjI1IEw5MzMuMzc1LDE4MiBMOTM4LjMxMjUsMTgyIEw5MzguMzEyNSwxODAuMjUgTDkzMy4zNzUsMTgwLjI1IFogTTkzNC4wNjI1LDE4MC45Mzc1IFE5MzQuMDYyNSwxODAuOTM3NSA5MzQuMDYyNSwxNzEuNzUgTDkzMi4zMTI1LDE3MS43NSBROTMyLjMxMjUsMTcxLjc1IDkzMi4zMTI1LDE4MC45Mzc1IEw5MzQuMDYyNSwxODAuOTM3NSBaIE05MzcuNjI1LDE4MC45Mzc1IEw5MzkuMzc1LDE4MC45Mzc1IFE5MzkuMzc1LDE4MC45Mzc1IDkzOS4zNzUsMTc4LjEyNSBMOTM3LjYyNSwxNzguMTI1IFE5MzcuNjI1LDE3OC4xMjUgOTM3LjYyNSwxODAuOTM3NSBaIE05MzcuNjI1LDE3MS43NSBROTM3LjYyNSwxNzEuNzUgOTM3LjYyNSwxNzQuNTYyNSBMOTM5LjM3NSwxNzQuNTYyNSBROTM5LjM3NSwxNzQuNTYyNSA5MzkuMzc1LDE3MS43NSBMOTM3LjYyNSwxNzEuNzUgWiBNOTMzLjM3NSwxNzIuNDM3NSBMOTM4LjMxMjUsMTcyLjQzNzUgTDkzOC4zMTI1LDE3MC42ODc1IEw5MzMuMzc1LDE3MC42ODc1IEw5MzMuMzc1LDE3Mi40Mzc1IFogIiBmaWxsPSIjMDAwMDAwIi8+PHRleHQgZmlsbD0iIzAwMDAwMCIgZm9udC1mYW1pbHk9InNhbnMtc2VyaWYiIGZvbnQtc2l6ZT0iMTQiIGxlbmd0aEFkanVzdD0ic3BhY2luZyIgdGV4dExlbmd0aD0iNzciIHg9Ijk1Ni4yNSIgeT0iMTgxLjc0MjIiPlVzZXJTZXJ2aWNlPC90ZXh0PjxsaW5lIHN0eWxlPSJzdHJva2U6IzE4MTgxODtzdHJva2Utd2lkdGg6MC41OyIgeDE9Ijg3OC41IiB4Mj0iMTA3OC41IiB5MT0iMTkyIiB5Mj0iMTkyIi8+PGVsbGlwc2UgY3g9Ijg4OC41IiBjeT0iMjA0Ljk5MjIiIGZpbGw9Im5vbmUiIHJ4PSIzIiByeT0iMyIgc3R5bGU9InN0cm9rZTojMDM4MDQ4O3N0cm9rZS13aWR0aDoxLjA7Ii8+PHRleHQgZmlsbD0iIzAwMDAwMCIgZm9udC1mYW1pbHk9InNhbnMtc2VyaWYiIGZvbnQtc2l6ZT0iMTQiIGxlbmd0aEFkanVzdD0ic3BhY2luZyIgdGV4dExlbmd0aD0iMTA2IiB4PSI4OTcuNSIgeT0iMjA5LjIzNDQiPlVzZXIgTWFuYWdlbWVudDwvdGV4dD48ZWxsaXBzZSBjeD0iODg4LjUiIGN5PSIyMTkuOTc2NiIgZmlsbD0ibm9uZSIgcng9IjMiIHJ5PSIzIiBzdHlsZT0ic3Ryb2tlOiMwMzgwNDg7c3Ryb2tlLXdpZHRoOjEuMDsiLz48dGV4dCBmaWxsPSIjMDAwMDAwIiBmb250LWZhbWlseT0ic2Fucy1zZXJpZiIgZm9udC1zaXplPSIxNCIgbGVuZ3RoQWRqdXN0PSJzcGFjaW5nIiB0ZXh0TGVuZ3RoPSI5OCIgeD0iODk3LjUiIHk9IjIyNC4yMTg4Ij5BdXRoZW50aWNhdGlvbjwvdGV4dD48ZWxsaXBzZSBjeD0iODg4LjUiIGN5PSIyMzQuOTYwOSIgZmlsbD0ibm9uZSIgcng9IjMiIHJ5PSIzIiBzdHlsZT0ic3Ryb2tlOiMwMzgwNDg7c3Ryb2tlLXdpZHRoOjEuMDsiLz48dGV4dCBmaWxsPSIjMDAwMDAwIiBmb250LWZhbWlseT0ic2Fucy1zZXJpZiIgZm9udC1zaXplPSIxNCIgbGVuZ3RoQWRqdXN0PSJzcGFjaW5nIiB0ZXh0TGVuZ3RoPSIxNzYiIHg9Ijg5Ny41IiB5PSIyMzkuMjAzMSI+SW50ZXJhY3Rpb24gd2l0aCBGaXJlYmFzZTwvdGV4dD48bGluZSBzdHlsZT0ic3Ryb2tlOiMxODE4MTg7c3Ryb2tlLXdpZHRoOjAuNTsiIHgxPSI4NzguNSIgeDI9IjEwNzguNSIgeTE9IjI0NC45NTMxIiB5Mj0iMjQ0Ljk1MzEiLz48L2c+PCEtLWNsYXNzIEJsb2NrY2hhaW5TZXJ2aWNlLS0+PGcgaWQ9ImVsZW1fQmxvY2tjaGFpblNlcnZpY2UiPjxyZWN0IGNvZGVMaW5lPSIxMCIgZmlsbD0iI0YxRjFGMSIgaGVpZ2h0PSIxMDcuOTM3NSIgaWQ9IkJsb2NrY2hhaW5TZXJ2aWNlIiByeD0iMi41IiByeT0iMi41IiBzdHlsZT0ic3Ryb2tlOiMxODE4MTg7c3Ryb2tlLXdpZHRoOjAuNTsiIHdpZHRoPSIzMTYiIHg9IjIyOS41IiB5PSIzMjgiLz48ZWxsaXBzZSBjeD0iMzIzLjc1IiBjeT0iMzQ0IiBmaWxsPSIjQUREMUIyIiByeD0iMTEiIHJ5PSIxMSIgc3R5bGU9InN0cm9rZTojMTgxODE4O3N0cm9rZS13aWR0aDoxLjA7Ii8+PHBhdGggZD0iTTMyMS4zNzUsMzQ4LjI1IEwzMjEuMzc1LDM1MCBMMzI2LjMxMjUsMzUwIEwzMjYuMzEyNSwzNDguMjUgTDMyMS4zNzUsMzQ4LjI1IFogTTMyMi4wNjI1LDM0OC45Mzc1IFEzMjIuMDYyNSwzNDguOTM3NSAzMjIuMDYyNSwzMzkuNzUgTDMyMC4zMTI1LDMzOS43NSBRMzIwLjMxMjUsMzM5Ljc1IDMyMC4zMTI1LDM0OC45Mzc1IEwzMjIuMDYyNSwzNDguOTM3NSBaIE0zMjUuNjI1LDM0OC45Mzc1IEwzMjcuMzc1LDM0OC45Mzc1IFEzMjcuMzc1LDM0OC45Mzc1IDMyNy4zNzUsMzQ2LjEyNSBMMzI1LjYyNSwzNDYuMTI1IFEzMjUuNjI1LDM0Ni4xMjUgMzI1LjYyNSwzNDguOTM3NSBaIE0zMjUuNjI1LDMzOS43NSBRMzI1LjYyNSwzMzkuNzUgMzI1LjYyNSwzNDIuNTYyNSBMMzI3LjM3NSwzNDIuNTYyNSBRMzI3LjM3NSwzNDIuNTYyNSAzMjcuMzc1LDMzOS43NSBMMzI1LjYyNSwzMzkuNzUgWiBNMzIxLjM3NSwzNDAuNDM3NSBMMzI2LjMxMjUsMzQwLjQzNzUgTDMyNi4zMTI1LDMzOC42ODc1IEwzMjEuMzc1LDMzOC42ODc1IEwzMjEuMzc1LDM0MC40Mzc1IFogIiBmaWxsPSIjMDAwMDAwIi8+PHRleHQgZmlsbD0iIzAwMDAwMCIgZm9udC1mYW1pbHk9InNhbnMtc2VyaWYiIGZvbnQtc2l6ZT0iMTQiIGxlbmd0aEFkanVzdD0ic3BhY2luZyIgdGV4dExlbmd0aD0iMTE5IiB4PSIzNDQuMjUiIHk9IjM0OS43NDIyIj5CbG9ja2NoYWluU2VydmljZTwvdGV4dD48bGluZSBzdHlsZT0ic3Ryb2tlOiMxODE4MTg7c3Ryb2tlLXdpZHRoOjAuNTsiIHgxPSIyMzAuNSIgeDI9IjU0NC41IiB5MT0iMzYwIiB5Mj0iMzYwIi8+PGVsbGlwc2UgY3g9IjI0MC41IiBjeT0iMzcyLjk5MjIiIGZpbGw9Im5vbmUiIHJ4PSIzIiByeT0iMyIgc3R5bGU9InN0cm9rZTojMDM4MDQ4O3N0cm9rZS13aWR0aDoxLjA7Ii8+PHRleHQgZmlsbD0iIzAwMDAwMCIgZm9udC1mYW1pbHk9InNhbnMtc2VyaWYiIGZvbnQtc2l6ZT0iMTQiIGxlbmd0aEFkanVzdD0ic3BhY2luZyIgdGV4dExlbmd0aD0iMTQ4IiB4PSIyNDkuNSIgeT0iMzc3LjIzNDQiPkJsb2NrY2hhaW4gTWFuYWdlbWVudDwvdGV4dD48ZWxsaXBzZSBjeD0iMjQwLjUiIGN5PSIzODcuOTc2NiIgZmlsbD0ibm9uZSIgcng9IjMiIHJ5PSIzIiBzdHlsZT0ic3Ryb2tlOiMwMzgwNDg7c3Ryb2tlLXdpZHRoOjEuMDsiLz48dGV4dCBmaWxsPSIjMDAwMDAwIiBmb250LWZhbWlseT0ic2Fucy1zZXJpZiIgZm9udC1zaXplPSIxNCIgbGVuZ3RoQWRqdXN0PSJzcGFjaW5nIiB0ZXh0TGVuZ3RoPSIxNTQiIHg9IjI0OS41IiB5PSIzOTIuMjE4OCI+VHJhbnNhY3Rpb24gUHJvY2Vzc2luZzwvdGV4dD48bGluZSBzdHlsZT0ic3Ryb2tlOiMxODE4MTg7c3Ryb2tlLXdpZHRoOjAuNTsiIHgxPSIyMzAuNSIgeDI9IjU0NC41IiB5MT0iMzk3Ljk2ODgiIHkyPSIzOTcuOTY4OCIvPjxlbGxpcHNlIGN4PSIyNDAuNSIgY3k9IjQxMC45NjA5IiBmaWxsPSIjODRCRTg0IiByeD0iMyIgcnk9IjMiIHN0eWxlPSJzdHJva2U6IzAzODA0ODtzdHJva2Utd2lkdGg6MS4wOyIvPjx0ZXh0IGZpbGw9IiMwMDAwMDAiIGZvbnQtZmFtaWx5PSJzYW5zLXNlcmlmIiBmb250LXNpemU9IjE0IiBsZW5ndGhBZGp1c3Q9InNwYWNpbmciIHRleHRMZW5ndGg9IjI4MyIgeD0iMjQ5LjUiIHk9IjQxNS4yMDMxIj5JbnRlcmFjdGlvbiB3aXRoIExldmVsREIgKExvY2FsIFN0b3JhZ2UpPC90ZXh0PjxlbGxpcHNlIGN4PSIyNDAuNSIgY3k9IjQyNS45NDUzIiBmaWxsPSIjODRCRTg0IiByeD0iMyIgcnk9IjMiIHN0eWxlPSJzdHJva2U6IzAzODA0ODtzdHJva2Utd2lkdGg6MS4wOyIvPjx0ZXh0IGZpbGw9IiMwMDAwMDAiIGZvbnQtZmFtaWx5PSJzYW5zLXNlcmlmIiBmb250LXNpemU9IjE0IiBsZW5ndGhBZGp1c3Q9InNwYWNpbmciIHRleHRMZW5ndGg9IjI5MCIgeD0iMjQ5LjUiIHk9IjQzMC4xODc1Ij5JbnRlcmFjdGlvbiB3aXRoIE1vbmdvREIgKEdsb2JhbCBTdG9yYWdlKTwvdGV4dD48L2c+PCEtLWNsYXNzIERhdGFTZXJ2aWNlLS0+PGcgaWQ9ImVsZW1fRGF0YVNlcnZpY2UiPjxyZWN0IGNvZGVMaW5lPSIxNyIgZmlsbD0iI0YxRjFGMSIgaGVpZ2h0PSI3Ny45Njg4IiBpZD0iRGF0YVNlcnZpY2UiIHJ4PSIyLjUiIHJ5PSIyLjUiIHN0eWxlPSJzdHJva2U6IzE4MTgxODtzdHJva2Utd2lkdGg6MC41OyIgd2lkdGg9IjIwOCIgeD0iNzY0LjUiIHk9IjM0MyIvPjxlbGxpcHNlIGN4PSI4MjUuNzUiIGN5PSIzNTkiIGZpbGw9IiNBREQxQjIiIHJ4PSIxMSIgcnk9IjExIiBzdHlsZT0ic3Ryb2tlOiMxODE4MTg7c3Ryb2tlLXdpZHRoOjEuMDsiLz48cGF0aCBkPSJNODIzLjM3NSwzNjMuMjUgTDgyMy4zNzUsMzY1IEw4MjguMzEyNSwzNjUgTDgyOC4zMTI1LDM2My4yNSBMODIzLjM3NSwzNjMuMjUgWiBNODI0LjA2MjUsMzYzLjkzNzUgUTgyNC4wNjI1LDM2My45Mzc1IDgyNC4wNjI1LDM1NC43NSBMODIyLjMxMjUsMzU0Ljc1IFE4MjIuMzEyNSwzNTQuNzUgODIyLjMxMjUsMzYzLjkzNzUgTDgyNC4wNjI1LDM2My45Mzc1IFogTTgyNy42MjUsMzYzLjkzNzUgTDgyOS4zNzUsMzYzLjkzNzUgUTgyOS4zNzUsMzYzLjkzNzUgODI5LjM3NSwzNjEuMTI1IEw4MjcuNjI1LDM2MS4xMjUgUTgyNy42MjUsMzYxLjEyNSA4MjcuNjI1LDM2My45Mzc1IFogTTgyNy42MjUsMzU0Ljc1IFE4MjcuNjI1LDM1NC43NSA4MjcuNjI1LDM1Ny41NjI1IEw4MjkuMzc1LDM1Ny41NjI1IFE4MjkuMzc1LDM1Ny41NjI1IDgyOS4zNzUsMzU0Ljc1IEw4MjcuNjI1LDM1NC43NSBaIE04MjMuMzc1LDM1NS40Mzc1IEw4MjguMzEyNSwzNTUuNDM3NSBMODI4LjMxMjUsMzUzLjY4NzUgTDgyMy4zNzUsMzUzLjY4NzUgTDgyMy4zNzUsMzU1LjQzNzUgWiAiIGZpbGw9IiMwMDAwMDAiLz48dGV4dCBmaWxsPSIjMDAwMDAwIiBmb250LWZhbWlseT0ic2Fucy1zZXJpZiIgZm9udC1zaXplPSIxNCIgbGVuZ3RoQWRqdXN0PSJzcGFjaW5nIiB0ZXh0TGVuZ3RoPSI3NyIgeD0iODQ2LjI1IiB5PSIzNjQuNzQyMiI+RGF0YVNlcnZpY2U8L3RleHQ+PGxpbmUgc3R5bGU9InN0cm9rZTojMTgxODE4O3N0cm9rZS13aWR0aDowLjU7IiB4MT0iNzY1LjUiIHgyPSI5NzEuNSIgeTE9IjM3NSIgeTI9IjM3NSIvPjxlbGxpcHNlIGN4PSI3NzUuNSIgY3k9IjM4Ny45OTIyIiBmaWxsPSJub25lIiByeD0iMyIgcnk9IjMiIHN0eWxlPSJzdHJva2U6IzAzODA0ODtzdHJva2Utd2lkdGg6MS4wOyIvPjx0ZXh0IGZpbGw9IiMwMDAwMDAiIGZvbnQtZmFtaWx5PSJzYW5zLXNlcmlmIiBmb250LXNpemU9IjE0IiBsZW5ndGhBZGp1c3Q9InNwYWNpbmciIHRleHRMZW5ndGg9IjE4MiIgeD0iNzg0LjUiIHk9IjM5Mi4yMzQ0Ij5EYXRhIFN0b3JhZ2UgYW5kIFJldHJpZXZhbDwvdGV4dD48ZWxsaXBzZSBjeD0iNzc1LjUiIGN5PSI0MDIuOTc2NiIgZmlsbD0ibm9uZSIgcng9IjMiIHJ5PSIzIiBzdHlsZT0ic3Ryb2tlOiMwMzgwNDg7c3Ryb2tlLXdpZHRoOjEuMDsiLz48dGV4dCBmaWxsPSIjMDAwMDAwIiBmb250LWZhbWlseT0ic2Fucy1zZXJpZiIgZm9udC1zaXplPSIxNCIgbGVuZ3RoQWRqdXN0PSJzcGFjaW5nIiB0ZXh0TGVuZ3RoPSIxNjkiIHg9Ijc4NC41IiB5PSI0MDcuMjE4OCI+SW50ZXJhY3Rpb24gd2l0aCBNb25nb0RCPC90ZXh0PjxsaW5lIHN0eWxlPSJzdHJva2U6IzE4MTgxODtzdHJva2Utd2lkdGg6MC41OyIgeDE9Ijc2NS41IiB4Mj0iOTcxLjUiIHkxPSI0MTIuOTY4OCIgeTI9IjQxMi45Njg4Ii8+PC9nPjwhLS1jbGFzcyBDU1BTZXJ2aWNlLS0+PGcgaWQ9ImVsZW1fQ1NQU2VydmljZSI+PHJlY3QgY29kZUxpbmU9IjIyIiBmaWxsPSIjRjFGMUYxIiBoZWlnaHQ9Ijc3Ljk2ODgiIGlkPSJDU1BTZXJ2aWNlIiByeD0iMi41IiByeT0iMi41IiBzdHlsZT0ic3Ryb2tlOiMxODE4MTg7c3Ryb2tlLXdpZHRoOjAuNTsiIHdpZHRoPSIyMTUiIHg9IjQxNCIgeT0iNTExIi8+PGVsbGlwc2UgY3g9IjQ4Mi4yNSIgY3k9IjUyNyIgZmlsbD0iI0FERDFCMiIgcng9IjExIiByeT0iMTEiIHN0eWxlPSJzdHJva2U6IzE4MTgxODtzdHJva2Utd2lkdGg6MS4wOyIvPjxwYXRoIGQ9Ik00NzkuODc1LDUzMS4yNSBMNDc5Ljg3NSw1MzMgTDQ4NC44MTI1LDUzMyBMNDg0LjgxMjUsNTMxLjI1IEw0NzkuODc1LDUzMS4yNSBaIE00ODAuNTYyNSw1MzEuOTM3NSBRNDgwLjU2MjUsNTMxLjkzNzUgNDgwLjU2MjUsNTIyLjc1IEw0NzguODEyNSw1MjIuNzUgUTQ3OC44MTI1LDUyMi43NSA0NzguODEyNSw1MzEuOTM3NSBMNDgwLjU2MjUsNTMxLjkzNzUgWiBNNDg0LjEyNSw1MzEuOTM3NSBMNDg1Ljg3NSw1MzEuOTM3NSBRNDg1Ljg3NSw1MzEuOTM3NSA0ODUuODc1LDUyOS4xMjUgTDQ4NC4xMjUsNTI5LjEyNSBRNDg0LjEyNSw1MjkuMTI1IDQ4NC4xMjUsNTMxLjkzNzUgWiBNNDg0LjEyNSw1MjIuNzUgUTQ4NC4xMjUsNTIyLjc1IDQ4NC4xMjUsNTI1LjU2MjUgTDQ4NS44NzUsNTI1LjU2MjUgUTQ4NS44NzUsNTI1LjU2MjUgNDg1Ljg3NSw1MjIuNzUgTDQ4NC4xMjUsNTIyLjc1IFogTTQ3OS44NzUsNTIzLjQzNzUgTDQ4NC44MTI1LDUyMy40Mzc1IEw0ODQuODEyNSw1MjEuNjg3NSBMNDc5Ljg3NSw1MjEuNjg3NSBMNDc5Ljg3NSw1MjMuNDM3NSBaICIgZmlsbD0iIzAwMDAwMCIvPjx0ZXh0IGZpbGw9IiMwMDAwMDAiIGZvbnQtZmFtaWx5PSJzYW5zLXNlcmlmIiBmb250LXNpemU9IjE0IiBsZW5ndGhBZGp1c3Q9InNwYWNpbmciIHRleHRMZW5ndGg9IjcwIiB4PSI1MDIuNzUiIHk9IjUzMi43NDIyIj5DU1BTZXJ2aWNlPC90ZXh0PjxsaW5lIHN0eWxlPSJzdHJva2U6IzE4MTgxODtzdHJva2Utd2lkdGg6MC41OyIgeDE9IjQxNSIgeDI9IjYyOCIgeTE9IjU0MyIgeTI9IjU0MyIvPjxlbGxpcHNlIGN4PSI0MjUiIGN5PSI1NTUuOTkyMiIgZmlsbD0ibm9uZSIgcng9IjMiIHJ5PSIzIiBzdHlsZT0ic3Ryb2tlOiMwMzgwNDg7c3Ryb2tlLXdpZHRoOjEuMDsiLz48dGV4dCBmaWxsPSIjMDAwMDAwIiBmb250LWZhbWlseT0ic2Fucy1zZXJpZiIgZm9udC1zaXplPSIxNCIgbGVuZ3RoQWRqdXN0PSJzcGFjaW5nIiB0ZXh0TGVuZ3RoPSIxODkiIHg9IjQzNCIgeT0iNTYwLjIzNDQiPkRhdGEgUHJvY2Vzc2luZyBhbmQgU3RvcmFnZTwvdGV4dD48ZWxsaXBzZSBjeD0iNDI1IiBjeT0iNTcwLjk3NjYiIGZpbGw9Im5vbmUiIHJ4PSIzIiByeT0iMyIgc3R5bGU9InN0cm9rZTojMDM4MDQ4O3N0cm9rZS13aWR0aDoxLjA7Ii8+PHRleHQgZmlsbD0iIzAwMDAwMCIgZm9udC1mYW1pbHk9InNhbnMtc2VyaWYiIGZvbnQtc2l6ZT0iMTQiIGxlbmd0aEFkanVzdD0ic3BhY2luZyIgdGV4dExlbmd0aD0iMTc2IiB4PSI0MzQiIHk9IjU3NS4yMTg4Ij5JbnRlcmFjdGlvbiB3aXRoIEZpcmViYXNlPC90ZXh0PjxsaW5lIHN0eWxlPSJzdHJva2U6IzE4MTgxODtzdHJva2Utd2lkdGg6MC41OyIgeDE9IjQxNSIgeDI9IjYyOCIgeTE9IjU4MC45Njg4IiB5Mj0iNTgwLjk2ODgiLz48L2c+PCEtLWNsYXNzIElvVFNlcnZpY2UtLT48ZyBpZD0iZWxlbV9Jb1RTZXJ2aWNlIj48cmVjdCBjb2RlTGluZT0iMjciIGZpbGw9IiNGMUYxRjEiIGhlaWdodD0iNzcuOTY4OCIgaWQ9IklvVFNlcnZpY2UiIHJ4PSIyLjUiIHJ5PSIyLjUiIHN0eWxlPSJzdHJva2U6IzE4MTgxODtzdHJva2Utd2lkdGg6MC41OyIgd2lkdGg9IjI2NSIgeD0iNyIgeT0iMTY3LjUiLz48ZWxsaXBzZSBjeD0iMTAwLjI1IiBjeT0iMTgzLjUiIGZpbGw9IiNBREQxQjIiIHJ4PSIxMSIgcnk9IjExIiBzdHlsZT0ic3Ryb2tlOiMxODE4MTg7c3Ryb2tlLXdpZHRoOjEuMDsiLz48cGF0aCBkPSJNOTcuODc1LDE4Ny43NSBMOTcuODc1LDE4OS41IEwxMDIuODEyNSwxODkuNSBMMTAyLjgxMjUsMTg3Ljc1IEw5Ny44NzUsMTg3Ljc1IFogTTk4LjU2MjUsMTg4LjQzNzUgUTk4LjU2MjUsMTg4LjQzNzUgOTguNTYyNSwxNzkuMjUgTDk2LjgxMjUsMTc5LjI1IFE5Ni44MTI1LDE3OS4yNSA5Ni44MTI1LDE4OC40Mzc1IEw5OC41NjI1LDE4OC40Mzc1IFogTTEwMi4xMjUsMTg4LjQzNzUgTDEwMy44NzUsMTg4LjQzNzUgUTEwMy44NzUsMTg4LjQzNzUgMTAzLjg3NSwxODUuNjI1IEwxMDIuMTI1LDE4NS42MjUgUTEwMi4xMjUsMTg1LjYyNSAxMDIuMTI1LDE4OC40Mzc1IFogTTEwMi4xMjUsMTc5LjI1IFExMDIuMTI1LDE3OS4yNSAxMDIuMTI1LDE4Mi4wNjI1IEwxMDMuODc1LDE4Mi4wNjI1IFExMDMuODc1LDE4Mi4wNjI1IDEwMy44NzUsMTc5LjI1IEwxMDIuMTI1LDE3OS4yNSBaIE05Ny44NzUsMTc5LjkzNzUgTDEwMi44MTI1LDE3OS45Mzc1IEwxMDIuODEyNSwxNzguMTg3NSBMOTcuODc1LDE3OC4xODc1IEw5Ny44NzUsMTc5LjkzNzUgWiAiIGZpbGw9IiMwMDAwMDAiLz48dGV4dCBmaWxsPSIjMDAwMDAwIiBmb250LWZhbWlseT0ic2Fucy1zZXJpZiIgZm9udC1zaXplPSIxNCIgbGVuZ3RoQWRqdXN0PSJzcGFjaW5nIiB0ZXh0TGVuZ3RoPSI3MCIgeD0iMTIwLjc1IiB5PSIxODkuMjQyMiI+SW9UU2VydmljZTwvdGV4dD48bGluZSBzdHlsZT0ic3Ryb2tlOiMxODE4MTg7c3Ryb2tlLXdpZHRoOjAuNTsiIHgxPSI4IiB4Mj0iMjcxIiB5MT0iMTk5LjUiIHkyPSIxOTkuNSIvPjxlbGxpcHNlIGN4PSIxOCIgY3k9IjIxMi40OTIyIiBmaWxsPSJub25lIiByeD0iMyIgcnk9IjMiIHN0eWxlPSJzdHJva2U6IzAzODA0ODtzdHJva2Utd2lkdGg6MS4wOyIvPjx0ZXh0IGZpbGw9IiMwMDAwMDAiIGZvbnQtZmFtaWx5PSJzYW5zLXNlcmlmIiBmb250LXNpemU9IjE0IiBsZW5ndGhBZGp1c3Q9InNwYWNpbmciIHRleHRMZW5ndGg9IjIyNSIgeD0iMjciIHk9IjIxNi43MzQ0Ij5EYXRhIENvbGxlY3Rpb24gZnJvbSBJb1QgRGV2aWNlczwvdGV4dD48ZWxsaXBzZSBjeD0iMTgiIGN5PSIyMjcuNDc2NiIgZmlsbD0ibm9uZSIgcng9IjMiIHJ5PSIzIiBzdHlsZT0ic3Ryb2tlOiMwMzgwNDg7c3Ryb2tlLXdpZHRoOjEuMDsiLz48dGV4dCBmaWxsPSIjMDAwMDAwIiBmb250LWZhbWlseT0ic2Fucy1zZXJpZiIgZm9udC1zaXplPSIxNCIgbGVuZ3RoQWRqdXN0PSJzcGFjaW5nIiB0ZXh0TGVuZ3RoPSIyMzkiIHg9IjI3IiB5PSIyMzEuNzE4OCI+SW50ZXJhY3Rpb24gd2l0aCBCbG9ja2NoYWluU2VydmljZTwvdGV4dD48bGluZSBzdHlsZT0ic3Ryb2tlOiMxODE4MTg7c3Ryb2tlLXdpZHRoOjAuNTsiIHgxPSI4IiB4Mj0iMjcxIiB5MT0iMjM3LjQ2ODgiIHkyPSIyMzcuNDY4OCIvPjwvZz48IS0tY2xhc3MgQW5hbHl0aWNzU2VydmljZS0tPjxnIGlkPSJlbGVtX0FuYWx5dGljc1NlcnZpY2UiPjxyZWN0IGNvZGVMaW5lPSIzMiIgZmlsbD0iI0YxRjFGMSIgaGVpZ2h0PSI3Ny45Njg4IiBpZD0iQW5hbHl0aWNzU2VydmljZSIgcng9IjIuNSIgcnk9IjIuNSIgc3R5bGU9InN0cm9rZTojMTgxODE4O3N0cm9rZS13aWR0aDowLjU7IiB3aWR0aD0iMTYwIiB4PSIzMDcuNSIgeT0iMTY3LjUiLz48ZWxsaXBzZSBjeD0iMzI5LjciIGN5PSIxODMuNSIgZmlsbD0iI0FERDFCMiIgcng9IjExIiByeT0iMTEiIHN0eWxlPSJzdHJva2U6IzE4MTgxODtzdHJva2Utd2lkdGg6MS4wOyIvPjxwYXRoIGQ9Ik0zMjcuMzI1LDE4Ny43NSBMMzI3LjMyNSwxODkuNSBMMzMyLjI2MjUsMTg5LjUgTDMzMi4yNjI1LDE4Ny43NSBMMzI3LjMyNSwxODcuNzUgWiBNMzI4LjAxMjUsMTg4LjQzNzUgUTMyOC4wMTI1LDE4OC40Mzc1IDMyOC4wMTI1LDE3OS4yNSBMMzI2LjI2MjUsMTc5LjI1IFEzMjYuMjYyNSwxNzkuMjUgMzI2LjI2MjUsMTg4LjQzNzUgTDMyOC4wMTI1LDE4OC40Mzc1IFogTTMzMS41NzUsMTg4LjQzNzUgTDMzMy4zMjUsMTg4LjQzNzUgUTMzMy4zMjUsMTg4LjQzNzUgMzMzLjMyNSwxODUuNjI1IEwzMzEuNTc1LDE4NS42MjUgUTMzMS41NzUsMTg1LjYyNSAzMzEuNTc1LDE4OC40Mzc1IFogTTMzMS41NzUsMTc5LjI1IFEzMzEuNTc1LDE3OS4yNSAzMzEuNTc1LDE4Mi4wNjI1IEwzMzMuMzI1LDE4Mi4wNjI1IFEzMzMuMzI1LDE4Mi4wNjI1IDMzMy4zMjUsMTc5LjI1IEwzMzEuNTc1LDE3OS4yNSBaIE0zMjcuMzI1LDE3OS45Mzc1IEwzMzIuMjYyNSwxNzkuOTM3NSBMMzMyLjI2MjUsMTc4LjE4NzUgTDMyNy4zMjUsMTc4LjE4NzUgTDMyNy4zMjUsMTc5LjkzNzUgWiAiIGZpbGw9IiMwMDAwMDAiLz48dGV4dCBmaWxsPSIjMDAwMDAwIiBmb250LWZhbWlseT0ic2Fucy1zZXJpZiIgZm9udC1zaXplPSIxNCIgbGVuZ3RoQWRqdXN0PSJzcGFjaW5nIiB0ZXh0TGVuZ3RoPSIxMTIiIHg9IjM0NS4zIiB5PSIxODkuMjQyMiI+QW5hbHl0aWNzU2VydmljZTwvdGV4dD48bGluZSBzdHlsZT0ic3Ryb2tlOiMxODE4MTg7c3Ryb2tlLXdpZHRoOjAuNTsiIHgxPSIzMDguNSIgeDI9IjQ2Ni41IiB5MT0iMTk5LjUiIHkyPSIxOTkuNSIvPjxlbGxpcHNlIGN4PSIzMTguNSIgY3k9IjIxMi40OTIyIiBmaWxsPSJub25lIiByeD0iMyIgcnk9IjMiIHN0eWxlPSJzdHJva2U6IzAzODA0ODtzdHJva2Utd2lkdGg6MS4wOyIvPjx0ZXh0IGZpbGw9IiMwMDAwMDAiIGZvbnQtZmFtaWx5PSJzYW5zLXNlcmlmIiBmb250LXNpemU9IjE0IiBsZW5ndGhBZGp1c3Q9InNwYWNpbmciIHRleHRMZW5ndGg9IjkxIiB4PSIzMjcuNSIgeT0iMjE2LjczNDQiPkRhdGEgQW5hbHlzaXM8L3RleHQ+PGVsbGlwc2UgY3g9IjMxOC41IiBjeT0iMjI3LjQ3NjYiIGZpbGw9Im5vbmUiIHJ4PSIzIiByeT0iMyIgc3R5bGU9InN0cm9rZTojMDM4MDQ4O3N0cm9rZS13aWR0aDoxLjA7Ii8+PHRleHQgZmlsbD0iIzAwMDAwMCIgZm9udC1mYW1pbHk9InNhbnMtc2VyaWYiIGZvbnQtc2l6ZT0iMTQiIGxlbmd0aEFkanVzdD0ic3BhY2luZyIgdGV4dExlbmd0aD0iMTM0IiB4PSIzMjcuNSIgeT0iMjMxLjcxODgiPkludGVncmF0aW9uIHdpdGggQUk8L3RleHQ+PGxpbmUgc3R5bGU9InN0cm9rZTojMTgxODE4O3N0cm9rZS13aWR0aDowLjU7IiB4MT0iMzA4LjUiIHgyPSI0NjYuNSIgeTE9IjIzNy40Njg4IiB5Mj0iMjM3LjQ2ODgiLz48L2c+PCEtLWNsYXNzIEVkZ2VTZXJ2aWNlLS0+PGcgaWQ9ImVsZW1fRWRnZVNlcnZpY2UiPjxyZWN0IGNvZGVMaW5lPSIzNyIgZmlsbD0iI0YxRjFGMSIgaGVpZ2h0PSI3Ny45Njg4IiBpZD0iRWRnZVNlcnZpY2UiIHJ4PSIyLjUiIHJ5PSIyLjUiIHN0eWxlPSJzdHJva2U6IzE4MTgxODtzdHJva2Utd2lkdGg6MC41OyIgd2lkdGg9IjM3MCIgeD0iMTUzLjUiIHk9IjciLz48ZWxsaXBzZSBjeD0iMjk1Ljc1IiBjeT0iMjMiIGZpbGw9IiNBREQxQjIiIHJ4PSIxMSIgcnk9IjExIiBzdHlsZT0ic3Ryb2tlOiMxODE4MTg7c3Ryb2tlLXdpZHRoOjEuMDsiLz48cGF0aCBkPSJNMjkzLjM3NSwyNy4yNSBMMjkzLjM3NSwyOSBMMjk4LjMxMjUsMjkgTDI5OC4zMTI1LDI3LjI1IEwyOTMuMzc1LDI3LjI1IFogTTI5NC4wNjI1LDI3LjkzNzUgUTI5NC4wNjI1LDI3LjkzNzUgMjk0LjA2MjUsMTguNzUgTDI5Mi4zMTI1LDE4Ljc1IFEyOTIuMzEyNSwxOC43NSAyOTIuMzEyNSwyNy45Mzc1IEwyOTQuMDYyNSwyNy45Mzc1IFogTTI5Ny42MjUsMjcuOTM3NSBMMjk5LjM3NSwyNy45Mzc1IFEyOTkuMzc1LDI3LjkzNzUgMjk5LjM3NSwyNS4xMjUgTDI5Ny42MjUsMjUuMTI1IFEyOTcuNjI1LDI1LjEyNSAyOTcuNjI1LDI3LjkzNzUgWiBNMjk3LjYyNSwxOC43NSBRMjk3LjYyNSwxOC43NSAyOTcuNjI1LDIxLjU2MjUgTDI5OS4zNzUsMjEuNTYyNSBRMjk5LjM3NSwyMS41NjI1IDI5OS4zNzUsMTguNzUgTDI5Ny42MjUsMTguNzUgWiBNMjkzLjM3NSwxOS40Mzc1IEwyOTguMzEyNSwxOS40Mzc1IEwyOTguMzEyNSwxNy42ODc1IEwyOTMuMzc1LDE3LjY4NzUgTDI5My4zNzUsMTkuNDM3NSBaICIgZmlsbD0iIzAwMDAwMCIvPjx0ZXh0IGZpbGw9IiMwMDAwMDAiIGZvbnQtZmFtaWx5PSJzYW5zLXNlcmlmIiBmb250LXNpemU9IjE0IiBsZW5ndGhBZGp1c3Q9InNwYWNpbmciIHRleHRMZW5ndGg9Ijc3IiB4PSIzMTYuMjUiIHk9IjI4Ljc0MjIiPkVkZ2VTZXJ2aWNlPC90ZXh0PjxsaW5lIHN0eWxlPSJzdHJva2U6IzE4MTgxODtzdHJva2Utd2lkdGg6MC41OyIgeDE9IjE1NC41IiB4Mj0iNTIyLjUiIHkxPSIzOSIgeTI9IjM5Ii8+PGVsbGlwc2UgY3g9IjE2NC41IiBjeT0iNTEuOTkyMiIgZmlsbD0ibm9uZSIgcng9IjMiIHJ5PSIzIiBzdHlsZT0ic3Ryb2tlOiMwMzgwNDg7c3Ryb2tlLXdpZHRoOjEuMDsiLz48dGV4dCBmaWxsPSIjMDAwMDAwIiBmb250LWZhbWlseT0ic2Fucy1zZXJpZiIgZm9udC1zaXplPSIxNCIgbGVuZ3RoQWRqdXN0PSJzcGFjaW5nIiB0ZXh0TGVuZ3RoPSIxNDAiIHg9IjE3My41IiB5PSI1Ni4yMzQ0Ij5FZGdlIERhdGEgUHJvY2Vzc2luZzwvdGV4dD48ZWxsaXBzZSBjeD0iMTY0LjUiIGN5PSI2Ni45NzY2IiBmaWxsPSJub25lIiByeD0iMyIgcnk9IjMiIHN0eWxlPSJzdHJva2U6IzAzODA0ODtzdHJva2Utd2lkdGg6MS4wOyIvPjx0ZXh0IGZpbGw9IiMwMDAwMDAiIGZvbnQtZmFtaWx5PSJzYW5zLXNlcmlmIiBmb250LXNpemU9IjE0IiBsZW5ndGhBZGp1c3Q9InNwYWNpbmciIHRleHRMZW5ndGg9IjM0NCIgeD0iMTczLjUiIHk9IjcxLjIxODgiPkludGVyYWN0aW9uIHdpdGggSW9UU2VydmljZSBhbmQgQmxvY2tjaGFpblNlcnZpY2U8L3RleHQ+PGxpbmUgc3R5bGU9InN0cm9rZTojMTgxODE4O3N0cm9rZS13aWR0aDowLjU7IiB4MT0iMTU0LjUiIHgyPSI1MjIuNSIgeTE9Ijc2Ljk2ODgiIHkyPSI3Ni45Njg4Ii8+PC9nPjwhLS1jbGFzcyBGaXJlYmFzZS0tPjxnIGlkPSJlbGVtX0ZpcmViYXNlIj48cmVjdCBmaWxsPSIjRjFGMUYxIiBoZWlnaHQ9IjQ4IiBpZD0iRmlyZWJhc2UiIHJ4PSIyLjUiIHJ5PSIyLjUiIHN0eWxlPSJzdHJva2U6IzE4MTgxODtzdHJva2Utd2lkdGg6MC41OyIgd2lkdGg9Ijg4IiB4PSI2OTEuNSIgeT0iNjY0Ii8+PGVsbGlwc2UgY3g9IjcwNi41IiBjeT0iNjgwIiBmaWxsPSIjQUREMUIyIiByeD0iMTEiIHJ5PSIxMSIgc3R5bGU9InN0cm9rZTojMTgxODE4O3N0cm9rZS13aWR0aDoxLjA7Ii8+PHBhdGggZD0iTTcwNC4xMjUsNjg0LjI1IEw3MDQuMTI1LDY4NiBMNzA5LjA2MjUsNjg2IEw3MDkuMDYyNSw2ODQuMjUgTDcwNC4xMjUsNjg0LjI1IFogTTcwNC44MTI1LDY4NC45Mzc1IFE3MDQuODEyNSw2ODQuOTM3NSA3MDQuODEyNSw2NzUuNzUgTDcwMy4wNjI1LDY3NS43NSBRNzAzLjA2MjUsNjc1Ljc1IDcwMy4wNjI1LDY4NC45Mzc1IEw3MDQuODEyNSw2ODQuOTM3NSBaIE03MDguMzc1LDY4NC45Mzc1IEw3MTAuMTI1LDY4NC45Mzc1IFE3MTAuMTI1LDY4NC45Mzc1IDcxMC4xMjUsNjgyLjEyNSBMNzA4LjM3NSw2ODIuMTI1IFE3MDguMzc1LDY4Mi4xMjUgNzA4LjM3NSw2ODQuOTM3NSBaIE03MDguMzc1LDY3NS43NSBRNzA4LjM3NSw2NzUuNzUgNzA4LjM3NSw2NzguNTYyNSBMNzEwLjEyNSw2NzguNTYyNSBRNzEwLjEyNSw2NzguNTYyNSA3MTAuMTI1LDY3NS43NSBMNzA4LjM3NSw2NzUuNzUgWiBNNzA0LjEyNSw2NzYuNDM3NSBMNzA5LjA2MjUsNjc2LjQzNzUgTDcwOS4wNjI1LDY3NC42ODc1IEw3MDQuMTI1LDY3NC42ODc1IEw3MDQuMTI1LDY3Ni40Mzc1IFogIiBmaWxsPSIjMDAwMDAwIi8+PHRleHQgZmlsbD0iIzAwMDAwMCIgZm9udC1mYW1pbHk9InNhbnMtc2VyaWYiIGZvbnQtc2l6ZT0iMTQiIGxlbmd0aEFkanVzdD0ic3BhY2luZyIgdGV4dExlbmd0aD0iNTYiIHg9IjcyMC41IiB5PSI2ODUuNzQyMiI+RmlyZWJhc2U8L3RleHQ+PGxpbmUgc3R5bGU9InN0cm9rZTojMTgxODE4O3N0cm9rZS13aWR0aDowLjU7IiB4MT0iNjkyLjUiIHgyPSI3NzguNSIgeTE9IjY5NiIgeTI9IjY5NiIvPjxsaW5lIHN0eWxlPSJzdHJva2U6IzE4MTgxODtzdHJva2Utd2lkdGg6MC41OyIgeDE9IjY5Mi41IiB4Mj0iNzc4LjUiIHkxPSI3MDQiIHkyPSI3MDQiLz48L2c+PCEtLWNsYXNzIExldmVsREItLT48ZyBpZD0iZWxlbV9MZXZlbERCIj48cmVjdCBmaWxsPSIjRjFGMUYxIiBoZWlnaHQ9IjQ4IiBpZD0iTGV2ZWxEQiIgcng9IjIuNSIgcnk9IjIuNSIgc3R5bGU9InN0cm9rZTojMTgxODE4O3N0cm9rZS13aWR0aDowLjU7IiB3aWR0aD0iODEiIHg9IjEwNyIgeT0iNTI2Ii8+PGVsbGlwc2UgY3g9IjEyMiIgY3k9IjU0MiIgZmlsbD0iI0FERDFCMiIgcng9IjExIiByeT0iMTEiIHN0eWxlPSJzdHJva2U6IzE4MTgxODtzdHJva2Utd2lkdGg6MS4wOyIvPjxwYXRoIGQ9Ik0xMTkuNjI1LDU0Ni4yNSBMMTE5LjYyNSw1NDggTDEyNC41NjI1LDU0OCBMMTI0LjU2MjUsNTQ2LjI1IEwxMTkuNjI1LDU0Ni4yNSBaIE0xMjAuMzEyNSw1NDYuOTM3NSBRMTIwLjMxMjUsNTQ2LjkzNzUgMTIwLjMxMjUsNTM3Ljc1IEwxMTguNTYyNSw1MzcuNzUgUTExOC41NjI1LDUzNy43NSAxMTguNTYyNSw1NDYuOTM3NSBMMTIwLjMxMjUsNTQ2LjkzNzUgWiBNMTIzLjg3NSw1NDYuOTM3NSBMMTI1LjYyNSw1NDYuOTM3NSBRMTI1LjYyNSw1NDYuOTM3NSAxMjUuNjI1LDU0NC4xMjUgTDEyMy44NzUsNTQ0LjEyNSBRMTIzLjg3NSw1NDQuMTI1IDEyMy44NzUsNTQ2LjkzNzUgWiBNMTIzLjg3NSw1MzcuNzUgUTEyMy44NzUsNTM3Ljc1IDEyMy44NzUsNTQwLjU2MjUgTDEyNS42MjUsNTQwLjU2MjUgUTEyNS42MjUsNTQwLjU2MjUgMTI1LjYyNSw1MzcuNzUgTDEyMy44NzUsNTM3Ljc1IFogTTExOS42MjUsNTM4LjQzNzUgTDEyNC41NjI1LDUzOC40Mzc1IEwxMjQuNTYyNSw1MzYuNjg3NSBMMTE5LjYyNSw1MzYuNjg3NSBMMTE5LjYyNSw1MzguNDM3NSBaICIgZmlsbD0iIzAwMDAwMCIvPjx0ZXh0IGZpbGw9IiMwMDAwMDAiIGZvbnQtZmFtaWx5PSJzYW5zLXNlcmlmIiBmb250LXNpemU9IjE0IiBsZW5ndGhBZGp1c3Q9InNwYWNpbmciIHRleHRMZW5ndGg9IjQ5IiB4PSIxMzYiIHk9IjU0Ny43NDIyIj5MZXZlbERCPC90ZXh0PjxsaW5lIHN0eWxlPSJzdHJva2U6IzE4MTgxODtzdHJva2Utd2lkdGg6MC41OyIgeDE9IjEwOCIgeDI9IjE4NyIgeTE9IjU1OCIgeTI9IjU1OCIvPjxsaW5lIHN0eWxlPSJzdHJva2U6IzE4MTgxODtzdHJva2Utd2lkdGg6MC41OyIgeDE9IjEwOCIgeDI9IjE4NyIgeTE9IjU2NiIgeTI9IjU2NiIvPjwvZz48IS0tY2xhc3MgTW9uZ29EQi0tPjxnIGlkPSJlbGVtX01vbmdvREIiPjxyZWN0IGZpbGw9IiNGMUYxRjEiIGhlaWdodD0iNDgiIGlkPSJNb25nb0RCIiByeD0iMi41IiByeT0iMi41IiBzdHlsZT0ic3Ryb2tlOiMxODE4MTg7c3Ryb2tlLXdpZHRoOjAuNTsiIHdpZHRoPSI4MSIgeD0iNjc2IiB5PSI1MjYiLz48ZWxsaXBzZSBjeD0iNjkxIiBjeT0iNTQyIiBmaWxsPSIjQUREMUIyIiByeD0iMTEiIHJ5PSIxMSIgc3R5bGU9InN0cm9rZTojMTgxODE4O3N0cm9rZS13aWR0aDoxLjA7Ii8+PHBhdGggZD0iTTY4OC42MjUsNTQ2LjI1IEw2ODguNjI1LDU0OCBMNjkzLjU2MjUsNTQ4IEw2OTMuNTYyNSw1NDYuMjUgTDY4OC42MjUsNTQ2LjI1IFogTTY4OS4zMTI1LDU0Ni45Mzc1IFE2ODkuMzEyNSw1NDYuOTM3NSA2ODkuMzEyNSw1MzcuNzUgTDY4Ny41NjI1LDUzNy43NSBRNjg3LjU2MjUsNTM3Ljc1IDY4Ny41NjI1LDU0Ni45Mzc1IEw2ODkuMzEyNSw1NDYuOTM3NSBaIE02OTIuODc1LDU0Ni45Mzc1IEw2OTQuNjI1LDU0Ni45Mzc1IFE2OTQuNjI1LDU0Ni45Mzc1IDY5NC42MjUsNTQ0LjEyNSBMNjkyLjg3NSw1NDQuMTI1IFE2OTIuODc1LDU0NC4xMjUgNjkyLjg3NSw1NDYuOTM3NSBaIE02OTIuODc1LDUzNy43NSBRNjkyLjg3NSw1MzcuNzUgNjkyLjg3NSw1NDAuNTYyNSBMNjk0LjYyNSw1NDAuNTYyNSBRNjk0LjYyNSw1NDAuNTYyNSA2OTQuNjI1LDUzNy43NSBMNjkyLjg3NSw1MzcuNzUgWiBNNjg4LjYyNSw1MzguNDM3NSBMNjkzLjU2MjUsNTM4LjQzNzUgTDY5My41NjI1LDUzNi42ODc1IEw2ODguNjI1LDUzNi42ODc1IEw2ODguNjI1LDUzOC40Mzc1IFogIiBmaWxsPSIjMDAwMDAwIi8+PHRleHQgZmlsbD0iIzAwMDAwMCIgZm9udC1mYW1pbHk9InNhbnMtc2VyaWYiIGZvbnQtc2l6ZT0iMTQiIGxlbmd0aEFkanVzdD0ic3BhY2luZyIgdGV4dExlbmd0aD0iNDkiIHg9IjcwNSIgeT0iNTQ3Ljc0MjIiPk1vbmdvREI8L3RleHQ+PGxpbmUgc3R5bGU9InN0cm9rZTojMTgxODE4O3N0cm9rZS13aWR0aDowLjU7IiB4MT0iNjc3IiB4Mj0iNzU2IiB5MT0iNTU4IiB5Mj0iNTU4Ii8+PGxpbmUgc3R5bGU9InN0cm9rZTojMTgxODE4O3N0cm9rZS13aWR0aDowLjU7IiB4MT0iNjc3IiB4Mj0iNzU2IiB5MT0iNTY2IiB5Mj0iNTY2Ii8+PC9nPjwhLS1saW5rIFVzZXJTZXJ2aWNlIHRvIEZpcmViYXNlLS0+PGcgaWQ9ImxpbmtfVXNlclNlcnZpY2VfRmlyZWJhc2UiPjxwYXRoIGNvZGVMaW5lPSI0MyIgZD0iTTEwMzEuMjUsMjUzLjE0IEMxMDM4LjcsMjYyLjIyIDEwNDUuMjYsMjcyLjI5IDEwNDkuNSwyODMgQzEwNzEuMTksMzM3LjcyIDEyMjkuNzIsMTI5LjEzIDEwMTEuNSw0ODEgQzk1NC45Myw1NzIuMjEgODQ3LjM5MjksNjM0LjE2MDEgNzg0Ljk1MjksNjY0LjYxMDEgIiBmaWxsPSJub25lIiBpZD0iVXNlclNlcnZpY2UtdG8tRmlyZWJhc2UiIHN0eWxlPSJzdHJva2U6IzE4MTgxODtzdHJva2Utd2lkdGg6MS4wOyIvPjxwb2x5Z29uIGZpbGw9IiMxODE4MTgiIHBvaW50cz0iNzc5LjU2LDY2Ny4yNCw3ODkuNDAyNiw2NjYuODkwMyw3ODQuMDU0MSw2NjUuMDQ4NCw3ODUuODk2MSw2NTkuNjk5OCw3NzkuNTYsNjY3LjI0IiBzdHlsZT0ic3Ryb2tlOiMxODE4MTg7c3Ryb2tlLXdpZHRoOjEuMDsiLz48dGV4dCBmaWxsPSIjMDAwMDAwIiBmb250LWZhbWlseT0ic2Fucy1zZXJpZiIgZm9udC1zaXplPSIxMyIgbGVuZ3RoQWRqdXN0PSJzcGFjaW5nIiB0ZXh0TGVuZ3RoPSIyMDgiIHg9IjEwMTYuNSIgeT0iNDc5LjI4OTEiPkF1dGhlbnRpY2F0aW9uLCBEYXRhIE1hbmFnZW1lbnQ8L3RleHQ+PC9nPjwhLS1saW5rIFVzZXJTZXJ2aWNlIHRvIERhdGFTZXJ2aWNlLS0+PGcgaWQ9ImxpbmtfVXNlclNlcnZpY2VfRGF0YVNlcnZpY2UiPjxwYXRoIGNvZGVMaW5lPSI0NCIgZD0iTTkzNi41MywyNTMuMTMgQzkyOC43MywyNjIuNjUgOTIxLDI3Mi44OCA5MTQuNSwyODMgQzkwMi41MSwzMDEuNjYgODk0LjE4NTYsMzE4LjQzNDcgODg2LjEyNTYsMzM3LjAzNDcgIiBmaWxsPSJub25lIiBpZD0iVXNlclNlcnZpY2UtdG8tRGF0YVNlcnZpY2UiIHN0eWxlPSJzdHJva2U6IzE4MTgxODtzdHJva2Utd2lkdGg6MS4wOyIvPjxwb2x5Z29uIGZpbGw9IiMxODE4MTgiIHBvaW50cz0iODgzLjc0LDM0Mi41NCw4OTAuOTg4NywzMzUuODcyNCw4ODUuNzI4LDMzNy45NTIyLDg4My42NDgyLDMzMi42OTE2LDg4My43NCwzNDIuNTQiIHN0eWxlPSJzdHJva2U6IzE4MTgxODtzdHJva2Utd2lkdGg6MS4wOyIvPjx0ZXh0IGZpbGw9IiMwMDAwMDAiIGZvbnQtZmFtaWx5PSJzYW5zLXNlcmlmIiBmb250LXNpemU9IjEzIiBsZW5ndGhBZGp1c3Q9InNwYWNpbmciIHRleHRMZW5ndGg9IjEyOSIgeD0iOTE1LjUiIHk9IjI5Ni4yODkxIj5Vc2VyIERhdGEgUmV0cmlldmFsPC90ZXh0PjwvZz48IS0tbGluayBCbG9ja2NoYWluU2VydmljZSB0byBMZXZlbERCLS0+PGcgaWQ9ImxpbmtfQmxvY2tjaGFpblNlcnZpY2VfTGV2ZWxEQiI+PHBhdGggY29kZUxpbmU9IjQ1IiBkPSJNMjI5LjIzLDQyMi4yOSBDMjA2Ljg5LDQzMy40NCAxODUuOTYsNDQ3LjcyIDE2OS41LDQ2NiBDMTU0Ljc0LDQ4Mi40IDE1MC4yMjE1LDUwMS41OTM2IDE0OC41OTE1LDUxOS45MjM2ICIgZmlsbD0ibm9uZSIgaWQ9IkJsb2NrY2hhaW5TZXJ2aWNlLXRvLUxldmVsREIiIHN0eWxlPSJzdHJva2U6IzE4MTgxODtzdHJva2Utd2lkdGg6MS4wOyIvPjxwb2x5Z29uIGZpbGw9IiMxODE4MTgiIHBvaW50cz0iMTQ4LjA2LDUyNS45LDE1Mi44NDE1LDUxNy4yODk3LDE0OC41MDI5LDUyMC45MTk3LDE0NC44NzI5LDUxNi41ODExLDE0OC4wNiw1MjUuOSIgc3R5bGU9InN0cm9rZTojMTgxODE4O3N0cm9rZS13aWR0aDoxLjA7Ii8+PHRleHQgZmlsbD0iIzAwMDAwMCIgZm9udC1mYW1pbHk9InNhbnMtc2VyaWYiIGZvbnQtc2l6ZT0iMTMiIGxlbmd0aEFkanVzdD0ic3BhY2luZyIgdGV4dExlbmd0aD0iMTk4IiB4PSIxNzAuNSIgeT0iNDc5LjI4OTEiPkxvY2FsIEJsb2NrY2hhaW4gRGF0YSBTdG9yYWdlPC90ZXh0PjwvZz48IS0tbGluayBCbG9ja2NoYWluU2VydmljZSB0byBNb25nb0RCLS0+PGcgaWQ9ImxpbmtfQmxvY2tjaGFpblNlcnZpY2VfTW9uZ29EQiI+PHBhdGggY29kZUxpbmU9IjQ2IiBkPSJNNDk1Ljk2LDQzNi4wOCBDNTUzLjUsNDY0LjM1IDYxOC4wNiw0OTYuMjUgNjQ2LjUsNTExIEM2NTYuMDgsNTE1Ljk2IDY2MS4wMzMsNTE4LjU3NDYgNjcwLjY0Myw1MjMuNzc0NiAiIGZpbGw9Im5vbmUiIGlkPSJCbG9ja2NoYWluU2VydmljZS10by1Nb25nb0RCIiBzdHlsZT0ic3Ryb2tlOiMxODE4MTg7c3Ryb2tlLXdpZHRoOjEuMDsiLz48cG9seWdvbiBmaWxsPSIjMTgxODE4IiBwb2ludHM9IjY3NS45Miw1MjYuNjMsNjY5LjkwODEsNTE4LjgyODksNjcxLjUyMjUsNTI0LjI1MDUsNjY2LjEwMDksNTI1Ljg2NDksNjc1LjkyLDUyNi42MyIgc3R5bGU9InN0cm9rZTojMTgxODE4O3N0cm9rZS13aWR0aDoxLjA7Ii8+PHRleHQgZmlsbD0iIzAwMDAwMCIgZm9udC1mYW1pbHk9InNhbnMtc2VyaWYiIGZvbnQtc2l6ZT0iMTMiIGxlbmd0aEFkanVzdD0ic3BhY2luZyIgdGV4dExlbmd0aD0iMjE2IiB4PSI1ODUuNSIgeT0iNDc5LjI4OTEiPkdsb2JhbCBCbG9ja2NoYWluIERhdGEgUmV0cmlldmFsPC90ZXh0PjwvZz48IS0tbGluayBCbG9ja2NoYWluU2VydmljZSB0byBDU1BTZXJ2aWNlLS0+PGcgaWQ9ImxpbmtfQmxvY2tjaGFpblNlcnZpY2VfQ1NQU2VydmljZSI+PHBhdGggY29kZUxpbmU9IjQ3IiBkPSJNMzc1LjE5LDQzNi4yNSBDMzc0LjM2LDQ1MS42NSAzNzYuMzQsNDY3Ljg0IDM4NC41LDQ4MSBDMzkxLjkyLDQ5Mi45NiAzOTcuMjQzLDQ5OS4zOTkgNDA4Ljc4Myw1MDcuNjE5ICIgZmlsbD0ibm9uZSIgaWQ9IkJsb2NrY2hhaW5TZXJ2aWNlLXRvLUNTUFNlcnZpY2UiIHN0eWxlPSJzdHJva2U6IzE4MTgxODtzdHJva2Utd2lkdGg6MS4wOyIvPjxwb2x5Z29uIGZpbGw9IiMxODE4MTgiIHBvaW50cz0iNDEzLjY3LDUxMS4xLDQwOC42NjAyLDUwMi42MjA1LDQwOS41OTc1LDUwOC4xOTkyLDQwNC4wMTg5LDUwOS4xMzY1LDQxMy42Nyw1MTEuMSIgc3R5bGU9InN0cm9rZTojMTgxODE4O3N0cm9rZS13aWR0aDoxLjA7Ii8+PHRleHQgZmlsbD0iIzAwMDAwMCIgZm9udC1mYW1pbHk9InNhbnMtc2VyaWYiIGZvbnQtc2l6ZT0iMTMiIGxlbmd0aEFkanVzdD0ic3BhY2luZyIgdGV4dExlbmd0aD0iMTY1IiB4PSIzODUuNSIgeT0iNDc5LjI4OTEiPkJsb2NrY2hhaW4gRGF0YSBFeGNoYW5nZTwvdGV4dD48L2c+PCEtLWxpbmsgRGF0YVNlcnZpY2UgdG8gTW9uZ29EQi0tPjxnIGlkPSJsaW5rX0RhdGFTZXJ2aWNlX01vbmdvREIiPjxwYXRoIGNvZGVMaW5lPSI0OCIgZD0iTTg1MS45Niw0MjEuNDEgQzg0Mi40OSw0NDAuNjQgODI5LjM0LDQ2My40OSA4MTMuNSw0ODEgQzc5Ny40OSw0OTguNjkgNzgxLjE0OTYsNTExLjEwMDcgNzYyLjUwOTYsNTIyLjkwMDcgIiBmaWxsPSJub25lIiBpZD0iRGF0YVNlcnZpY2UtdG8tTW9uZ29EQiIgc3R5bGU9InN0cm9rZTojMTgxODE4O3N0cm9rZS13aWR0aDoxLjA7Ii8+PHBvbHlnb24gZmlsbD0iIzE4MTgxOCIgcG9pbnRzPSI3NTcuNDQsNTI2LjExLDc2Ny4xODM5LDUyNC42NzU4LDc2MS42NjQ2LDUyMy40MzU2LDc2Mi45MDQ4LDUxNy45MTY0LDc1Ny40NCw1MjYuMTEiIHN0eWxlPSJzdHJva2U6IzE4MTgxODtzdHJva2Utd2lkdGg6MS4wOyIvPjx0ZXh0IGZpbGw9IiMwMDAwMDAiIGZvbnQtZmFtaWx5PSJzYW5zLXNlcmlmIiBmb250LXNpemU9IjEzIiBsZW5ndGhBZGp1c3Q9InNwYWNpbmciIHRleHRMZW5ndGg9IjE3NyIgeD0iODI1LjUiIHk9IjQ3OS4yODkxIj5EYXRhIFN0b3JhZ2UgYW5kIFJldHJpZXZhbDwvdGV4dD48L2c+PCEtLWxpbmsgQ1NQU2VydmljZSB0byBGaXJlYmFzZS0tPjxnIGlkPSJsaW5rX0NTUFNlcnZpY2VfRmlyZWJhc2UiPjxwYXRoIGNvZGVMaW5lPSI0OSIgZD0iTTU4MS40LDU4OS4wNiBDNjE5LjIzLDYxMy4xMSA2NjEuODI1Niw2NDAuMTgyNSA2OTQuMDQ1Niw2NjAuNjUyNSAiIGZpbGw9Im5vbmUiIGlkPSJDU1BTZXJ2aWNlLXRvLUZpcmViYXNlIiBzdHlsZT0ic3Ryb2tlOiMxODE4MTg7c3Ryb2tlLXdpZHRoOjEuMDsiLz48cG9seWdvbiBmaWxsPSIjMTgxODE4IiBwb2ludHM9IjY5OS4xMSw2NjMuODcsNjkzLjY1ODQsNjU1LjY2NzUsNjk0Ljg4OTcsNjYxLjE4ODgsNjg5LjM2ODUsNjYyLjQyLDY5OS4xMSw2NjMuODciIHN0eWxlPSJzdHJva2U6IzE4MTgxODtzdHJva2Utd2lkdGg6MS4wOyIvPjx0ZXh0IGZpbGw9IiMwMDAwMDAiIGZvbnQtZmFtaWx5PSJzYW5zLXNlcmlmIiBmb250LXNpemU9IjEzIiBsZW5ndGhBZGp1c3Q9InNwYWNpbmciIHRleHRMZW5ndGg9IjE1OSIgeD0iNjQ4LjUiIHk9IjYzMi4yODkxIj5EYXRhIFN0b3JhZ2UgYW5kIEFjY2VzczwvdGV4dD48L2c+PCEtLWxpbmsgSW9UU2VydmljZSB0byBCbG9ja2NoYWluU2VydmljZS0tPjxnIGlkPSJsaW5rX0lvVFNlcnZpY2VfQmxvY2tjaGFpblNlcnZpY2UiPjxwYXRoIGNvZGVMaW5lPSI1MCIgZD0iTTE5My45MiwyNDUuNTggQzIyOC40MywyNjkuNzIgMjY4LjY0MzYsMjk3Ljg1MDcgMzA2LjY1MzYsMzI0LjQ0MDcgIiBmaWxsPSJub25lIiBpZD0iSW9UU2VydmljZS10by1CbG9ja2NoYWluU2VydmljZSIgc3R5bGU9InN0cm9rZTojMTgxODE4O3N0cm9rZS13aWR0aDoxLjA7Ii8+PHBvbHlnb24gZmlsbD0iIzE4MTgxOCIgcG9pbnRzPSIzMTEuNTcsMzI3Ljg4LDMwNi40ODgyLDMxOS40NDM0LDMwNy40NzMsMzI1LjAxMzksMzAxLjkwMjUsMzI1Ljk5ODcsMzExLjU3LDMyNy44OCIgc3R5bGU9InN0cm9rZTojMTgxODE4O3N0cm9rZS13aWR0aDoxLjA7Ii8+PHRleHQgZmlsbD0iIzAwMDAwMCIgZm9udC1mYW1pbHk9InNhbnMtc2VyaWYiIGZvbnQtc2l6ZT0iMTMiIGxlbmd0aEFkanVzdD0ic3BhY2luZyIgdGV4dExlbmd0aD0iMTAxIiB4PSIyNjQuNSIgeT0iMjk2LjI4OTEiPkRhdGEgU3VibWlzc2lvbjwvdGV4dD48L2c+PCEtLWxpbmsgQW5hbHl0aWNzU2VydmljZSB0byBCbG9ja2NoYWluU2VydmljZS0tPjxnIGlkPSJsaW5rX0FuYWx5dGljc1NlcnZpY2VfQmxvY2tjaGFpblNlcnZpY2UiPjxwYXRoIGNvZGVMaW5lPSI1MSIgZD0iTTM4Ny41LDI0NS41OCBDMzg3LjUsMjY5LjcyIDM4Ny41LDI5NS4yOSAzODcuNSwzMjEuODggIiBmaWxsPSJub25lIiBpZD0iQW5hbHl0aWNzU2VydmljZS10by1CbG9ja2NoYWluU2VydmljZSIgc3R5bGU9InN0cm9rZTojMTgxODE4O3N0cm9rZS13aWR0aDoxLjA7Ii8+PHBvbHlnb24gZmlsbD0iIzE4MTgxOCIgcG9pbnRzPSIzODcuNSwzMjcuODgsMzkxLjUsMzE4Ljg4LDM4Ny41LDMyMi44OCwzODMuNSwzMTguODgsMzg3LjUsMzI3Ljg4IiBzdHlsZT0ic3Ryb2tlOiMxODE4MTg7c3Ryb2tlLXdpZHRoOjEuMDsiLz48dGV4dCBmaWxsPSIjMDAwMDAwIiBmb250LWZhbWlseT0ic2Fucy1zZXJpZiIgZm9udC1zaXplPSIxMyIgbGVuZ3RoQWRqdXN0PSJzcGFjaW5nIiB0ZXh0TGVuZ3RoPSI4OCIgeD0iMzg4LjUiIHk9IjI5Ni4yODkxIj5EYXRhIEFuYWx5c2lzPC90ZXh0PjwvZz48IS0tbGluayBFZGdlU2VydmljZSB0byBJb1RTZXJ2aWNlLS0+PGcgaWQ9ImxpbmtfRWRnZVNlcnZpY2VfSW9UU2VydmljZSI+PHBhdGggY29kZUxpbmU9IjUyIiBkPSJNMjkwLjU4LDg1LjE3IEMyNTkuMywxMTAuMDggMjIzLjMxMzcsMTM4Ljc1MjUgMTkyLjA0MzcsMTYzLjY1MjUgIiBmaWxsPSJub25lIiBpZD0iRWRnZVNlcnZpY2UtdG8tSW9UU2VydmljZSIgc3R5bGU9InN0cm9rZTojMTgxODE4O3N0cm9rZS13aWR0aDoxLjA7Ii8+PHBvbHlnb24gZmlsbD0iIzE4MTgxOCIgcG9pbnRzPSIxODcuMzUsMTY3LjM5LDE5Ni44ODIyLDE2NC45MTI4LDE5MS4yNjE0LDE2NC4yNzU0LDE5MS44OTg4LDE1OC42NTQ2LDE4Ny4zNSwxNjcuMzkiIHN0eWxlPSJzdHJva2U6IzE4MTgxODtzdHJva2Utd2lkdGg6MS4wOyIvPjx0ZXh0IGZpbGw9IiMwMDAwMDAiIGZvbnQtZmFtaWx5PSJzYW5zLXNlcmlmIiBmb250LXNpemU9IjEzIiBsZW5ndGhBZGp1c3Q9InNwYWNpbmciIHRleHRMZW5ndGg9IjIwNCIgeD0iMjUxLjUiIHk9IjEyOC4yODkxIj5EYXRhIENvbGxlY3Rpb24gYW5kIFByb2Nlc3Npbmc8L3RleHQ+PC9nPjwhLS1saW5rIEVkZ2VTZXJ2aWNlIHRvIEJsb2NrY2hhaW5TZXJ2aWNlLS0+PGcgaWQ9ImxpbmtfRWRnZVNlcnZpY2VfQmxvY2tjaGFpblNlcnZpY2UiPjxwYXRoIGNvZGVMaW5lPSI1MyIgZD0iTTQyNi43Miw4NS4wNSBDNDQwLjQ2LDkzLjU1IDQ1My42NywxMDMuNTIgNDY0LjUsMTE1IEM0NzkuNjUsMTMxLjA1IDQ4MC43MiwxMzguNDUgNDg1LjUsMTYwIEM0OTguNzgsMjE5Ljg4IDUxMS4yOSwyNDIuMzUgNDg1LjUsMjk4IEM0ODAuNDQsMzA4LjkyIDQ3Ny4yMzMzLDMxNC41MzM4IDQ2OC44ODMzLDMyMy41MjM4ICIgZmlsbD0ibm9uZSIgaWQ9IkVkZ2VTZXJ2aWNlLXRvLUJsb2NrY2hhaW5TZXJ2aWNlIiBzdHlsZT0ic3Ryb2tlOiMxODE4MTg7c3Ryb2tlLXdpZHRoOjEuMDsiLz48cG9seWdvbiBmaWxsPSIjMTgxODE4IiBwb2ludHM9IjQ2NC44LDMyNy45Miw0NzMuODU1NywzMjQuMDQ3OCw0NjguMjAyNywzMjQuMjU2NSw0NjcuOTk0MSwzMTguNjAzNSw0NjQuOCwzMjcuOTIiIHN0eWxlPSJzdHJva2U6IzE4MTgxODtzdHJva2Utd2lkdGg6MS4wOyIvPjx0ZXh0IGZpbGw9IiMwMDAwMDAiIGZvbnQtZmFtaWx5PSJzYW5zLXNlcmlmIiBmb250LXNpemU9IjEzIiBsZW5ndGhBZGp1c3Q9InNwYWNpbmciIHRleHRMZW5ndGg9IjEwMSIgeD0iNTAxLjUiIHk9IjIxMi4yODkxIj5EYXRhIFN1Ym1pc3Npb248L3RleHQ+PC9nPjwhLS1TUkM9W2JMSlRKaThtNUJ4Vktub2xyMldsaTBrSjJQRUdXMjYwM3oyTG16Uk9qUU9qZTM2LWstdDZNQmpEckNrVGRrLWRmel9QckhQdEoyMmlxbDRjVVB4RUt3MlNRMXI1cnAyZkpxbzFHNk52OVdLQWVzNGQ1STJYMVBJQ0FnYkg3SFo1ZzhNX3NEQXdoaTlkMTcxTkxNMTExQ2NuajFITEJUYlJNYzRPOU9QOUtQTGNtZzBZcjd0M2FQYTJkZloyWjZZQ2xZQUZfdjVCLWFlQm1hSWVxalF4TVhqNVgzdUhCdk1hZzNLSi1SM2M3MF84OXV6bUN2VUtTNVdSZ0lwTHhOM3BHZWZTa2tPZmJ2ZFY3SFlVNDREMmd3eElEMENITXJZWEtHbUZYNV9LMk1kN3ctSzBRdGtfWWxXYXlmX3Zwa0hjVzdTaUVTU1FrckVvVDVxczd3dkIzdkZ0ZFliS0lHSlg3X1J2ek8xTVRRUFBJdm1ocVg4ZGl2MGZ0VU9PYWhYQVRuaDM5aHN4a2NhRFVaeGwwTWxINlo4cUhxSlhCS1JhMXR5cVVaWUY1LTlFc2t6aFNydkFrcjBfQ2Q2ekZuTWFwS2JfMm5va0lNeUNUTm96ZFYwcHptRXdZTkNDZnBudHVSXzlVdjZDVS0zcXROdThBLXZWQmZJemkxU1VUTVVzRkwxMnRQajd0aml3SER6bjB6cmQ5UkNQaU4tWE5ZV2wwaXluekhGZTQ5dm90RGlVdnoyQlBIVngxdmxWXS0tPjwvZz48L3N2Zz4=;" vertex="1" parent="1">
            <mxGeometry x="-430" y="10" width="1236" height="719" as="geometry" />
          </mxCell>
        </UserObject>
      </root>
    </mxGraphModel>
  </diagram>
  <diagram id="5hvP5m-aJjojSoZyP5Xo" name="Page-3">
    <mxGraphModel dx="751" dy="1615" grid="1" gridSize="10" guides="1" tooltips="1" connect="1" arrows="1" fold="1" page="1" pageScale="1" pageWidth="827" pageHeight="1169" math="0" shadow="0">
      <root>
        <mxCell id="0" />
        <mxCell id="1" parent="0" />
        <UserObject label="" plantUmlData="{&#xa;  &quot;data&quot;: &quot;@startuml\nstart\n\n:User Logs In;\n:Authenticate User;\n:Authenticate with Firebase;\n\nif (Authentication Successful?) then (yes)\n  :User Requests Data;\n  :Retrieve User Data from DataService;\n  :Access Data from MongoDB;\n  \n  :Request Data from BlockchainService;\n  :Process Data Request;\n  :Retrieve Blockchain Data from LevelDB;\n  :Retrieve Global Data from MongoDB;\n  \n  if (Data Exchange Required?) then (yes)\n    :Send Data to CSPService;\n    :Store Data in Firebase;\n    :Update Blockchain;\n  else (no)\n    :Display Data to User;\n  endif\n  \n  :Process User Requests;\n  :Perform Analytics;\n  :Analyze Data with AnalyticsService;\n  :Integrate with AI;\n  \nelse (no)\n  :Display Authentication Error;\nendif\n\n:End;\n\n@enduml\n&quot;,&#xa;  &quot;format&quot;: &quot;png&quot;&#xa;}" id="mLnBz4xXJgo_wtwGRM72-1">
          <mxCell style="shape=image;noLabel=1;verticalAlign=top;aspect=fixed;imageAspect=0;image=data:image/png,iVBORw0KGgoAAAANSUhEUgAAAlsAAARfCAIAAACk5rEKAAAAKnRFWHRjb3B5bGVmdABHZW5lcmF0ZWQgYnkgaHR0cHM6Ly9wbGFudHVtbC5jb212zsofAAABzmlUWHRwbGFudHVtbAABAAAAeJx1Uk1TwjAQvedX7BEOOoiM45SDFosOSEfGivfYbkvGNMEkreKvNx9IKzPekn0vb1/e7q02VJmm5sQfCIk2GhWsZKVhIaYkihuzRWFYTg2Cw05rn8xs4Z4pfKMap4SwEgY9ApMCsibPUeuy4TdDcAgM9qiHBCB0e8aPBrXRkFBDp678jEYxbENHX4ZSydqfMlQty9HzYi/cI6RSVDKZOTDoeOUeYcZl/p5vKRN9nbWSndDh0V8j3bue2MoiPHTrmA9cvlH+ryeXj8fmX1ZOVOj72fyK03CsaIaiCEpGwl227nl2qJEKA2xtdTPw4GZXuPF0vl0duUYYCHmQT5jecbo/dgjztTRRsPIQ4W80fyYVQkNVSlVDLCjf22GHqr99H2z55Tji/cQXwmCljgsUL3w8fX9HdyfbNFdKWpfBI4nmopiSW3tzS0zWnAqzSVfQotKOfXE+Ho0n55NBRg3EOwWjK7iYRJeX0XgED+kLOHhIlrS1g29slxojeNqhWCaPvwWYi5YpKWrrgixf045wNTmbMQPuYzad15QkWNKGG/silwUTVQSbl/uza7Kyk25oZbVRkDtpddXeYhn5AXu/IQBM59bAAACAAElEQVR4XuzdfWxc153ff//R//WvKFuSZcnUU57WDZJ1MnHS7TZA2/W6qZoiglqgMAK0VVRgH0qJ2lqiaEsiRdIBCtmRSFOxE9FxoojUw2qXq63sJo1JjmS32EKGTIgSbNNMQqmSqKFAgOqy1u+E56fjo+85986d4ZkZzr3v1x+DM+ee+zBzzzkf3plL8qF7AADg3r2HZAUAAJlEIgIA8DskIgAAv0MiAgDwOyQiAAC/QyICAPA7JCIAAL9DIgIA8DskIgAAv0MiAlnxySef/OIXv2hubv7mN7/5hS98Yf369V//+te/973v9ff3z8zMyNZA9pCIQCbk8/k/+qM/eizCl770pTfeeEOuA2QMiQik3w9/+MPHH39cxqDjT//0T2dnZ+XKQGaQiEDKHT16VEZftP/0n/7TJ598IjcBZAOJCKTZ//7f/zvJ1aHtyJEjcitANpCIQJp95zvfkYlXzBe+8IWpqSm5ISADSEQgtdQFooy7ZHp6euS2gAwgEYHU6urqklmXzLe//W25LSADSEQgtf7dv/t3MuuSWb9+vdwWkAEkIpBa//Sf/lOZdYnxVSIyiEQEUotEBEpCIgKpxaemQElIRCC1uLMGKAmJCKQWv30BlIREBNKM39AHkiMRgTTjr7gByZGIQMrxl76BhEhEIP34b1BAEiQikAn8x2CgKBIRyIpPPvnkF7/4RXNz8ze/+c0vfOEL69ev//rXv/69732vv79/ZmZGtgayh0QEMmrp0qWyCsg2EhHIKBIREEhEIKNIREAgEYGMIhEBgUQEMopEBAQSEcgoEhEQSEQgo0hEQCARgYwiEQGBRASyYnJy0n4qElEsBTKIRASyoq+vb3h42Dy1E1HVq6XmKZBNJCKQFVNTU2vWrHn77bf1U5OIL7300vr16/mfiACJCGTIt7/97UceeUSHok7EvXv3Ll++fNu2bbIpkD0kIpAhIyMjDQ0NK1euVKGoElHFoXp8+OGH8/m8bApkD4kIZMtnPvMZlYKPPvro0nlPPvnkU089JRsBmUQiAtny/e9/f9myZToOlW9961s9PT2yEZBJJCKQLVNTU8uXL9dx+NnPfnbt2rXcUwNoJCKQOd/+9rd1Iv7rf/2vuacGMEhEIHNGRkb0ZeKTTz7JPTWAQSICWaTvr+GeGsBGIgJZ9P3vf18lIvfUADYSEaiZ3/72t0ePHt0/b1917d69WyWiepQLKky90ldfffXDDz/85JNP5NsB1BqJCNTA22+//dxzzx08ePDixYuFGjlz5oysqorR0dHe3t5du3b99Kc/nZubk28NUDskIlBV09PTKguPHz8ugyJ78vl8c3PzhQsX5HsE1AiJCFTPhx9+uH379vHxcRkOGdY7T75TQC2QiECVqNlfxeHNmzdlJmTem2++efjwYfl+AVVHIgJVsmvXLq4Oo5w+fXpgYEC+ZUB1kYhANQwNDfHdYby2trZbt27JNw6oIhIRqIbnnnvu9u3bMgRgmZiY6OzslG8cUEUkIlBxk5OTL7/8skwAODo6OmZnZ+XbB1QLiQhU3NGjR2v4e4d1ZHh4eHBwUL59QLWQiEDFtbW1ybkfPtPT011dXfLtA6qFRAQqbv/+/XLuRwQSETVEIgIVRyImx801qCESEai4oomYy+W85bDK2PJHH30kq2INDAyovSxZskQ9qrJcnACJiBoiEYGKC5iIY2Nj3nIS8Vv2KmOVQrlraSQiaohEBCquvERUgZe7z4RfY2OjqVRls8rZs2dFS1fOCar4XajC1q1bY1pGyT34cpIcm0EiooZIRKDiyktEu9Ikk7eliq6mpia3geAu8m7NLYiyOZgoduOEx2aQiKghEhGouPIScWhoSJUPHTpkFhUevEY0Le3VN2/ebMqCG0je/f7yl7/csGGDeqoOwCz1HkwU72ZFOQqJiBoiEYGKKy8RNRVCqmbjxo3epTGVLreZd7/vvffeli1bTL1NHEwU72ZFOQqJiBoiEYGKKy8R7Q8nN23aJAqFiI9SY7jNvPt9//339TWid1+FB4/By7tZUY5CIqKGSESg4oomove+leSVuQRJU3jwE9fW1tbC/V+W0MwvS9hbM2Xvfl3ub194txaDREQNkYhAxRVNxEXFxKS6FrS/SqwO/mYNaohEBCqOv2uaEH/XFLVFIgIVx/++SGhkZIT/fYEaIhGBiuP/IybE/0dEbZGIQDU899xzt2/flgkAy8TEBLfVoLZIRKAahoeHjx8/LkMAlra2tlu3bsk3DqgiEhGokt27d4+Pj8scwLzTp0+fOHFCvmVAdZGIQJVMT09v37795s2bMg0y78033+zu7pbvF1B1JCJQPR999NGOHTu4UrQdOXKkt7dXvlNALZCIQFXduXNn165dfKeo5PP5nTt3vvPOO/I9AmqERARqYHh4+Lnnnjt48GAGf09xdHRUXRSqHwuOHTs2Nzcn3xqgdkhEoGauXbvW19fXNm9/1S1dulRWVZh+pa+99tr4+Lh8L4BFgEQEMkoloqwCso1EBDKKRAQEEhHIKBIREEhEIKNIREAgEYGMIhEBgUQEMopEBAQSEcgoEhEQSEQgKyYnJ+2nIhHFUiCDSEQgK/r6+oaHh81TOxFVvVpqngLZRCICWTE1NbV+/XoTiiYRVY2qV0s/bQpkEokIZMgf//EfP/bYYzoUdSKq8ooVK7Zt2yabAtlDIgIZcvTo0YaGhg0bNqggVImoHletWrVs2bJ8Pi+bAtlDIgLZsnLlyi9/+csbN25Uiaji8OGHH/7qV78qGwGZRCIC2fLd735XZeE/+Sf/ZOm8L37xiz09PbIRkEkkIpAtH3/8sc5CbfXq1dxTA2gkIpA5Tz75pI7DDRs2cE8NYJCIQOYcPXpUJ+JnPvMZ7qkBDBIRyKKVK1eqROSeGsBGIgJZpO+v4Z4awEYiAsHMzMycOnWqq6urc9HbtWuXSsQXXnhBLlhkuuYNDg7evXtXvt1AaCQiEMDVq1f37t374osvXrhwoVAnzpw5I6sWpenp6ZGRkQMHDqho5LZYVBSJCCzI7OxsR0dHd3f3jRs35FyOoH7zm9+0tbWdPHlSngMgEBIRKN/k5OT27dvHxsbk5I2KOX36NF9/okJIRKBMKg6bm5uvXbsm52xU2FtvvdXb2yvPB7BgJCJQjtnZWXV1SBzWypEjR9599115VoCFIRGBcnR2dl6+fFnO06iinTt3zs3NyRMDLACJCJTsypUrhw8fljM0qmtkZOT48ePy3AALQCICJdu7dy93li4Ge/bskecGWAASESjNzMxMZ2ennJtRC729vRMTE/IMAeUiEYHSnDp16vz583JuRi2Mjo7++Mc/lmcIKBeJCJSmo6NDTsyonQMHDsgzBJSLRARKQyIuKu3t7fIMAeUiEYHSqIsSOSujdtra2uQZAspFIgKlSZiIY2NjuVwuyR94U81inpbBuwVvZVELX6u8LSRHIiIgEhEoTcJE1EmQJA+SJKKdrEVT1ruFzZs3y6oExKYSHkbyREy4wRgkIgIiEYHSJExEnUB2DkXlhJuIZ8+ezc0zIdHY2KhrFFWOaanrTVlrbW01axXuX78qmzZtEjXxm/Iehstey5S9u/BuMBfxurxIRAREIgKlSZKIOV8kuJUDAwOqsGTJEvWoynqRCoampiaxirtuwdfSu0G7gWYHoQpLVdi6datY6t2U9zBc3mZ2pdmdt6X7umKQiAiIRARKkyQRoy59TIOosnhqh4TZoKn0thRlb6XboL+//9n7Nm7caOpFS+9huLz7GhoaUuVDhw6ZRYWIDdqrF/2wl0REQCQiUJokieiNBG+lKIun3nUNb0tR9la6DaKWxhxbjJgtqERUNSZ0vRv0VkYhEREQiQiUZuGJ2NTUZH8JF5M6pmw+5ywU+8hRlL2V7qempib+2LyH4fIejPvBrF0oRLyuokhEBEQiAqUpOxHNrSX6thHTQNfHf1fnvS3F27LgbND9RjDmzpr4Y/MehsvbLHllrpRE5Df0ERCJCJSGv1mzqJCICIhEBErDP75YVPi7pgiIRARKMzg4ODQ0JCdm1MLFixd/8pOfyDMElItEBEozOzub5KtEVMGhQ4euX78uzxBQLhIRKFlHR8fHH38sp2dU1+3bt3fv3i3PDbAAJCJQslu3bu3fv1/O0Kiu/v7+fD4vzw2wACQiUI6BgYHTp0/LSRrVMj4+3traKs8KsDAkIlCmw4cPv/nmm3KqRuXdvHmzubl5enpanhJgYUhEoHy98+SEjUpSV4cqDtWjPBnAgpGIwIJcuHBh586d+XxeztyogP7+/paWljt37sjTAIRAIgILNTc3d+zYsd27d6vrxdHRUTmLY8EuXrz40ksvqXeYW2lQUSQiEMzHH3/8ox/9qL29va0eLF26VFYtPurNPHDgwBtvvMHvHaIKSEQgo1Qiyiog20hEIKNIREAgEYGMIhEBgUQEMopEBAQSEcgoEhEQSEQgo0hEQCARgYwiEQGBRASyYnJy0n4qElEsBTKIRASyoq+vb3h42Dy1E1HVq6XmKZBNJCKQFVNTU+vXrzehaBLxV7/6lapXSz9tCmQSiQhkyD//5/981apVOhR1Iqo4XL58+bZt22RTIHtIRCBD+vv7Gxoa9JWiSkQVhytWrFi2bBl/QRu4RyICWfPYY49t3Lhxw4YNKhFXrlypEjGXy8lGQCaRiEC2bNu2TWXhP/yH/3DpvCeffLKnp0c2AjKJRASy5dq1aw0NDToOlTVr1nBPDaCRiEDmPPXUUzoOn3jiCe6pAQwSEcic/v5+nYif//znuacGMEhEIIsee+wxlYjcUwPYSEQgi/T9NdxTA9hIRGTR3bt3BwcHOzs7O+YdyJ6WlhaViK2trXJBBqgzrk79qVOnZmZmZM9AtpGIyJapqSk1Iba3tw8NDRWy7cyZM7IqS86fP9/V1fXCCy9cvXpV9hJkFYmIDDlx4sS+ffsmJibk7IisunHjRnd3t/ohaXZ2VnYXZA+JiKxQE9/JkyfljAgUCmNjY9u3b+f/YYFERCb09PScO3dOToTAfdeuXdu5cyehmHEkItLvwoULvb29cgoEHqRCUV0p8vFplpGISLm5ubnm5mY5+QE+ly9f7urqkn0ImUEiIuV+9rOfjYyMyJkPiNDd3X3lyhXZjZANJCJSbvfu3XLOA6LduHFj3759shshG0hEpNmHH37IN4goVVdXF7+8n00kItLs1VdfHR0dlRMeEOudd945ffq07EzIABIRadbW1iZnO6CY6elp7q/JJhIRabZ//3452wEJdHZ2ys6EDCARkWYkIspDImYTiYg0S5KIY2NjuVxOPcoFDtUs5mkZvFvwVhZV3lpR4l9pwn01Njbm7mttbTX1CVcXylurbCRiNpGISLMkiain2iQTbpJgsJO1aMp6t7B582ZZlYDYVEmH4RLHkOSFu6KaFX2B3oOP2lpC3m3GIBGziUREmiVJRD1B29O0PflGlfXTs2fP5uaZSda+MFLlmJa63pQ1dS1l1ircv35VNm3aJGriN+U9DJdey34sOMdgLzJPvS9HEGtpYuPeTXkP3tvS+254K73bjEEiZhOJiDQrmog5X+C5lQMDA6qwZMkS9ajKepGaWJuamsQq7roFX0vvBu0Gmh2E+oPHrVu3iqXeTXkPw6UX2Y92fSFi4+7L8TIhZF6FZq/i3ZT3SOyWZoPuu1F4cHXTwLvNGCRiNpGISLOiiei9dIiaPcVM6l1kb9BUeluKsrfSbdDf3//sfRs3bjT1oqX3MFx6kf1o1yd5WnTjrqjVzWW69+C9a3nfjaGhIdXg0KFDpn0hYpsxSMRsIhGRZkUT0TvPeitFWTz1rmt4W4qyt9JtELU05thi6Gb2o12f5GnMjqIWFV29aKUpeys1lYiqxsSkd5sxSMRsIhGRZgtMxKamJvs7pyTBYH9CWPQjO+80bVe6n5qamvhj8x6GS69lP9r1SZ56X4IWtajo6t6D935q6n03vB+lercZg0TMJhIRaVZeIppbM/StHKaBro//rs57W4e3ZcHZoPulndmae2dN/LF5D8Olm+mPGXUz9xhMs/gX7nIXuRt32xQiDj4Xe2eN/W54V/dWxiARs4lERJrxV9xQHv6KWzaRiEiz9vZ2OdUBxdy5c4dEzCYSEWnW19d38eJFOeEBsfL5/ODgoOxMyAASEWl27dq1l19+WU54QKzOzs7Z2VnZmZABJCJSbteuXbdv35ZzHhDhN7/5DbfVZBaJiJQbGRk5fvy4nPaACO3t7bdu3ZLdCNlAIiL99uzZMz4+Lmc+wHHmzJkTJ07IDoTMIBGRftPT083NzTdv3pTzH2D57//9v/f09MjegywhEZEJ6hpRhSJXiojy6quvHjlyRPYbZAyJiKy4c+dOS0tLf3+/nAuRbfl8/i/+4i/effdd2WOQPSQiskVNf7t373755Zf5PcWMGx0dVReFe/bsOX78+NzcnOwoyCQSEVl0/fr1N954o6Oj48CBA+1ZtXTpUlmVDQfmHT16dGJiQvYMZBuJCGSUSkRZBWQbiQhkFIkICCQikFEkIiCQiEBGkYiAQCICGUUiAgKJCGQUiQgIJCKQUSQiIJCIQFZMTk7aT0UiiqVABpGIQFb09fUNDw+bp3Yiqnq11DwFsolEBLJiampq3bp1JhRNIr755pvr169XSz9tCmQSiQhkyD/7Z//s0Ucf1aGoE/G//bf/tnz58m3btsmmQPaQiECG/PVf/3VDQ4O+UlSJqOLwkUceWbZsWT6fl02B7CERgWxZs2bNY489pkJRJaKKw9WrV3/ta1+TjYBMIhGBbGlqalJZ2NjYuHTe17/+df5xPKCRiEC23Lx5s6GhQcehKjz++OPcUwNoJCKQOf/4H/9jnYhf+cpXuKcGMEhEIHP0/TUqEX/v936Pe2oAg0QEsmjNmjUqEbmnBrCRiEAW6ftruKcGsJGIwKdu377d0tLSngHqZapE3LNnj1yQRq2trYVCQZ5swEEiAv8/FYd//ud/PjExUciGM2fOyKqU+vWvf71jx44CoYhiSETgd7IWh1lDKCIJEhEgDjOBUERRJCLSw/yHv5L+1R9xmB2EIuKRiKhX3/jGN0Rh3bp135inCrpGRaOuicpI4jBrYkJR9ZOXXnrJ7i1F+w9ShkREvXITMabwJ3/yJ7pgIw6zKSoU1Q9Sx48fv+frP6aAdCMRUa/c2cpcI5qav/u7v4uay4jDLPOGotuj3ALSjUREvdI/0SvmM9KoaUvVf+5zn7NriEO4oejmn1tAupGIqGMvzTOz1Xe+8x1dMJ+RmoJZdC9ZHI6NjeVyOfUoF1hUg5inyXlX9FbG867irSyJfiuKvhuV09jYqPY+NDQkF1i6urpUM/M04TGLUHTzzy0g3UhE1D0zW7n3Qbg1SeKwcD9I4uNELHUbm+k4fl52V1Q2b94sq4oJtR3BbNa7/eQSvhuuhPu1myU/ZjsU3fz7m7/5G91/VEHXIN1IRNQrk3bmU9OiEsZh4X6QmDjxzrBuIqorlZx1XaIvbhRz+eK20ZWmrEVd8ei/RmbXlLcds5b3eASz2Zh3I+YITY37brjH49YUnNdlnkbVF3yHGsP9+BSZRSKiHPq/69WjS5cuyRnR4c65ojA0NKQKS5YsyVmf5qmJ/ujRo25juyDaeLcjVlE2bdqkCwMDA2fPnlWFrVu32osSbqfo8Xjpjds17nbcI3Rr3LVMwbwcUeN9Xe7q3qeF+XyN/6zVGB0dlR2lTsiRiYUhEVGOOh2KCa8R3asZ7ywcNSObgtmOuyhmO26l26C/v//ZeRs3bjSVbjNR6e7dLUTJPXhlGVUw3Br33XCz1q0pOJuK2mnRFaPU7zVinQ7DxYxERDnqdygmCUV3znULomw/dQuGd5HbTFS6DRa4nZhCjKeffloX3LXc1ZPUaKreznW3RqwYtVN3+0m+Q63fOLxXz8Nw0SIRUY66HopFQ9Gdc3Xh6NGj9tdyUTOyKZhPDt1PBe113alcVLqfQOqa+ONxK929uwWX28Z9N6KO0Ftj3g3x2a+3puAcm7t3u95WNBHrOg7v1fkwXJxIRJSj3odifCi6GaDv+NA3oZhmujLm+y33PhG3jWlmtuN+eebepZLkeNztqHDS21EF3casbm9HcNdy9x51hN4a824kqSk4x+bu3X2lmlhRqPc4vFf/w3ARIhFRjhQMxfhQRLqlIA7vpWIYLjYkIsqRjqFIKGZTOuLwXlqG4aJCIqIcqRmKhGLWpCYO76VoGC4eJCLKkaahSChmR5ri8F66huEiQSKiHCkbioRiFqQsDu+lbhguBiQiEhH/MVUMxRT8P1VCMd3SEYepH4Y1RyIikb6+vuHhYfPUHoqqXi01T+sXoZhW6YjDe9kYhrVFIiKRqampdevW/Y//8T/0UzMU1ThU9Wrpp03rmQrFlpaWdqSL/p1IebLrkB6GJhTTOgxriEREUtu2bXvkkUd0KOqhqMbhypUrv/Wtb8mmACrj2WefXb58uQ5FMwxVjaqXTVE6EhFJ5fP5ZcuWrVixQoWiGopqHDY2NjY0NPzqV7+STQFUhhqGatA99thjagDqYajKqkbVy6YoHYmIEnz1q199+OGHVSiqobh27Vr1k+n69etlIwCV9MQTT6gBuHr1avOoamQjlIVERAl6enq++MUvLp23cuVK9bhv3z7ZCEAlHT58eNWqVXoYKqqsamQjlIVERAmmpqb0z6Saul7ky3ygytSg0z+PaqrMMAyFRERptm3btmHDBj0U//iP/1guBlB5zz77bENDgxqD6pF7agIiEVGafD7/mc98Rl8gck8NUBNqGJrvEbmnJiASESX76le/qoYi99QANaTvr+GemrBIRJSsp6dnKffUADV1+PBhNQy5pyYsErGWZmZmTp482dHRceDAAflnNhaxPXv2qKGoHuWCRezAPPVWDw4O3r17V54JLGLqfP31X/913Q2TSqvHYVhpeoyrSVVNrbIbJUMi1saVK1eef/75zs7O8+fPyz/CWA/OnDkjq+rE22+/3dbWpoYNt+ctfuocqTlu//79v/rVr+SJRD0Pw4pSk6qaWtUEe/XqVdmliiERq212dlYN8kOHDt24cUOeSVTLxMTE3r17T5w4IU8PFo3+/v4XXniBP7yO8qgJ9vDhw+pnXzXlyr4VjUSsqt/+9rdNTU1jY2Py7KEWTp482d3dLU8SFgH1I6P6eUWeMKBEarLdvn178v+TRSJWjzorO3bsuHbtmjxpqJ1z58719PTIU4WaUj/aq/MiTxVQFjXl7ty5M2EokohVoq7c1dUhcbgI9fb2XrhwQZ4w1MjIyIg6I/IkAQugJl51pZjk41MSsUo6OjouX74sTxQWh+bm5rm5OXnOUHX/9//+X/2vfYGw1PTb1dUlO5yDRKyGK1euHD58WJ4iLBrquuRnP/uZPG2oujfeeEOdC3l6gBB6enrUVCz73INIxGrYu3cvd5Yucrt375anDdX1//7f/9u1a5c8MUAgahIu+ndFSMSKm5mZ6ezslCcHi0xvb+9HH30kTx6q6IMPPuAbRFTUiy++GP/L+yRixZ0+fbpOfw0/U0ZHR1977TV58lBFP/zhD9VZkCcGCOfdd99VE7LseRYSseK4QKwX7e3t8uShivbv3y9PCRDUnTt34u+vIRErrqOjQ54WLEptbW3y5KGK9u3bJ08JENT09DSJWGMkYr0gEWuLREQVkIg1liQRc7mctxxWY2Njbt6WLVtq8rcCyntp5rDPnj0rlznK24VGItZW0USM6Qlln/fW1la1WVlbrrGxMXUkSf5Mozjgso/f8G7BW1mUdy1vZRnMSVTUmy8XVx6JWGNhE9EebEkGns27l4VssFDi6vEvLYpZK8mfhC1vFxqJWFtFEzGmJ2zevNl+WpKF9BlBbyrJBkUb7yoLH1zlvS0BN+XybryaSMQaKzsR9c+bmhkP9k9Y5mfb3PxPzaKlK+fbS9QGvZW6YJe9q3uP3F5Li2om2GuZctS6duNCdDMvErG2kieiKIvrPO9Jtztq7sFOYj/1rms3EOsKOjbs8Iha1z0Gdwh7B5e3pa43ZS3qbdm0aZOoKXtT9oq5iAMT3I17V/RWLmS/BolYY2Unol25detWt9KUVWdVPzW7DQQ9wDZs2PDMM8/Ej/aAlfrIBwYGVOWSJUvUoypHNfPy7sJur0e4dxdusxgkYm2VnYjiqbdfRTUQT70dJmZdm7eZW+ntqN4h7K5b8LX0btBuoNlBqD+udF9swk15y+6BeZmYN8fjXdFbuZD9GiRijZWdiENDQ6p86NAhs6gQ8aOuvXrMhxu62cGDBz/44ANTWXSD8ZXe1b1HXnD6a1Qzwbvf/v7+Z+/buHGj20CLauZFItZWqET09quE63o7TMy6tqhLOtMgqiyemrJ3cHlbirK30m3gfbEFX0tR6S17K13uIrvGTF9FK737jZn9DBKxxspORE0NbFXjHZyGt9Ll7UPedb0NilYK4sgLEY3dZkLR/UaVxVPv3m0kYm2FSkQtZuDErOstm6sQ9WiizuVd11spyuKpd13D21KUvZVug6ilbktR6S17K13uIrcmSaV3v0mQiDVWdiK6n2nYhULEJ0IxTLNLly6ZH6a8GzSV9hRgVrcrvat7j7zgHGdUMyF+v2KSEruIauZFItZW8kR0z6Z93r39yv5sTXQ2e92oDqO/qdKPplLwjuKoYxbb8a7rHVzelqLsrXQ/NY16sUU35S17K13uIrcmSaV3v0mQiDWWJBG93xgnr8wl6xN2M1P2btBU2lNAfGXOt7pdaerN9xNRzQTz2ZF9z733YEy9u4v4uUwjEWuraCJ6e4L71Ze3X5k+YFfGrBvVYbyVmr3IlKM2KDpq/Lq5iMEes8GYl2ZHo66JPzZ3U7pGi38JLvujYB3M3sbeyqL7LYrf0K+9ev8rbiV1uLrGX3GrrYr+FbeFdGM7mYp+0oDFjL/iVnv8pe+6wF/6rjn+0jcqjb/0XXv8N6i60NvbOz4+Lk8eqoj/BoVK479BLQr8x+DFj/8YXHOffPIJ/zEYlaMm4f3798tu9yASsRquXLly+PBheX6waIyMjBw7dkyeNlTdT3/6U3Uu5OkBQujp6VFTsexzDyIRq6Szs/Py5cvyFGFxaG5unpubk+cMVff3f//3O3bskKcHWLCxsbH4e2o0ErFKZmdnt2/fXpP/OIF4vb29Fy5ckCcMNZLP5/k2EWGpiVf9pKUmYdnbHCRi9UxOTqprEUJxUTl37twrr7wiTxVqqru7W50XeaqAsqgpd+fOnWr6lf3Mh0SsKnVWmpx/ZINaOXnypJp85UnCInD48OETJ07IEwaUSE2227dvTxiH90jE6lNX7gcOHFADnrtPa2hiYmLfvn1qzpWnB4vGwMDA3r171ZmSJw9IQE2w6ufdjo6OJB+WGiRibVy9evX555/v6uril/erbGhoqL29XY2TqakpeVawyKhzpM5UW1vb22+/LU8kEEFNqmpqfeGFF9Q0K7tUMSRiLc3MzJw8ebJj3oG6snTpUlm16Kk3ubOzc3Bw8O7du/JMYBFT50udNXXu6m6YVFo9DsOK0mP81KlT8b+GH4NERDnUUJRVAKqLYRgciYhyMBSBmmMYBkciohwMRaDmGIbBkYgoB0MRqDmGYXAkIsrBUARqjmEYHImIcjAUgZpjGAZHIqIcDEWg5hiGwZGISET8GSQxFJP/kSQAoZCIwZGISKSvr294eNg8tYeiqldLzVMA1UEiBkciIpGpqal169b97d/+rX5qhqKKw7Vr1/IX0YDqIxGDIxGR1LZt2x555BEdinooqjhcsWLFv/pX/0o2BVB5JGJwJCKSyufzy5Yt06GohqKKwzVr1jQ0NNifpgKoGhIxOBIRJcjlcuqiUIWiGoo6Djdu3CgbAagKEjE4EhEl6OnpefLJJ5fOU9eLKhG7urpkIwBVQSIGRyKiBFNTU+rSUCeioi4WuacGqBUSMTgSEaXZtm3bE088oRNx06ZNcjGAaiERgyMRUZp8Pv/5z39eXyByTw1QQyRicCQiSpbL5dRQ5J4aoLZIxOBIRJSsp6dHDUXuqQFqi0QMLp2JeP369TfeeOPAgQPt7e1tCK2lpUUNRfUoF2DBVI9V/fbHP/7xxMSE7NbAg0jE4NKWiPl8fvfu3S+99NLFixcLqJgzZ87IKoQzOjra29urfuY4fvz43Nyc7OXAPBIxuPQk4p07d9QM0t/fL2cXoG6pn/B27tz5zjvvyO4OkIgVkJJEHB8fb25uVo9yRgHq35F5stMj80jE4NKQiNPT0yoOb968KScSIC3eeuut7u5u2fWRbSRicGlIxD179nB1iNQ7ffr0iRMnZO9HhpGIwdV9Io6MjBw/flxOHkAatbW13bp1S44BZBWJGFzdJ+Lu3btv374tZw4gjSYmJjo7O+UYQFaRiMHVdyJev379Bz/4gZw2gPTq6OiYnZ2VIwGZRCIGV9+J+Prrr/N7h8iU4eHhwcFBORKQSSRicPWdiO3t7XLCANKOv58HjUQMrr4Tsa2tTc4WQNrxVSI0EjE4EhGoMx0dHXIkIJNIxOBIRKDOkIjQSMTgUp6IjY2NuXlbtmy5du2aXPwg1UxWRUjesgz2xiu3I/POnD17Vi5zlH0Yei8DAwNyQQjBX8LY2JjeoKLKcvECJNl7ciQiNBIxuJQnoj0TmbI92dnl5NPW5s2bTTlqa66ELb3H7JVwg15my01NTUXXjT+MGGWvmETwl+B95xfyJht2h3GVugsSERqJGFwWE9FcWyiq7DYwT9XFh25mz1Otra32Wt6t2ZsyZW9Ll3fdMd/li3eDuYjDFnKJ92I30KKaucSKOd+xebemX9rQ0FDMLuyNm7J3a3YDzdvMbmMyLPmbbK9ul0WHMbvetGmTrvHuIgaJCI1EDC7liajnmg0bNjzzzDMxM9fAwIAqLFmyJGd9xKfWVRcf7iriqbecvNLlbWZXbt261a005ZjDtnnXNVtW9HztfWfcZi7vit5j8x6JLtiPLu+K7rF5j8RtpugAPnTokFlUiNhL8hfiPjW7Ux1ShaVYGvVibSQiNBIxuJQnop5fDh48+MEHH5hK+0fymMnIfio+9bIXebd26dIlXVaPqhzT0mUvMmXvZO3doL16zId13r309/c/e9/GjRvdBlpUM5dY0Xts3iPRBfvR5V0x6tiSvwT1Juecq1VDV9pbMy/Ee9I1u704kkLELmKQiNBIxOAykYh2QZRtoj6qWaGUrSVpKcSsoidrM4N7N+itdHn34q0UZfE0fncxK3orxZHYj66YFePL4ql3+08//bQueJd6KwvRBxy/O7cmHokIjUQMLiuJqH5mNz/L2x/02Z+exUyagr0oamvnzp1TP/vb1wpRLQXv7On9lM+7wZjDtplmTU1N5rsrs0G7suBsM6qZK8lb6n29umA/uoK/BO+RlPQmuydds9u7n5p6dxGDRIRGIgaXlUS0y967Kky9+arJO+u5X0pFbe2999576KGHPl0zuqXgbZa8Muc7bJf5pM7+1QWzQX3biKg370xUM5dY6m2s31JNvPn2oyv4S/AeSUlvsnvSYzqMHY3uLmLwN2ugkYjB1Xci8ndNkUEkIjQSMbj6TsTXXnttdHRUThhAep0/f/706dNyJCCTSMTg6jsRx8fHe3t75ZwBpFdXV9fMzIwcCcgkEjG4+k5EpaWlRc4ZQErduHFj7969cgwgq0jE4Oo+EY8dOzYyMiJnDiCNuru7r1y5IscAsopEDK7uE3Fubm7nzp1y5gBS5/Lly9xTAxuJGFzdJ6LyzjvvHDlyRM4fQIpcu3Zt+/bts7Ozsvcjw0jE4NKQiMorr7zy5ptvylkESAUVhzt37pycnJT9HtlGIgaXkkRUenp6Tp06JecSoM6NjY2pq0PiEC4SMbj0JKJy4sSJ/fv3//rXv5aTClCHbty40d3d3dHRwYel8CIRg0tVIipTU1OdnZ0HDhwYHh6WEwxQJy5cuPDiiy++8MILV69elV0cuI9EDC5tiajdvXt3cHCwq6tLpWMHKkANRVmFEFSPVf321KlT/Bo+iiIRg0tnIqLSGIpAzTEMgyMRUQ6GIlBzDMPgSESUg6EI1BzDMDgSEeVgKAI1xzAMjkREORiKQM0xDIMjEVEOhiJQcwzD4EhElIOhCNQcwzA4EhGJiL8iJoYif2MMqD4SMTgSEYn09fUNDw+bp/ZQVPVqqXkKoDpIxOBIRCQyNTW1bt26EydO6KdmKKo4bGxsVEs/bQqgKkjE4EhEJLVt27ZHHnmkv7//3v2hqOJw+fLl3/nOd2RTAJVHIgZHIiKpfD6/bJ4KRTUUVRyuWrWqoaFB1cumACqPRAyOREQJvva1r61evVqFohqKKg7V42c/+1nZCEBVkIjBkYgoQU9Pz9e//vWl9z388MP/9b/+V9kIQFWQiMGRiCjB1NTU448/3tDQoBNx+fLl3FMD1AqJGByJiNJs27btK1/5ik5E7qkBaohEDI5ERGny+fzv/d7vqaG4YsUK7qkBaohEDI5ERMm+9rWvLeWeGqDWSMTgSESUrKenRw1F7qkBaotEDI5EDGB8fPy1115ry4yWlhY1FNWjXJBe7e3tP/nJT65fvy7PPVA7JGJwJGL55ubmjh07tnv37t7e3tHR0UKWnDlzRlal3cWLF1966aVdu3aNjIzIrgDUAokYHIlYpgsXLjQ3N+fzeTlxIu2OHz+ufgy6c+eO7BNAdZGIwZGI5eidJ2dKZMb4+PiOHTvUo+wZQBWRiMGRiCXr7u5+88035RyJjLl582Zzc/P09LTsH0C1kIjBkYilGRgYOH36tJwdkUnqGrGlpUV2EaBaSMTgSMQS3Lp1q62tTc6LyLDjx49zow1qhUQMjkQsQUdHx8cffywnRWTY7du3d+3aJTsKUBUkYnAkYlKzs7MHDhyQMyIy7wc/+AG/p4iaIBGDIxGTGhwcHBoaktMhMu/ixYuvv/667C5A5ZGIwZGISXV1dcm5EJjX3t4uuwtQeSRicCRiUp2dnXIiBOa1tbXJ7gJUHokYHImYVEdHh5wIgXkkImqCRAyOREyKREQUEhE1QSIGRyImlTARx8bGcrmcepQLqquxsTE37+zZs3KZQzWTVcnovQwMDMgFIdhHVfYRah999JGssnjfK1OZS3A2SUTUBIkYHImYVMJE1HN3qTO4PecWnX+TMAfQ1NRUdIOlHq1R9opJ2Btf4I7iV/e+VyXtnURETZCIwZGISSVMxM2bN5tHTV81Kps2bYqqsa9IVFk0y1mXKd5KV843oUetazcuRDdziRVz85dZYkXv1vTrHRoaitnFihUrtmzZogrqUZV1pXdrOd9+zVuqClu3bo1fXRfssrcyComImiARgyMRk0qSiN5p1A7C1tZWb413RbvSzOneSpd3g3Z7fQwDAwNq6ZIlS3LWh59uM5d3RZU96jJLl72vQlTaj67Vq1erAa+2+Wd/9meqrCu9W4vfr3cVu+yttH9GKfp7qCQiaoJEDI5ETCpJInov9ewJN6rGXtEs1ZdQhw4dslt6K132Lky5v7//2fs2btzoNtCimrnEivZTc5XsPRJdsB9d+q146KGHdNlU2g1iKn/5y19u2LAh92CeeVsmr4xCIqImSMTgSMSkkiSidxp159MkNYYKP7VUJJO30lb0SKLK4mnMgRWcpd7G3q3pgv3oilkxSeV7772nP3S1eVsmr4xCIqImSMTgSMSkyk5E9zPSmJqC9aGl99NLb6XL7L2pqclcrZr2dmXBmfGjmrnEit7k8L4numA/umJWTFL5/vvv62tE+13ytjQF+/V6W0YhEVETJGJwJGJSSf5mjXcaNXdzxNxZ473jI3mly3wMa/9GgVlX34ci6s3XgVHNXGKpt7H+xlEzu9At7UeXXW/KMVsTZW+ld3Xve2V/jh3zPmskImqCRAyOREwqSSJi8TDhp37sKHprzALxd01REyRicCRiUqdPn75w4YKcC5F5o6OjP/rRj2R3ASqPRAyORExqZmaGf38BV29v78cffyy7C1B5JGJwJGIJ9u3bd+PGDTkjIttaWlpkRwGqgkQMjkQswZUrV7q7u+WMiAwbGRn5+c9/LjsKUBUkYnAkYmm6urqK3nmI7Ni5c+fc3JzsJUBVkIjBkYilmZ2d3bFjx7Vr1+TUiOw5cuTIu+++K7sIUC0kYnAkYskmJyfVlQGhmHFvvfVWb2+v7BxAFZGIwZGI5VChqK4Ur1y5IqdJZMPp06d7enpktwCqi0QMjkQs0+zsbGdnp5oWufs0U37zm9+0tbWdPHlSdgig6kjE4EjEBbl69erevXu///3vv/vuu3fu3JHTJ1Jhenpandx8Pt/R0dHV1TU1NSX7AVALJGJwJGIAMzMzp06d6soSNRRlVdoNDg7evXtXnnugdkjE4EhElIOhCNQcwzA4EhHlYCgCNccwDI5ERDkYikDNMQyDIxFRDoYiUHMMw+BIRJSDoQjUHMMwOBIR5WAoAjXHMAyOREQ5GIpAzTEMgyMRkcjk5KT9VAxFsRRAFZCIwZGISKSvr294eNg8tYeiqldLzVMA1UEiBkciIpGpqal169a99tpr+qkZir/61a8ef/xx/rAZUH0kYnAkIpLatm3bI488cuTIkXv3h6KKw4cffvjf/tt/K5sCqDwSMTgSEUnl8/lly5Y1NDSoUFRDUcXhihUr1FNVL5sCqDwSMTgSESV46qmn1q1bp1JQDcWVK1eqxy984QuyEYCqIBGDIxFRgp6enj/8wz9cet/y5ctffvll2QhAVZCIwZGIKMHU1FRjY6MKQp2IK1as4J4aoFZIxOBIRJRm27Ztf/AHf6ATkXtqgBoiEYMjEVGafD7/xS9+UQ3FVatWcU8NUEMkYnAkIkr21FNPLeWeGqDWSMTgSESUrKenRw1F7qkBaotEDC61iTg5OdnX19fW1rZ///59CGr37t1qKKpHuQALo/qq6rGvvvrqhx9+KDs04CARg0thIg4PDz/33HMHDx68ePFiAZVx5swZWYVARkdHe3t7d+3a9dOf/nRubk72b+A+EjG4VCXinTt31Dxy/PhxOccAdSifzzc3N1+4cEF2dGAeiRhcehLxo48+2rFjx/j4uJxXgHqmrhdfeeUV2d0BErECUpKI09PTKg5v3rwppxOg/p07d+7w4cOy0yPzSMTgUpKILS0tXB0ixU6dOjUwMCD7PbKNRAwuDYk4PDzMd4dIvf3799+6dUv2fmQYiRhcGhJx165dt2/flvMHkC4ff/xxR0eH7P3IMBIxuLpPxGvXrr388sty8gDS6MCBA7Ozs3IMIKtIxODqPhH7+vr4vUNkxNDQ0ODgoBwDyCoSMbi6T8T29nY5bQDp1dnZKccAsopEDK7uE7GtrU3OGUB6kYgwSMTgSESgnnBzDQwSMbj0J2JjY2Nu3pYtW65duyYXV57atax6kDnCs2fPymWOoluLovcyMDAgF4RgXoIyNjZm6ltbW9Uiq2EiSV5jkja2ou3VYXtfwsIV3XVJSEQYJGJw6U9Eez4yZXvKK2P6K2n1ohOiadDU1LTwrUUpe8UkvG+y92kSSVZJ0sa2efNmWfUg70so6URHid91qbsgEWGQiMFlNBHtaxpzEWNqRKUu2GXv6lEXGfYWvOwGppxwa1HNXGLF3PwlqVjRuzX9YoeGhmJ2YW/c3ZEpe7dvKjdt2iRW2bp1a0ybhMdfcC5VvevmrOM0GeY90UVXt8ti1+4L8e4iBokIg0QMLv2JqGecDRs2PPPMM/HzV8BKPZUPDAyoyiVLluRiP670bs2EgaJnT+/W3GYu74rqbVGXpLrsfQmi0n502dO6yk57kXebdtkctjo7Kj/0In3M5ny5bbzHH/Nu2Lv2rqsj/9ChQ6aZvdQue1f3tnSfui8kZkUvEhEGiRhc+hNRzzIHDx784IMPTKU9g8dPat5K7+reKbWQYJrz7qK/v//Z+zZu3Og20KKaucSK9lNzSeQ9El2wH13eFd2n3rK7TfX26rQw3DbeTcW8G972oqyo05dzro8NXWmvYt66S5cu6Xr1qMqmga7xljXvLmKQiDBIxOCykoh2QZS9lfFreVfX9JQak2GuoruIKoun8TuKWdFbKY7EfnR5V3SfesvuNnPz14j2VbW3jVv2VrpPo8rG008/rQvepd7Kwv16d2n87tyaeCQiDBIxuAwlovrJ3fxEb3+kZj5qM5VNTU32l0ZupXf1qI/sik558buwKwvO1qKauWISwltpyvZE712rELGi+9RbjvogUZXNoqg2mrsp993wtrfL3krviY56E86dO6d2Ki4QCw+2d1+IdxcxSEQYJGJwGUpEu+y9BcNU6vsmklTmfKvblaY+5ntE87mZ/dsX3v2aerO1qGYusdTbWH97p5ld6Jb2o8v+6M+8dvf7S+/2zUsw2ZCz3mcdGzFtRHvdzH433MPwrht/bLmIm2hs77333kMPPWTXuLt2X4h3FzFIRBgkYnDpT8TyRM16QG3xN2tgkIjB1X0i8ndNkSkkIgwSMbi6T8TXX3+d/32BjOB/X8BGIgZX94nI/0dEdvD/EWEjEYOr+0RUdu3adfv2bTl5AOny8ccfc1sNbCRicGlIxOHh4ePHj8v5A0iX/fv337p1S/Z+ZBiJGFwaElFpaWkZHx+XUwiQFqdOnRoYGJD9HtlGIgaXkkScnp7esWPHzZs35UQC1L9z584dPnxYdnpkHokYXEoSUfnoo49UKHKliJTpnSe7O0AiVkB6ElG5c+fOrl27+E4R6ZDP55ubmy9cuCA7OjCPRAwuVYmoDQ8PP/fccwcPHuT3FFGPRkdH1UWh+tnuZz/72dzcnOzfwH0kYnApTERtcnKyr6+vra1tPypADUVZhRBUj3311Vc//PBD2aEBB4kYXGoTERXFUARqjmEYHImIcjAUgZpjGAZHIqIcDEWg5hiGwZGIKAdDEag5hmFwJCLKwVAEao5hGByJiHIwFIGaYxgGRyKiHAxFoOYYhsGRiEhkcnLSfiqGolgKoApIxOBIRCTS19c3PDxsntpDUdWrpeYpgOogEYMjEZHI1NTU+vXrTSiaoahqVL1a+mlTAFVBIgZHIiKp//Af/sPKlSt1KOqhqMqrVq3atGmTbAqg8kjE4EhEJJXP5xsaGtasWaOCUA1F9bhhwwZV85d/+ZeyKYDKIxGDIxFRgi996UvLli17/PHH1VDcuHHjE088sXr1atkIQFWQiMGRiChBT0/P2rVrVSiqofjUU0+pxz/90z+VjQBUBYkYHImIEkxNTa1atWrpfQ0NDf/n//wf2QhAVZCIwZGIKM2///f/fvny5ToR/9E/+kdyMYBqIRGDIxFRmnw+v3btWp2I3FMD1BCJGByJiJJ96UtfUkORe2qA2iIRgyMRUbKenp6l3FMD1BqJGByJWCV3794dHBzsmtdZ51544QU1FFtbW+WCeqNPx6lTp2ZmZuQJAxY9EjE4ErHipqam1LTb0dExMjJy586dQiqcOXNGVtWn6enpd9555/vf//7evXuvXr0qTx6wiJGIwZGIlXXy5Mm2trbf/OY3cibGInPjxo2enh514Tg7OyvPIrAokYjBkYgVpGbY06dPy6kXi9iVK1d27NjBP7dCXSARgyMRK6W3t/ett96SMy4WvWvXru3cuZNQxOJHIgZHIlbEO++8c+TIETnXok6oUFRXinx8ikWORAyORAxvbm5OXWTIWRZ15fLly11dXfLUAosJiRgciRjez3/+85GRETnFot50d3dfuXJFnl1g0SARgyMRw2tpaZGTK+rQjRs39u3bJ88usGiQiMGRiIF9/PHHvb29cnJFferq6uKX97FokYjBkYiB/ehHPxodHZUzK+rThQsXTp8+Lc8xsDiQiMGRiIG1t7fLaRX1rLOzU55jYHEgEYMjEQNra2uTcyrqGYmIRYtEDI5EDIxETJmOjg55joHFgUQMjkQMrGgiNjY25u4bGxuTixcBc4Rnz56VyxyqmaxKwOxiy5Yt165dk4srL/lhk4hYtEjE4EjEwIomoj0XJ5+XY9ixGiRizVE1NTUV3WB5L8H7JizwhZS0evLDJhGxaJGIwZGIgZWXiPqCTF82mdlcFXSNt3LTpk26xr7oVOUk69qVrpzvCKPWtRsXopsJ9lqm7H0hpkZU6oJd9q4edTz2FuKRiFi0SMTgSMTAiiaiPXEPDQ2ZSnVBpstmsrZnbVM2Qajm99bW1qhmduXWrVtjKl3eDdrt9TEMDAyopUuWLFGPqhzVzEu/CRs2bHjmmWdMUHn3G7BSH5v3sGOQiFi0SMTgSMTAiiaiPUd7Kzdv3uxWeqd4zY5Ys1RlrSofOnTIbumtdHn329/f/+x9GzdudBtoUc0EvdbBgwc/+OADU+l9Id6D8VZ6V496yfYW4pGIWLRIxOBIxMAWnojeSlN2W7o1hkoCtVQkk7fSVnS/UWXxNObAim7WWxm/lnd1zX3JMY0FEhGLFokYHIkYWKUT0f3U1P5w0nxo6f300lvpMvtqamoyX8iZ9nZlwTnyqGaCWevSpUvmmtj7QrwbjD/CQrH3oeAcdgwSEYsWiRgciRhYwETU33hp5hsv984a780jyStd5uNH+7cvzLr6DiBR7x6eaCbYi0zZe3jeDcZX5nyr25Wmnu8RUddIxOBIxMCKJiLKZsKvmvibNVi0SMTgSMTA+LumKcP/DcaiRSIGRyIG9vrrr1+8eFFOq6hPQ0NDg4OD8hwDiwOJGByJGNj169d/8IMfyJkV9amjo2N2dlaeY2BxIBGDIxHD27Vr1+3bt+XkinozMTHBl4hYzEjE4EjE8EZGRo4fPy7nV9Sbtra2W7duybMLLBokYnAkYkXs2bNnfHxcTrGoH6dPnx4YGJDnFVhMSMTgSMSKmJ6ebm5uvnnzppxoUQ/efPPN7u5ueVKBRYZEDI5ErBR1jahCkSvFunPkyJHe3l55OoHFh0QMjkSsoDt37rS0tPCdYr3I5/M7d+5855135IkEFiUSMTgSseJGRkZ27dr10ksv8XuKi9Po6Ki6KNy9e/exY8fm5ubk+QMWKxIxOBKxSq5fv/6Tn/ykvb29LRXUUJRV9Umdkddee218fFyeMGDRIxGDIxFRDoYiUHMMw+BIRJSDoQjUHMMwOBIR5WAoAjXHMAyOREQ5GIpAzTEMgyMRUQ6GIlBzDMPgSESUg6EI1BzDMDgSEeVgKAI1xzAMjkREIpOTk/ZTMRTFUgBVQCIGRyIikb6+vuHhYfPUHoqqXi01TwFUB4kYHImIRKamptavX29C0QxFVaPq1dJPmwKoChIxOBIRSW3dunXFihU6FPVQVOVVq1Z961vfkk0BVB6JGByJiKTy+fyyZcsee+wxFYRqKOqrw4aGhr/927+VTQFUHokYHImIEvz+7/++ikAVimooqjhcu3bt448/LhsBqAoSMTgSESXo6en57Gc/u3Te5z73OfW4c+dO2QhAVZCIwZGIKMHU1JS+QNSWLVvGPTVArZCIwZGIKM3WrVtNKH7zm9+UiwFUC4kYHImI0uTz+fXr16uhyD01QG2RiMGRiCjZ7//+76uhyD01QG2RiMGRiChZT0/PUu6pAWqNRAwuJYl49+7dwcHBrq6uzs7ODlTY888/r4aiepQLEFrnvFOnTs3MzMhOj8wjEYOr+0ScmppSU8aBAweGhoYKqJYzZ87IKlTM+fPn1U97L7zwwtWrV+UAQIaRiMHVdyKeOHFi//79v/71r+UUAqTOjRs3uru71YXj7OysHAnIJBIxuDpOxJ6enlOnTslpA0i1sbGx7du38++3cI9ErIB6TcRXXnnlzTfflLMFkAHXrl1rbm4mFEEiBleXifjOO+8cOXJEzhNAZqhQVFeKfHyacSRicPWXiHNzczt37pQzBJAxly9f7uzslMMDWUIiBld/iXjs2LGRkRE5PQDZ093dfeXKFTlCkBkkYnD1l4gtLS1yYgAy6caNG3v37pUjBJlBIgZXZ4k4Pj7e29srJwYgqzo7O/nl/cwiEYOrs0R87bXXRkdH5awAZNX58+dPnz4txwmygUQMrs4Ssb29XU4JQLZxf01mkYjB1VkitrW1yfkAyDYSMbNIxOBIRKC+dXR0yHGCbCARg0tbIjY2Nubmbdmy5dq1a3Lxg1QzWRUhecsymGNWxsbGTH1ra6taZDVMJMmhJmljK7V9wXpRZ8+elcscZWxf03sZGBiQC0Io+6hiiHPqfZei+kMUEjGzSMTg0paI9ixmyva0YpeTT3mbN2825aituRK29B6z92kSSVZJ0sZmv/yEzC6amppiXrtW6vEYZa+YhLvxhCe0ENvSe7rtd8nbIAaJmFkkYnCZSET7h277J3Qx3eTmf1TXzWKu1bxbszdlyt6WLu+67lN1SGZr5vBM5aZNm8QqW7dujWnjvlLv9gvOy/eu68r5XlTULuzGhehmLrFiznds3q3pUzM0NBSzC7HxQsQJtZuZsrelaBNV9lbGIBEzi0QMLm2JqGeiDRs2PPPMM2amc6eYgYEBVViyZEnO+sxNrat+VHdXEU+95eSVLnv2FP/lMWoLpmxCTr1YFV16kX515uW7bbyv1CRowVpFs3ftXdflPVp3F94T4TZzeVf0Hpv3SHTBfnS59TGbSlLpPvWWY/qDF4mYWSRicGlLRD2tHDx48IMPPjCV9hSjG9iNvU/F54T2Iu/WLl26pMvqUZVjWrrsRaJZ1CJTdjerdqpjz3DbeDfV39//7H0bN240Dew2MWXB2yxqF2I7Uc1cMW+XOYPeI9EF+9Hl1ntPaKmn3n7qLXsrY5CImUUiBpfORLQLomyLmaqE5FtL0lKIWSVqkfdlmpqBeXaNtVzWeDdV6mG4vM28laIsnsbsouAs9Tb2bk0X7EeXW+/WaO52oloWopuJY3PLUUjEzCIRg0ttIqqf1s1Vgv3Jm/2JnJhuYmYfe1HU1s6dO6euDMxVQiG6pRAzA0YtMmX3E1G9SJXNoqg2mruppqamUr/6cplF9taidiG2E9XMFfN2eStNWRfsR5dbH3VCSzr13uOxX6m3QQwSMbNIxOBSm4h22Xtvhak3l1Pe2cf9vipqa++9995DDz306ZrRLQX7EzbTzN2vrtHMMZtdmCk4Z71qnX8xbUR73UzfnKIr3cPwrusyL8r+vQLvLky9+6JEM5dY6m3sfd90S/vRZZ8X8U7myjr17pvpfZe8/SEGiZhZJGJwaUtEIGv4mzWZRSIGV2eJyN81BYSuri45TpANJGJwdZaIr7/++sWLF+WUAGTV8PDw4OCgHCfIBhIxuDpLxOvXr//gBz+QswKQVR0dHbOzs3KcIBtIxODqLBGV3bt33759W04MQPZMTEzwJWKWkYjB1V8i5vP548ePy7kByJ62trZbt27JEYLMIBGDq79EVPbs2TM+Pi6nByBL/vIv//LEiRNybCBLSMTg6jIRp6enm5ubb968KScJIBveeuut7u5uOTCQMSRicHWZiIq6RlShyJUiMujIPDkkkD0kYnD1mojKnTt3Wlpa+vv75YQBpFQ+n/+Lv/iLd999Vw4GZBKJGFwdJ6Km5ojdu3e//PLL/J4i0mp0dLS3t1f9/Hf8+PG5uTk5BpBVJGJwdZ+I2vXr1994440DBw60z2tDhamhKKtQAaozq1794x//eGJiQnZ6ZB6JGFxKEhFVxlAEao5hGByJiHIwFIGaYxgGRyKiHAxFoOYYhsGRiCgHQxGoOYZhcCQiysFQBGqOYRgciYhyMBSBmmMYBkciohwMRaDmGIbBkYhIZHJy0n4qhqJYCqAKSMTgSEQk0tfXNzw8bJ7aQ1HVq6XmKYDqIBGDIxGRyNTU1Lp1695++2391AxFFYeqXi39tCmAqiARgyMRkdT3vve95cuX61DUQ1HF4aOPPvov/sW/kE0BVB6JGByJiKTy+fyyZctWrlypQlENRRWHa9eubWho+MUvfiGbAqg8EjE4EhEl+MpXvqJDUQ3FdevWqQtE9SgbAagKEjE4EhEl6OnpeeKJJ5bOW716tXp8/vnnZSMAVUEiBkciogRTU1M6CLWHH36Ye2qAWiERgyMRUZrvfe97a9eu1Yn4R3/0R3IxgGohEYMjEVGafD7/mc98Rg3FZcuWcU8NUEMkYnAkIkr2la98Zen8nTVyAYAqIhGDIxFRsp6enqXcUwPUGokYXIYScWZm5uTJkx0dHQewMK2trWooqke5ACVSvbGzs3NwcPDu3buyvwLFkIjBZSIRr1y5oi5o1NRz/vz5AkI4c+aMrEK53n777ba2NpWO3LiLkpCIwaU8EWdnZ9VP4ocOHbpx44ach4DFZGJiYt++fSdOnJCdGIhAIgaX5kScnJxsamoaGxuTcw+wWJ08ebK7u1t2ZcCHRAwutYmo4nDHjh3Xrl2TUw6wuJ07d+6VV16RHRpwkIjBpTMRZ2dn1dUhcYg61dvbe+HCBdmtgQeRiMGlMxE7OjouX74spxmgfjQ3N8/NzcmeDVhIxOBSmIhXrlw5fPiwnGCAujIyMnLs2DHZuQELiRhcChNx79693FmKFNi9e7fs3ICFRAwubYk4MzPT2dkppxagDvX29o6Pj8suDtxHIgaXtkQ8ffo0v4aPdBgdHX3ttddkFwfuIxGDS1sicoGINGlvb5ddHLiPRAwubYnY0dEhJxWgbrW1tckuDtxHIgZHIgKLF4mIGCRicFlMxMbGxty8LVu2FP0tftVMVkVI3rIMY2Nj+pgV++/Stba2qpdjNfQo6cCKbtC8e2fPnpXLHCXt2qb3MjAwIBeEYB9V2UeoffTRR7LK4n2vTGXuwVPpRSIiBokYXBYT0Tsh2nOTXU4+Y27evNmUo7bmStjSe8zep66iDYT49mZpkr8ZG7+pGGWvmETMm1mq+NW971VJeycREYNEDI5E/P/L9k/u9kWSmLNy8z/v62Yx12rerdmbMmVvS5e9rh29hQcXeS8lc75j9rY07e2ngr3UlKO2JjYV1cwlVswlfgn6/RwaGorZxYoVK7Zs2aIK6lGVdaV3aznffs0pU4WtW7fGr64LdtlbGYVERAwSMbgsJqKe0TZs2PDMM8/ETF4DAwOqsGTJkpz18Z1aV/28764innrLyStdCRd5y/Yxb9q0SRfMVG5XajH7KkTswt2a991zm7m8K3rfdu+R6IL96Fq9erWaStQ2/+zP/kyVdaV3a/H79a5il72V9s9AKrlNAy8SETFIxOCymIh6bjp48OAHH3xgKu15SjewG3ufxlyrebd26dIlXVaPqhzT0qUXHTp0yG1mP/WWvZX9/f3P3rdx40bTwG7jVdLWxKaimrliXqN5271Hogv2oys376GHHtJlU2k3iKn85S9/qX6cyj2YZ96WySujkIiIQSIGl91EtAuibBP1Uc0KpWwtSUshZpWoRfEv01vpfSp4V/RWirJ4mnwv7lO3UhyJ/eiKWTFJ5Xvvvac/dLV5WyavjEIiIgaJGFymE1FdqJkLDvtDPPvDPTFnxUxh9qKorZ07d05dFJoLxEJ0S8E0a2pqEl83Rs2wpuz91DThBl1mqb1i1NbEpqKauZK87d4Xqwv2oytmxSSV77//vr5GtM+dt6Up2K/X2zIKiYgYJGJwmU5Eu+y9M8LUmy+0vFOY+9VX1NbU5YX+sM6IaimYZvpGD13p7lfXaPYxu7eHJNygy3zMa/9GgXdrpt5sKqqZSyz1No56seLRZdebcszWRNlb6V3d+17Zn5PHnHGNREQMEjG4tCUif8UNlWbCT10jFr01ZoH4K26IQSIGl7ZE5C99IzX4S9+IRyIGl7ZE5L9BITX4b1CIRyIGl7ZEvMd/DEZa8B+DEY9EDC6FiXjlypXDhw/L2QWoKyMjI8eOHZOdG7CQiMGlMBHvzd9xevnyZTnHAPWjubl5bm5O9mzAQiIGl85EnJ2dbWpqKvp/LYDFqbe398KFC7JbAw8iEYNLZyIqk5OTO3bsIBRRd86dO9fT0yM7NOAgEYNLbSIqv/3tb5P8xyJg8Th58mR3d7fsyoAPiRhcmhPx3vzHpwcOHDh06BB3n2KRm5iY2Lt374kTJ2QnBiKQiMGlPBG1K1euPP/8852dnfzyPhaht99+u62traOjY2pqSvZdIBqJGFwmElGbmZk5efKkmncOYMHUUJRVKF3HvMHBwbt378r+ChRDIgaXoUREQAxFoOYYhsGRiCgHQxGoOYZhcCQiysFQBGqOYRgciYhyMBSBmmMYBkciohwMRaDmGIbBkYgoB0MRqDmGYXAkIsrBUARqjmEYHImIRCYnJ+2nYiiKpQCqgEQMjkREIn19fcPDw+apPRRVvVpqngKoDhIxOBIRiUxNTa1bt+6tt97ST81QVHG4du1a/vwYUH0kYnAkIpLatm3bI488okNRD0UVhytXrvyX//JfyqYAKo9EDI5ERFL5fH7ZsmU6FNVQVHH4+OOPNzQ0vP3227IpgMojEYMjEVGCXC63fJ4aio2NjSogN2zYIBsBqAoSMTgSESXo6en58pe/vHTeww8/vHT+P2DIRgCqgkQMjkRECaamptasWaMTUXnkkUe4pwaoFRIxOBIRpdm2bdvnP/95nYjf+ta35GIA1UIiBkciojT5fP5zn/ucvkDknhqghkjE4EhElCyXy6mhyD01QG2RiMGRiChZT0/PUu6pAWqNRAyORKyGQqGwZ8+etrRoaWlRQ1E9ygV1a/fu3bdv35anDVjcSMTgSMSKU3G4ffv2iYmJQoqcOXNGVtUzdXb+/M//nFBEfSERgyMRK6uQxjhMJUIRdYdEDI5ErKACcVhXCEXUFxIxOBIxEfP//5L/I8ACcViHCEXUERIxOBLR4xvf+IYorFu37hvzVEHXqGjUNd6MLBCHdSs+FNUZf+mll+zzHt8TgMohEYMjET3cRIwp/Mmf/IkuGAXisM7FhKL6kej48eP3fD3BFIDqIBGDIxE93DnOXCOamr/7u7/zzoAF4jAVokLR7RtuAagOEjE4EtFDXwco5jPSqMlO1X/uc58zTwvEYYp4Q9HNP7cAVAeJGByJ6PfSPDPHfec739EF8xmpKZhFhQRx2NjYmMvlurq65IIHqTayqhi9Ze3s2bNycYQydmT76KOPZFU0c4SqIJeVruwjNyuOjY3p41GFB5t8yg1FN//cAlAdJGJwJGIcM8e5d0+ImkKCOCzcn46PHj0aMwsXypruy1ilUO5ahp0uouAyjUtaK8rmzZtllSVmy+5hxL8JIhTd/Pubv/kb3RNUQdcA1UEiBkciepi0M5+axiski8OCbxb2XqmIOdrbRnCn9Zh9tba2mkXqgtXesrsvt4252nvooYdETcz1X845Hnct/VTUiIKijsfeUS76CE0z/bp0M11jMtXespd7pQgsBiRicCRiIkuLef/99+U86uPO71u3btWFTZs2qcehoSG1aMmSJepRlb1tvEwGmLT7gz/4g3/zb/7N1NSUKugas/rAwID+ZFWtpS5YC9HH422TpODSR7hhw4Ynn3xS17hrJSm4T5McoX45qpnIbJWU5n2OcenSJXnKfWS/ASqJLhcciZhIfM9TM+aOHTt+/etfy3nU4c7U/f39z87buHGj20zzthG8UZTP5//BP/gH5qnbJsnxuG1++ctfqmDLWZlt8tjdhaEXHTx48IMPPtA17lpJCu5TUzaXfUm27H3qpa4R//N//s+qIE/8g+I7CRAcXS44EjGRoj2vkCwU3XnZLYiy/TRm+vYu+l//63+tX7/ePHXbuFtOUnjvvfe2bNmiy2JRDHc77lruIrfgPo3ZjlsjFsV/H1lIHIf3EnQSICy6XHAkYiJJel4hQSjq6dj+7M77aZ6Ytb1tBDcDknxq6uaEuy+3zfvvv6+vEc0GTcF86Opyt+OuFbV397XHJ2KSLWvxiZg8Du8l6yRAQHS54EjERBL2vEKxUNSf5tm/feHe8WEqzWeS3jaC/TlhVNp576zxtrH3laTg3o/jSrKWu3e3xv2q1SwykmxZc9c1SorDe4k7CRAKXS44EjGR5D2vUCwUU0BdYuq8iblmXaCYoKqOUuPwXimdBAiCLhcciZhIST2vkIFQTLcy4vBeiZ0EWDi6XHAkYiKl9rwCoVi3yovDe6V3EmCB6HLBkYiJlNHzCoRiHSo7Du+V1UmAhaDLBUciJlJezysQinVlIXF4r9xOApSNLhcciegn/vur6HnJ/zdsgVCsE2XEYahOApSHRAyORPTr6+sbHh42T+2ep+rVUvO0qAKhuOiVEYf3gnYSoAwkYnAkot/U1NTatWvNfGd63l/91V+tX79eLf20aQJqqm1tbT2AxWrPnj2lxuG96E6ialR9qZ0EKBWJGByJGOkP//APH330UT3f6Z7385//fPny5du2bZNNkVXf/e53VZewO4kqqxpVL5sCoZGIwZGIkY4dO9bQ0LBu3To1x6mep+Jw2bJlDz/8cD6fl02RVaozqE6if3JSnUQ9qrKqoZOgCkjE4EjEOKtWrVqzZs369etVz1Nx+MUvfvGpp56SjZBtqleo7qG6inlUNbIRUAEkYnAkYpz/+B//o+pzOhGVp59+uqenRzZCtnV3d69evVr3EEWVVY1sBFQAiRgciRhncnKyoaFBz3SPP/54Y2Mjt0tAUF3i0UcfNYmoynQSVAeJGByJWEQul9Mz3TPPPMM9NfD67ne/u2zZsqXzH61zTw2qhkQMjkQs4tixYzoRv/zlL3O7BLxUx1izZo3qJOqRToKqIRGDIxGL07dLcE8NYuj7a7inBtVEIgZHIhan76/hnhrE6O7uVp2Ee2pQTSRicOUn4vXr1994440DBw60z2tLr+eee071vJaWFrkgLfQZVKfy6NGjExMT8kxXUmp6keoe9d5JatgNUB4SMbhyEnFkZGT37t0vvfTSxYsXxd+HTKszZ87IqjQaHR09cuTInj17jh8/Pjc3J098UOnrRanpJNXsBlgIEjG40hLxzp076qdgNU7kGEK65PP5//Jf/su7774re0AI9KJ6UdFugIUjEYMrIRHHx8ebm5vVoxw3SKlXX331hz/8oewHC0MvqjuV6AYIgkQMLmkiTk9P79ix4+bNm3K4INV+8YtfBLyliF5Up8J2A4RCIgaXNBFbWlr4uT6b/uqv/urEiROyQ5SFXlS/AnYDhEIiBpcoEYeHh/nWJ8sOHDhw69Yt2S1KRC+qd0G6AQIiEYNLlIjPPffc7du35fhAZvz2t7/t7OyU3aJE9KJ6F6QbICASMbjiiTg5Ofnyyy/LwYGM6erqmp2dlZ0jMXpROiywGyAsEjG44ol49OjR1PzGGMp2/vz5wcFB2TkSoxelwwK7AcIiEYMrnohtbW1yWCB7ZmZm1PWB7ByJ0YvSYYHdAGGRiMEVT8T9+/fLYYHsuXPnzkKmQnpROiywGyAsEjG44om4b98+OSyQPdPT0wuZCulF6bDAboCwSMTgSEQktZCpkF6UGgvpBgiLRAwuQCKOjY3l7lNlubgUaguy6r7Gxka9i7Nnz8pljpjtxCtvRe874K00r6JoyyByZb2cKAuZCov2opjzW/araG1tVZuVtWWJOTxX2Qdc3or2WuVtoSQL6QYIi0QMLkAiegekPbMnn+VjxrNZ1NTUVHSDMduJV96K3ndggZXlvYHC5s2bZZWl1F0sZCpM3ovc8xv/KuKVd0JdMYfnKnun5a3o7T9epZ5xr4V0A4RFIgYXOBHN5GVfDJmf03PzP2LrSvcKSS/SlS57kSlHXV2J7UQ1c5W3or2WeQeKVpqyt2XyN9C7zYJzhWRey6ZNm3SNdxcxFjIVltSLkryKXMSVd+7BM2g/9a5rNxDr2rzNvBu0G2hRzVzlrWivZcredb1nPOfrVDEW0g0QFokYXIBEHBoaUmPp0KFDdmXON0rVIFQ/YotKM0GrRTHzsneDW7duNZV6OwMDA2rpkiVL1KMqRzVzeVf07tTlXeR9W+wpSTWIaendtfcN9LZ0n5oXrmY9FTNiqVjRayFTYdFeFHMwUYvMaY1qIJ56u0HMujZvM3eD3l7kNnN5V/Tu1OVt5n3h3pbeThVjId0AYZGIwQVIRE1N6LmIn0a9ozS+0uVt1t/f/+x9GzdudBtoUc1cYkXvTl0xi8Tbkrxl0TfQXE1eunRJ16tHVTYNdI23rHl3EWMhU2HRXhRzqPbT5D89uE+93SBmXZu3mXeDdgMtqpkr5uBLPTbvG+U94/bqST6gXkg3QFgkYnDBElF7+umndcE7gL1D11vp8jbzVoqyeBqzi4KzNOGKMYu0+LfFFt/SW1m4X+8ujT9+tybeQqbCor0o5lDd49Q/PSRJtahFpmyukMr4iMJbKcriqftabOWtGNMs5o0yvJUxFtINEBaJGFyARPQOSPvTofgPbUr91NRuFrWuGORRzVwBp6SilYa3ZdE30Hbu3Dn1usQFYuHB9u6npt5dxFjIVJi8F7nnyH4V3k8g7c/9xMeS3ndA7EJ/i5bwa+x66X7eN8p7xmO27LWQboCwSMTgAiSi/gpEM1+BeL/Yt8eeKZuW8VOS+cDHvv09al1d7x5M/C4Kzorel+byNvNW5nx797Ys+gba3nvvvYceesiucb+XMhu0o9HdRZQF/mp20V7kPb8xr8I+Zr2WqIxZN6obeCs17+FFbbDK3c/7niSvzMUekrDAboCwSMTgiicif38LhQX/+a6K9qKS5nTBDon4CzgUFtwNEBaJGFzxRHz11VdHR0flyEDG/M//+T9Pnz4tO0di9KJ0WGA3QFgkYnDFE/HDDz/s7e2VIwMZ8+KLL87MzMjOkRi9KB0W2A0QFokYXPFE/OSTT3bt2iVHBrLkxo0b+/fvlz2jFPSiFFh4N0BYJGJwxRNR+elPfzoyMiLHBzKjp6fnypUrsluUiF5U74J0AwREIgaXKBH//u//fseOHXJ8IBvGxsaC3ExBL6proboBAiIRg0uUiMr58+f5HiiDrl27pmJsdnZWdoiy0IvqVNhugFBIxOCSJqLS09Nz7tw5OVaQXmoe3Llz5+TkpOwKC0AvqjuV6AYIgkQMroREVLq7u0+ePClHDNLoypUr6rKgEvMgvaiOVK4bYOFIxOBKS0TlxIkTe/funZiYkEMHaXHjxg0VWp2dnZX7lIxetPhVoRtggUjE4EpORGVqaqqjo6O9vd38PyOkw4ULF1588UWVVVevXpVnPTR60aJVzW6AhSARgysnEbW7d+8ODg52zutIO9XzZFW66PN46tSpKv/+dZp6UQo6Sa26AcpDIgZXfiJmCj0PRdFJUGV0ueBIxEToef9fe3f/G8dx33G8/4F+FUVJtC2JMsUGaeqmhmrWQQs7hdGmTSoYgRAUKIyiaGShQJFQogyJNBOJT0fnF8WWeKIcWaaTRuWDRKklFFhyk5jk6aHoDwpc1qQam3owqUo6HWUCFEA0HXOgzXp2bm/v9L3d273364fD3uzsw93OzEdztzyhIBoJQkaTE0ciBkLLQ0E0EoSMJieORAyEloeCaCQIGU1OHIkYCC0PBdFIEDKanDgSMRBaHgqikSBkNDlxJGIgtDwURCNByGhy4khEO+Nnq4yWx49awYvhCSGjyYkjEe0GBgYmJiacp+6Wp8rVWucpoDE8IWQ0OXEkol02m62vr3dC0Wl5g4ODDQ0Nau1vqwIrGJ4QMpqcOBIxr+eee66urk6Hom556XR63bp1O3fuNKsCDE8IHU1OHImY1+nTp1WD0zNFtaDisKampra2NpPJmFUBhieEjiYnjkT0s2HDBjUp3Lx5s2p5Kg6feeaZZ5991qwErGB4QshocuJIRD//9E//pNpcXV3d6hV//dd/rWaKZiVgBcMTQkaTE0ci+vnf//1fNTXUcfjFL35RTRa5pwb5MDwhZDQ5cSRiAX/yJ3+iE/Gb3/wm99TAB8MTQkaTE0ciFqDvr1G2bt3KPTXwwfCEkNHkxJGIhW3YsEG1PO6pgT+GJ4SMJieORCxM31/DPTXwx/CEkNHkxMkk4vz8/I9//OOurq7OJGptbVUtr62tzVwRf+qSHT9+/Nq1a+YVRfEYnhAympy4R03EiYmJffv2HTx48MqVK7nkOnPmjFmUFFNTU/39/SrvBwcHl5eXzQuMwBieEDKanLjSE/H+/fsqC9Uwag6xiKdMJvPKK69cvnzZvNIIhuEJIaPJiSsxET/++OPdu3fPzs6awypi7s033zx69Kh5vREAwxNCRpMTV0oiLiws7Nq1686dO+ZoikR47733uI2oBAxPCBlNTlwpidja2srsMNnOnDkzMjJiXnj4YnhCyGhy4opOxImJCb47rAbd3d137941Lz/yY3hCyGhy4opOxL179967d88cPpE4N2/eTKVS5uVHfgxPCBlNTlxxifjJJ5+8/vrr5tiJhFKJuLS0ZDYC5MHwhJDR5MQVl4hvv/12sv/uEG6ZTGZsbMxsBMiD4Qkho8mJKy4ROzo6zFETyfXpp5/29vaajQB5MDwhZDQ5cSQi8rp//z6JGBzDE0JGkxNXXCIeOHDAHDWRaCRicAxPCBlNThyJCD8kYnAMTwgZTU6ccCJOT083PaSWnXL11FVLXn19vT7o2bNnzXUej3IyJWzrnJvS3t7ulJewq1ypW5WMRAyO4Qkho8mJE05E93idb7ko7lh1Lxuc/Tc3N/tU00o+GWX79u1mUSH5DldwV9bXnm9vAVn36YNEDI7hCSGjyYkrYyK6R3xjHLdOJZtWZnhGoXuCpZZ/u4vPa7Klr/Uo7gpavmpeaobnPocm2wl7GYfTguzK+tqtNa0vwVpo3acPEjE4hieEjCYnTjgRx8fH1VB76NAhp2R4eFiVrFq1Sj2qZV3YZAswNUCrGZ5RaK3pZa22Y8cOp3Dbtm25PCfjrebDfSDrCXs5IWTsvOCurC/KXdPZofUluDd3Klj36YNEDI7hCSGjyYkTTkRNJWKT77TMOi67C535pXtO4zOCW3c4NDT00kONjY3eClq+albWAxnLhnyr8m3u/9qtW1lfgvdfJ7k8+/RBIgbH8ISQ0eTElSURta997WvOsjH4Wod16wBtLfQquMN8y8bTgofLV9lnw3yrCm5esLDgK809/NeJE5PWffogEYNjeELIaHLihBMx39BsDMTWVdbB2v1Jo/uzQYOzbXNzs/P1mLOtuzDnOVC+albWMzeWDflWFdzc+tqtn5paX4L1o1TrPn2QiMExPCFkNDlxwomov6jTnC/qcg/v8nBKrNWsqWC9PcTL+TDQ/dcXzrb6VhSj3DluvmoG73eQ7so+G3pX+e/KYX3tTb531rhfgnVza2E+CwsLJGJwDE8IGU1OXHGJyK+4VRV+17QoDE8IGU1OXHGJ+KMf/WhqasocOJFQ//Ef/zE6Omo2AuTB8ISQ0eTEFZeIH330UX9/vzlwIqFee+21xcVFsxEgD4YnhIwmJ664RPy///u/1tZWc+BEEt25c6ejo8NsAciP4Qkho8mJKy4RlX/+53+enJw0h08kzpEjR2ZmZszLj/wYnhAympy4ohNxeXm5paXFHD6RLCoLX3vtNfPawxfDE0JGkxNXdCIqFy9e5NvEBLt165b6R8/S0pJ54eGL4Qkho8mJKyURlSNHjpw7d84cShF/Kg5feeWVubk585KjEIYnhIwmJ67ERFT6+vpOnTplDqiIs6tXr6rZIXFYGoYnhIwmJ670RFRGRkY6OjquX79ujqyIm9u3b6t5fyqV4sPSkjE8IWQ0OXGPlIhKNptVw2h3d/fExMTCwoI50KKyqUt2+fLlH/zgBwcOHFATRPPqohgMTwgZTU7coyai9uDBg7Gxsd4VqSRSLc8sij99vU6dOsWf4YtgeELIaHLiZBIx8Wh5KIhGgpDR5MSRiIHQ8lAQjQQho8mJIxEDoeWhIBoJQkaTE0ciBkLLQ0E0EoSMJieORAyEloeCaCQIGU1OHIkYCC0PBdFIEDKanDgSMRBaHgqikSBkNDlxJKKd8UtmRsvjd87gxfCEkNHkxJGIdgMDAxMTE85Td8tT5Wqt8xTQGJ4QMpqcOBLRLpvNbtq0yQlFp+W9+eabDQ0Nau1vqwIrGJ4QMpqcOBIxrz/7sz9bv369DkXd8vbv369Kdu7caVYFGJ4QOpqcOBIxr5/97GeqwW3cuFGFolpQcVhTU1NbW5vJZMyqAMMTQkeTE0ci+tm0aZNKQRWKq1f86Z/+6bPPPmtWAlYwPCFkNDlxJKKfPXv2qDa3Zs0anYjf/OY30+m0WQlYwfCEkNHkxJGIfrLZrBOHW7du3bx5M/fUIB+GJ4SMJieORCzgq1/9qk7Ev/3bv+WeGvhgeELIaHLiSMQCfvazn9XU1KiW98wzz3BPDXwwPCFkNDlxJGJhmzZtUi2Pe2rgj+EJIaPJiSMRC9P313BPDfwxPCFkNDlxkSXi3NzcwMBAZ2dnR8Vra2tTLU89misqjHozjx07Njs7a77XCAXDE0JGkxMXQSKOj4/v3bv34MGDV65cycXEmTNnzKKKNDU11d/f39raeuLEieXlZfOtRzkxPCFkNDlxoSbiwsKCysLBwUFzIIe0TCazZ8+eS5cumdcAZcPwhJDR5MSFl4gfffTRrl27ZmdnzcEbZXN0hXklUB4MTwgZTU5cSImoRmcVh3fu3DHHbJTZ+fPn+/r6zOuBMmB4QshocuJCSsR9+/YxO4zK6dOnR0ZGzEsCaQxPCBlNTlwYifj+++/z3WG0urq67t69a14YiGJ4QshocuLCSMS9e/feu3fPHKQRohs3bqRSKfPCQBTDE0JGkxNX9kT85JNPXn/9dXOERuhUIi4tLZmXB3IYnhAympy4sifi8ePHY/R3hwmWyWTGxsbMywM5DE8IGU1OXNkTsaOjwxybEYVPP/20t7fXvDyQw/CEkNHkxJGI1eL+/fskYlkxPCFkNDlxZU/EAwcOmGMzIkIilhXDE0JGkxMXfSI2NTVZl/0VrFmwglV9fX3TQ9PT0055e3u7WuWqGEiQcwhSx63Y+m4kYlkxPCFkNDlx1ZKI7nhzLxt8TqbgEb2CbBKkjtv27dvNosBIxLJieELIaHLiKjQR3XM1p1AlmX569uxZb2HT52d1TgXNvUOf2Z57K2MP7qfWgzqF27ZtMzbZsWOHTx39cqy7chfmPFNV67Y+SMSyYnhCyGhy4io0Ea2FToo0Nzc7weCEjVNheHhYbbJq1Sr1qJb1KusOvdzBOT4+7l6Vbw/e01PhpKJLr9In48SVt446ono5utDZlfdFOdyHtm7rg0QsK4YnhIwmJy5OiWgtHBoaeumhxsZGbwXNOun0sh7C+9S67N2tOqiOPYe3jnVX+V6Uu47Pcj4kYlkxPCFkNDlxsU9Ea6Gx7H2aT8A9WJe9h2hamSM681Rd4lpvllh3Vexp+CARy4rhCSGjyYmr0ER0fx7ofGxo/dTUWpjzJIT7s0f3Z5IG68l4n1qXvZ+I6lVq2fsSjDqad1fGi8rlqW8s50MilhXDE0JGkxMXfSJa7yJpst0z4tS03lnjLnTKnfmZ9She1r++8H4xqUs07yG8d9Y4+edTx6ivq7lflPc0rNv6IBHLiuEJIaPJiYs+Ea2CjO8oysLCAolYVgxPCBlNTlzZE5FfcasQ/K5puTE8IWQ0OXFlT0T+74sKwf99UW4MTwgZTU5c2RPx5s2b/P+IlYD/H7HcGJ4QMpqcuLInorJ379579+6ZIzRCdOPGDZWI5oWBKIYnhIwmJy6MRHz//fcHBwfNQRoh6urqunv3rnlhIIrhCSGjyYkLIxGVffv2zc7OmuM0QjE6OjoyMmJeEkhjeELIaHLiQkrE3Mofm9+5c8ccrVFm586d6+vrM68HyoDhCSGjyYkLKRGVX//61yoUmSmGqX+FeSVQHgxPCBlNTlx4iagsLCzs3buX7xRDkMlkWlpaLl26ZF4DlA3DE0JGkxMXaiJq77//vsrFgwcP8neK4qamptSkcN++fSdOnFheXjbfepQTwxNCRpMTF0Eiajdv3nz77bc7VhyoeKrlmUUVRr+TP/rRjz766CPzvUYoGJ4QMpqcuMgSMV5oeSiIRoKQ0eTEkYiB0PJQEI0EIaPJiSMRA6HloSAaCUJGkxNHIgZCy0NBNBKEjCYnjkQMhJaHgmgkCBlNThyJGAgtzy2Xy7W0tKhHc0V1o5EgZDQ5cSRiILQ8h47D//7v/961axeh6EYjQchocuJIxEBoeZqOw7m5ObVw/fp1QtGNRoKQ0eTEkYiB0PJ+8/k41AhFNxoJQkaTE0ciBkLL88YhoWigkSBkNDlxJGIgVd7y8sWhRihqVd5IED6anDgSMZBqbnk53zjUCMXfVHcjQSRocuJIxEAS0/JUsA0MDGSzWXNFHrkAcagVG4rqHNSZqD2bK2IrMY0EcUGTE0ciBpKkljcxMdHQ0PDyyy9fuHDBXPd5ucBxqAUMRXVcdXR1DupMzHVxlqRGgligyYkjEQNJWMv7xS9+sX79+jVr1vzxH/9xOp22ThlzRcah5hOK6ijqWM8++2xtbe26det++tOfmjViLmGNBJWPJieORAwkeS1Ph+KGDRu+8pWvbNy40Zgy5kqKQ80binpSWF9f//Wvf33r1q01NTUqGp21iZG8RoIKR5MTRyIGksiWp0NRvTQVUU1NTV/60pf0lHF2drbkONR0KKr96EmhSsEXX3zxd3/3d/WxEhmHv0loI0Elo8mJIxEDWV1l3n77bTPlivTWW2+ZO60CZrsByokmJ45ErF4TExONjY3PP/+8M6CvW7fub/7mb/7zP//zu9/9rprnmSkXmNr2O9/5zv/8z//s3r1748aNal6o97927dr6+vqE3VADRIVEFEciVikdh08//bTOqqeeeqqvr89Zq1Kt5FDUcXjnzh1nb2fPnn3uuefWrFmjDlRbW0soAiJIRHEkYjVSgfTEE0+oqZueFE5PT5s1Sg1Fbxw6stmsnjKqblxXV0coAo+IRBRHIlYd/feIL7zwgntSaJUrMhR94tBNTRm/+tWvMlMEHhGJKI5ErC4l/GZNwFAMGIeO5P1mDRAyElEciYgCcgFCsdg4BPDoSERxJCIKy/mGInEIRIJEFEciIpBcnlAkDoGokIjiSEQE5Q1F4hCIEIkojkREEdyhSBwC0SIRxZGIKI4OxQ8++IA4BKJFIoojEVE0FYqqKxKHQLRIRHEkIkpBVwQiRzcURyKiFHRFIHJ0Q3EkIkpBVwQiRzcURyKiFHRFIHJ0Q3EkIkpBVwQiRzcURyKiFHRFIHJ0Q3EkIkpBVwQiRzcURyIiEOO/bTK6Iv+pExA+ElEciYhABgYG3P/Br7srqnK11nkKIBwkojgSEYFks9mGhgYnFJ2uqEpUefD/ghiAFBJRHImIoP7hH/6hrq5Oh6Luimr5iSeeePHFF82qAMqPRBRHIiKoTCZTU1OzadMmFYSqK6rHLVu2qJKRkRGzKoDyIxHFkYgowpe//OXa2tr6+nrVFRsbG59++mk1RzQrAQgFiSiOREQR0um0isO1a9eqrvj888+rx3/8x380KwEIBYkojkREEbLZ7GOPPbb6oZqamlu3bpmVAISCRBRHIqI4f//3f6/niMpXvvIVczWAsJCI4khEFCeTyejvERXuqQEiRCKKIxFRtC9/+cuqK3JPDRAtElEciYiipdPp1dxTA0SNRBRHIpbRgwcPxsbGehNn//79qit+73vfM1fE36lTpxYXF80LCVQkElEciVgW2WxWDa89PT2ZTObTTz9dWFjIJcuZM2fMophT1+j+/fuXL1/+wQ9+cODAgatXr5oXFagwJKI4ElHeyZMnOzs7b968aQ66iInbt2+n0+lUKrW0tGReXaBikIjiSERhaiQ9ffq0OcQihmZmZnbv3s1/dIWKRSKKIxEl9ff3v/fee+bIitian5/fs2cPoYjKRCKKIxHFXL58+ejRo+aYiphToahminx8igpEIoojEWUsLy+ryYQ5miIRpqene3t7zUsORI1EFEciyhgcHJycnDSHUiRFOp2emZkxrzoQKRJRHIkoo62tzRxEkSC3b98+cOCAedWBSJGI4khEAdeuXevv7zcHUSRLb28vf7yPikIiiiMRBbz11ltTU1PmCIpkuXjx4ujoqHntgeiQiOJIRAFdXV3m8IkkSqVS5rUHokMiiiMRBXR2dppjJ5KIRERFIRHFkYgCSMQq0dPTY157IDokojgSUUDBRKyvr296aHp62lxdAdSJWZdlOe/Dt771rfn5eXN1+T3iSyMRUVFIRHEkooCCiSieN+5YFYnY4Gf4KIe2HuVRdpgrcnP/l1YQiYiKQiKKIxEFlJaIauHs2bN6zuQM5WpBl1gLt23bpkvck061HGRbd6FXk+0MrdtaD91key1eTbaj5NuhtVAvuJetm1vP3L2Vlq9aPiQiKgqJKI5EFFAwEd2j9vj4uFPY3Nysl52R2j1kO8tOEKpRu729PV81d+GOHTt8Cr1K26GzbH0tXvp92LJly1/91V85CWTdoWChPvPh4WFVuGrVKvWolvNV80cioqKQiOJIRAEFE9EaEu7C7du3ewut47vmjlhnrcpatXzo0CF3TWuhl/W41m2th3Zv7rwWL13t4MGDv/71r53Cgjv0L7Rubj3znOedzFctHxIRFYVEFEciCnj0RLQWOsvemt4Shxrf1drGxsaChW7W42rGttZDWwu9rK/Iuq21QsFCg/dVWyt7q+VDIqKikIjiSEQB5U5E76emTknO9XGf+3M/p4K10Mt6XOu21kNbX4uXU+2DDz5wppLWHTqFzc3N3u8R3YXWza1nnvOcZ75q+ZCIqCgkojgSUYBgIuqvuzTn6y7vnTXWW0KCF3pZqwUvbLK9Fi93NWfZukOnUN+wE6Swyba5u9Ap976xRrV8SERUFBJRHIkooGAi4lE0BYvbEPCbNagoJKI4ElEAv2taJfh/g1FRSERxJKKAd95558qVK+bwiWQZHx8fGxszrz0QHRJRHIko4NatW2+88YY5giJZuru7l5aWzGsPRIdEFEciyti3b9+9e/fMQRRJce3aNW6rQaUhEcWRiDImJycHBwfNcRRJ0dHRcffuXfOqA5EiEcWRiGLa2tpmZ2fNoRTxNzo6Ojw8bF5vIGokojgSUczCwsLu3bvv3LljDqiIs3PnzvX19ZkXG6gAJKI4ElGSmiOqUGSmmBj9K8zLDFQGElEciSjs/v37ra2tfKcYd5lMpqWl5eLFi+YFBioGiSiORCyLiYmJffv2HTx4kL9TjJepqSk1KVTX7sSJE8vLy+Z1BSoJiSiORCyj+fn5d955p6urqzNxVFc0ixLh2LFjs7Oz5oUEKhKJKI5ERCnoikDk6IbiSESUgq4IRI5uKI5ERCnoikDk6IbiSESUgq4IRI5uKI5ERCnoikDk6IbiSESUgq4IRI5uKI5ERCnoikDk6IbiSEQEMjc3535qdEVjLYAQkIjiSEQEMjAwMDEx4Tx1d0VVrtY6TwGEg0QURyIikGw229DQ4ISi0xVViSpXa39bFUAoSERxJCKC+va3v71+/XodirorquXHH3/8G9/4hlkVQPmRiOJIRASVyWRqamo2bNigglB1RT07VCVjY2NmVQDlRyKKIxFRhKefflp1QhWK6nHLli2NjY0bN240KwEIBYkojkREEdLptErB1Sueeuop9bhr1y6zEoBQkIjiSEQUIZvNPv744zoRlTVr1ty9e9esBCAUJKI4EhHF+fa3v11XV6cT8bnnnjNXAwgLiSiORERxMpnMk08+qboi99QA0SIRxZGIKJq+v4Z7aoBokYjiSEQULZ1Or+aeGiBqJKI4ErGCLC4unjp1qre3N5VK9VSw733ve6ortre3mysqSWqFejPHxsYePHhgvtdA/JGI4kjEinD16tX9+/e/9tprFy9ezMXBmTNnzKJKNTEx0d3drdKRn5pDwpCI4kjEiC0tLakJTV9f3+3bt82xHHJu3LjR0dFx8uRJ8wIAsUUiiiMRozQ3N7dr167p6Wlz/EZ5nDp1Kp1Om5cBiCcSURyJGBkVh3v27JmfnzeHbZTTuXPn+vv7zYsBxBCJKI5EjMbS0pKaHRKHkTh69OilS5fMSwLEDYkojkSMRiqV+vDDD82hGmFRs/Pl5WXzqgCxQiKKIxEjMDMz09fXZw7SCNHk5OSJEyfMCwPECokojkSMwP79+7mzNHJtbW3mhQFihUQURyKGbXFxsbe31xyeEbr+/v5r166ZlweIDxJRHIkYttHR0QsXLpjDM0I3NTV17Ngx8/IA8UEiiiMRw5ZKpcyxGRHp6uoyLw8QHySiOBIxbCRi5ejs7DQvDxAfJKI4EjFsPT095sCMiJCIiDUSURyJGLYgiVhfX9/0UGm/8ab3MDw8bK4Qos6q5HNT2tvb1RmapR7qEGZRnsLSkIiINRJRHIkYtiCJ6B70nWV3/BSMIsHYsNL7f5SjBNnWWmf79u1mUalIRMQaiSiORAxbyYnonjg6Eyy1fPbsWV3ojkkjS/SUzqhm3VYfZXx83NihQceSO5yse7Me16lf1LJmTC6d/W/bts0o8R7Ri0RErJGI4kjEsAVJRHf4qXDShU22qFA1m5ub3YXDw8NqYdWqVU2uT00DbussuB+9gu9tx44dekFxQkuz7sRZtr4KdwXNHYQqLI217qNbkYiINRJRHIkYtiCJaI0id0w6Fdw1jRmbs2w89d9WF7ofvfLNVp0KzvLQ0NBLDzU2NjoV3HUCLlsLvRX07PbQoUNGuRWJiFgjEcWRiGErORGDF+Y85dYUsW6rC92PXgX35l/oferML9Wj+0NR6wn47NOhElGtMjLYi0RErJGI4kjEsJWciO5PHZ3PA601c55ya4pYt9WF7kevgntzlp1zNqIu59m5/g5SPzqF1hNwF3o/NfX5nNaLRESskYjiSMSwlZyI1ntGrDVznnL9tZxm/XLRoQvdj17ucmfZWuicszvqfL4jzH1+P3pzp453Q+6sQTUjEcWRiGHjN2u83DEW5O8UpZCIiDUSURyJGDb+44vKwe+aItZIRHEkYtjGxsYmJibMsRmhu3LlyjvvvGNeHiA+SERxJGLYlpaWgnyViHJ74403bt26ZV4eID5IRHEkYgRSqdT169fNERohunfvXmtrq3lhgFghEcWRiBG4e/duZ2enOUgjRIODg5OTk+aFAWKFRBRHIkZjZGRkdHTUHKcRitnZ2VdffdW8JEDckIjiSMTI9PX1nTt3zhytUWZ37txpaWlZWFgwrwcQNySiOBIxSkdXmGM2ykbNDlUcqkfzSgAxRCKKIxEjdunSpT179mQyGXPwhrShoaG2trb79++b1wCIJxJRHIkYveXl5X/5l39pbW3t7++fmpoyB3I8mitXrvzwhz9Ub6/6Z4f51gNxRiKKIxEryLVr144fP961orOyqa5oFlUe9TZ2d3f/5Cc/4e8OkUgkojgSEaWgKwKRoxuKIxFRCroiEDm6oTgSEaWgKwKRoxuKIxFRCroiEDm6oTgSEaWgKwKRoxuKIxFRCroiEDm6oTgSEaWgKwKRoxuKIxERyNzcnPup0RWNtQBCQCKKIxERyMDAwMTEhPPU3RVVuVrrPAUQDhJRHImIQLLZ7JNPPjk+Pq6fOl1RxaEqV2t/WxVAKEhEcSQignr55ZfXrVunQ1F3RRWHjz322Ne//nWzKoDyIxHFkYgIKpPJrFmzRkWgCkXVFfXssKam5vz582ZVAOVHIoojEVGErVu36lBUXVHF4RNPPLF582azEoBQkIjiSEQUIZ1O/97v/d7qFfX19eqxtbXVrAQgFCSiOBIRRchms2peqBNRUfNF7qkBokIiiiMRUZyXX35506ZNOhFfeOEFczWAsJCI4khEFCeTyTQ2NuoJIvfUABEiEcWRiCja1q1bVVfknhogWiSiOBIRRUun06u5pwaIGokorioS8cGDB2NjY6lUqmdFNx5Ne3u76orq0VyB4qkGqVrmyZMnFxcXzYYL+CIRxSU8EbPZrBpuurq6xsfHc5Bz5swZswiP4MKFC729vd///vevXr1qNmIgDxJRXJITcWRk5MCBA9evXzeHH6Ai3b59+/Dhw2riuLS0ZLZmwINEFJfYROzr6zt58qQ55AAVb3p6eteuXfwHWyiIRBSXzEQ8cuTIu+++a440QEzMz8+3tLQQivBHIopLYCJevHixv7/fHGOAWFGhqGaKfHwKHySiuKQl4vLysvrHtTm6ADH04YcfplIps4kDD5GI4pKWiCdOnJicnDSHFiCeDh8+PDMzY7ZyYAWJKC5pidja2moOKkBs3b59e//+/WYrB1aQiOISlYizs7N8g4iESaVS/PE+rEhEcYlKxGPHjk1NTZkjChBnFy5cGB0dNds6QCKWQaISsauryxxOgPjj/hpYkYjiEpWInZ2d5lgCxF9PT4/Z1gESsQxIRKDSkYiwIhHFVV0iTk9PNzU1qUdzRTDt7e319fVmqRC156YVZ8+eNdd5qGpm0SMw9ub/1Ec4b6/1fKyF/vTZaiWfs1UJJ+ODRIQViSiu6hJRD1WPMmCVsK17tPUZeZ09Nzc3+1TTSjgNH9u3b3c/NXYe/FjhvL3WOsZLCMK9H2c54MXy538yxR6CRIQViSiu6hJRD1XuAatpZU7WtMIZnnxmD9Zh1L3sbPiFL3xhz549OdfkT/GZA1n3lu9M3JVz+asZ9Fbux5xtZmbsvMn2FlmF8PYay5rxEpz9b9u2zShxH9G9H+ecrReryfYq3Ju7lwuejPUQPkhEWJGI4qorEa1DmBqS1JzMKNyxY4deUJyBTLPuxFjW/uIv/uJf//VfjVXeag5rNe+ZDA8Pq7WrVq1Sj2o5XzUrvVv3o7s8l2fn1rfIy7pD67Y+Z2vdibNsPT13Bc0dhCqfjLXO0cfHx1X5oUOHnFU520FzeV6Ftab3qf/JGBtakYiwIhHFVVciWv9tbh2ehoaGXnqosbHRqeCu47Oc+/yg7z6uUc3Nurd8Z2LsJ181g97K/eguD/LU5/xDe3ut5+BfwRp+mipscs38rBfLvUNnNvnBBx/ocvWolp0KusS6rFkP4YNEhBWJKK66EtE6TgUv9D51pg7q0f3xlxpk1RDsPA0y6uXyHNRaaCwbT30Op1e5H93lQZ4W3LmxHLzQ+zTf22s9B599OnT4Wf/F8LWvfU0vWLe1FuYelnvX+p+Mt8QfiQgrElEciWgvdD7pMsbinGc4018v6Udd0t7e7o7D3Oc/GHTPHQ3OHtwHzXcmxmnkq2Zwj+DWF17wqc9obq1mLfQ524Jvb85Tx1vo/aDS+jmtdZ/Wi2U9ovLuu++q8zcmiLlCJ2M9hA8SEVYkojgS0V7o3A3hHot9vsTKubbVFTT9MZ31tg4v58M0919fWM/EKXdOI181g66mP0LUZ2J9UcbO3Tv02bm1mrXQerbWM3G492OcnndDZ//uNNIlTa5LoDfUvO+ku2ZTnlf9q1/96nd+53fcJSWfjA8SEVYkorhEJWL4v+LmHtp8ZmYoDW+vxq+4wYpEFEciAhVtYWGht7fXbOsAiVgGiUrEd95558qVK+aIAsTZxMTE2NiY2dYBErEMEpWIt27deuONN8wRBYiznp6epaUls60DJGIZJCoRldbW1nv37pmDChBPN27c4EtE5EMiiktaImYymaGhIXNcAeKpq6vr7t27ZisHVpCI4pKWiEp7e/vs7Kw5tABxc/r06ZGREbN9Aw+RiOISmIgLCwt79uy5c+eOOcAA8fHee+/19fWZjRtwIRHFJTARFTVHVKF47do1c5gB4uDNN988evSo2ayBzyMRxSUzEZX79++/+uqr3p8+ASpZJpN55ZVXLl++bDZowINEFJfYRNTU+NLW1vb668n3dd0AAA3SSURBVK/zd4qoZFNTU2pSqNrq4ODg8vKy2Y4BGxJRXMITUbt169ZPfvKTnp6e7u7uLkhQXdEsQkm6V7z99tvXr183Gy7gi0QUVxWJCHF0RSBydENxJCJKQVcEIkc3FEciohR0RSBydENxJCJKQVcEIkc3FEciohR0RSBydENxJCJKQVcEIkc3FEciohR0RSBydENxJCICmZubcz81uqKxFkAISERxJCICGRgYmJiYcJ66u6IqV2udpwDCQSKKIxERSDabffLJJ3/+85/rp05XVHGoytXa31YFEAoSURyJiKB27ty5du1aHYq6K6o4rKur+8Y3vmFWBVB+JKI4EhFBZTKZNWvWrFu3ToWi6ooqDuvr62tqan75y1+aVQGUH4kojkREEZ555pna2tr169errqjiUE0ZGxoazEoAQkEiiiMRUYR0Ov2Hf/iHq1eoyaJ67OjoMCsBCAWJKI5ERBGy2eyGDRt0Iipqvsg9NUBUSERxJCKKs3PnzsbGRp2If/mXf2muBhAWElEciYjiZDKZL3zhC3qCyD01QIRIRHEkIor2zDPPqK7IPTVAtEhEcSQiipZOp1dzTw0QNRJRHIlYWRYXF0+ePNm9oqtSvfrqq6orqkdzRSVRb2BPT8+//du/PXjwwHyXgUQgEcWRiJViZmamvb09lUpduHAhV/HOnDljFlWkX/7yl52dnSoauScWyUMiiiMRo7e0tKTmNIcOHbp9+7Y5okPC9evX9+/fPzw8bL71QJyRiOJIxIh98sknzc3N09PT5igOaSdPnjx8+LB5AYDYIhHFkYhRUnG4e/fu+fl5c/BGebz77rvpdNq8DEA8kYjiSMTILC0tqdkhcRiy/v7+ixcvmhcDiCESURyJGJmenp4PP/zQHLBRfi0tLcvLy+b1AOKGRBRHIkZjZmbm8OHD5lCNUExOTv70pz81LwkQNySiOBIxGvv37+fO0gi1traalwSIGxJRHIkYgcXFxVQqZQ7SCFF/f//HH39sXhggVkhEcSRiBEZHR2PxZ/gJNjU1dezYMfPCALFCIoojESPABLESdHV1mRcGiBUSURyJGIGenh5zeEboOjs7zQsDxAqJKI5EjACJWAlIRMQdiSiORIxAkEQcHh5uampatWqVelTL5moXVcEs8vXxxx+bRQEUexR/xt78n/qYnp5Wld2/gRf8fSMREXckojgSMQJBElELkg1GHXc8WH8uNcg+vYo9ir/t27e7n5aciLqmt763xItERNyRiOJIxAiUlohq+ezZs00r3CFkjP719fW6jqKWjUK1sGPHDl3YZNuhnnUZhbqys5zLcxQvvZX7UWlvbzc2MXbeZDsxK52sRr7mPDu0IhERdySiOBIxAqUlokqR5uZmd7n1E0L3Js6ydyFn26Hi5KWybdu2XDFH8dKr3I/u8lyenVtPzMu6Q+tTKxIRcUciiiMRI1BaIgZZzn1+9uas+vnPf75lyxb1dHx83Knp3tCZZg0NDb30UGNjo1MhyFG89Cr3o7s8yFOfnfvMU322cpCIiDsSURyJGIGyJqI1DH71q19961vfMgqtNfPtOchRvHQ196O7PMhTnwP5VPPZykEiIu5IRHEkYgTKmoj6o07N+Qj0v/7rv/Qc0b3WGhtOhebmZvfEK8hRvNxZ6HPOPk+tJ6n5VPPZykEiIu5IRHEkYgSCJKL3C7Z8AaDvhXG+hLPeGmPd1hobzub63haj3P8oXrra+Pi4U837upxqpX1JaSxb929FIiLuSERxJGIEwv8VN50TTStzRPdXidWMX3FD3JGI4kjECPBL35Hjl76RACSiOBIxAvxvUJHr7++fnZ01LwwQKySiOBIxGvyPwdHifwxGApCI4kjEaMzMzBw+fNgcpxGKycnJEydOmJcEiBsSURyJGJlUKvXhhx+aozXKr6WlZXl52bweQNyQiOJIxMgsLS3t2rVrfn7eHLBRTv39/RcvXjQvBhBDJKI4EjFKc3Nzar5CKIbm3XffPXLkiHkZgHgiEcWRiBFToahmij5/5A4pJ0+e7OvrMy8AEFskojgSMXpLS0vd3d2HDx/m7tMyuX79+oEDB0ZGRsy3HogzElEciVgprl69+v3vf7+3t5c/3hc0Pj7e1dWVSqWy2az5jgMxRyKKIxEry+Li4smTJ9UI3tPT013BVFc0iypJzwr1No6NjT148MB8l4FEIBHFkYgoBV0RiBzdUByJiFLQFYHI0Q3FkYgoBV0RiBzdUByJiFLQFYHI0Q3FkYgoBV0RiBzdUByJiFLQFeMum83u2rUrl8uZKxAfdENxJCJKQVeMNRWH3/nOdz744ANCMdbohuJIRJSCrhhfOg6vX7+eW/k1H0IxvuiG4khElIKuGFPuONQIxfiiG4ojEVEKumIceeOQUIw1uqE4EhGloCvGTr441AjFOKIbiiMRUQq6Yrz4x6FGKMYO3VAciYhS0BUjNDc3NzAwEPx/8wgSh1qxoaj2rM5EnY+5AqGgG4ojEVEKumK0JiYmNm3a9NJLL124cMFc93nB41ALGIr//u///uKLLzY0NKgzMdchLHRDcSQiSkFXjNwvfvGL2trampqa3//93z98+LB1ylhsHGo+oah2+Oqrr27evFkd9/HHHycOo0U3FEciohR0xUqgQnH9+vXqWjz22GN1dXXGlLG0ONS8oagmhS+88MKaNWvU4dTUcMuWLcRh5OiG4khElIKuWCGcUFRUXG3YsEFPGT/66KOS41DToTg7O6snhToLlS996UvEYYWgG4ojEVEKPTiikr311ltmyhXp+PHj5k5RYcyeiUdDIgIxNjQ05MzennrqqS9+8YtNTU3pdFrN7b773e8+yhzx5s2bu3fvVvvp6+tTe964cWNtba06ytq1a+vr65kjIpFIRCCudByuX7/+j/7ojzZs2PDyyy+7v0dUqVZyKOo4zLm+R1R7fumll+rq6h5//HEVjYQiEolEBGJJxaFKJpWIelJovdc0V1IoeuPQoY6ip4w1NTUqHQlFJAyJCMSPiqInn3zSmBRa5YoMRZ84dFPH/bu/+zv+HhEJQyICMVPsb9bkAodiwDh08Js1SBgSEUi+XIBQLDYOgeQhEYGqkPMNReIQ+A2JCFSPXJ5QJA4BjUQEqog3FIlDwEEiAtXFHYrEIeBGIgJVR4fi1NQUcQi4kYhANVJBuHr1auIQcCMRgSrF70QDBhIRqFIkImAgEYEqRSICBhIRqFIkImAgEYEqRSICBhIRqFIkImAgEYEqRSICBhIRqBbGf9tkJCL/qRNAIgLVYmBgwP0f/LoTUZWrtc5ToDqRiEC1yGazmzdvdkLRScTR0dGGhobg/wUxkFQkIlBF/vzP/7yurk6Hok7EoaGhtWvX7ty506wKVB8SEagi58+fV0G4adMmFYpqQcXhmhWZTMasClQfEhGoLps3b66tra2vr1eJqLKwoaHh2WefNSsBVYlEBKpLa2urysK1a9euXvH888+n02mzElCVSESgumSzWTU11HG4bt06NVnknhpAIxGBqvPCCy/oRHzuuee4pwZwkIhA1Tl//ryeJv7BH/wB99QADhIRqEabN29Wicg9NYAbiQhUI31/DffUAG4kIpBAt27d+vGPf9zd3d3V1dVp09bWphJRPZorOju7Vhw/fvz69evmfoFEIxGBRJmcnFTzvx/+8IdXrlzJ+Tpz5oxZ5DI1NdXf368ic3BwcHl52TwMkEQkIpAQ9+/f1wFmhtujyWQyr7zyyuXLl83jAYlDIgJJMDs729LSoh7NQBNydIV5VCBZSEQg9hYWFnbv3n3nzh0zx0SdP3++r6/PPDaQICQiEHttbW3lmx26nT59emRkxDw8kBQkIhBvExMT4t8d+ujq6rp79655EkAikIhAvO3bt+/evXtmcJXNjRs3UqmUeRJAIpCIQIzNz8+//vrrZmqVmUrEpaUl81SA+CMRgRgbGBgo+HeH4iYnJ8fGxsxTAeKPRARirLOz08yr8rt//35vb695KkD8kYhAjEWSiAqJiEQiEYEY6+joMMMqFNxcg0QiEYEYIxEBQSQiEGMFE7G+vr7pofb2dnO1jappFnmQiEgkEhGIsYKJGCTeDEE2IRGRSCQiEGMlJKIqOXv2rJ41Tk9P60K1oEv0qs9vYUEiIpFIRCDGCiai86nptm3bnJLm5ma97ISfs1atUhX0sg8SEYlEIgIxVjARvRM+d4mzbC30QSIikUhEIMZIREAQiQjEmFQi8qkp8BsSEYi1gono/esLayJyZw3wGxIRiLVIfsVtYWGBX3FDIpGIQIwdO3ZsamrKjKwyu3Tp0ujoqHkqQPyRiECMffzxx/39/WZklZmaIC4uLpqnAsQfiQjEW2trqxlZ5XT79u0DBw6YJwEkAokIxNuJEycmJyfN4CqbdDo9MzNjngSQCCQiEG/Ly8stLS1mcJXH9PQ099QgwUhEIPYuXrwYwreJ8/Pzu3fvXlpaMg8PJAWJCCTBkSNHzp07Z4aYHBWHe/bsmZubMw8MJAiJCCREOp0+deqUGWUSZmZm1OyQOETikYhAcoyMjHR0dNy4ccPMtFLdvn1bBW0qleLDUlQDEhFIlGw2qwKsu7t7YmLCzLdiXLp06bXXXtu/f//Vq1fNYwAJRSICCfTgwYOxsbHe3t5USdSGp06d4s/wUW1IRAAAPkMiAgDwGRIRAIDPkIgAAHyGRAQA4DMkIgAAnyERAQD4DIkIAMBnSEQAAD7z/5SjFasXHw/9AAAAAElFTkSuQmCC;" vertex="1" parent="1">
            <mxGeometry x="30" y="-950" width="603" height="1119" as="geometry" />
          </mxCell>
        </UserObject>
      </root>
    </mxGraphModel>
  </diagram>
  <diagram id="3g-VkwRfrvUe4ilte-1m" name="Page-4">
    <mxGraphModel dx="1151" dy="446" grid="0" gridSize="10" guides="1" tooltips="1" connect="1" arrows="1" fold="1" page="0" pageScale="1" pageWidth="827" pageHeight="1169" math="0" shadow="0">
      <root>
        <mxCell id="0" />
        <mxCell id="1" parent="0" />
        <mxCell id="YzzFz2zKbulYp8ADT2DB-1" value="User" style="shape=umlActor;verticalLabelPosition=bottom;verticalAlign=top;html=1;outlineConnect=0;" vertex="1" parent="1">
          <mxGeometry x="-16" y="34" width="30" height="49" as="geometry" />
        </mxCell>
        <mxCell id="YzzFz2zKbulYp8ADT2DB-2" value="" style="endArrow=classic;startArrow=classic;html=1;rounded=0;fontSize=12;startSize=8;endSize=8;curved=1;entryX=0;entryY=0.5;entryDx=0;entryDy=0;" edge="1" parent="1" source="YzzFz2zKbulYp8ADT2DB-1" target="YzzFz2zKbulYp8ADT2DB-6">
          <mxGeometry width="50" height="50" relative="1" as="geometry">
            <mxPoint x="106" y="148" as="sourcePoint" />
            <mxPoint x="181" y="74" as="targetPoint" />
          </mxGeometry>
        </mxCell>
        <mxCell id="YzzFz2zKbulYp8ADT2DB-16" value="interactions" style="edgeLabel;html=1;align=center;verticalAlign=middle;resizable=0;points=[];fontSize=12;" vertex="1" connectable="0" parent="YzzFz2zKbulYp8ADT2DB-2">
          <mxGeometry x="-0.0232" relative="1" as="geometry">
            <mxPoint as="offset" />
          </mxGeometry>
        </mxCell>
        <mxCell id="YzzFz2zKbulYp8ADT2DB-6" value="&lt;h4&gt;&lt;b&gt;front-end&amp;nbsp;&lt;br&gt;&lt;/b&gt;&lt;b&gt;(&lt;/b&gt;&lt;b style=&quot;&quot;&gt;Nextjs)&lt;/b&gt;&lt;/h4&gt;" style="rounded=1;whiteSpace=wrap;html=1;verticalAlign=middle;fontFamily=Garamond;labelBackgroundColor=none;fontColor=#000000;labelPosition=center;verticalLabelPosition=middle;align=center;" vertex="1" parent="1">
          <mxGeometry x="207" y="26" width="70" height="60" as="geometry" />
        </mxCell>
        <mxCell id="YzzFz2zKbulYp8ADT2DB-17" value="Back-end&lt;div&gt;(Nestjs)&lt;/div&gt;" style="rounded=1;whiteSpace=wrap;html=1;" vertex="1" parent="1">
          <mxGeometry x="203" y="145" width="78" height="60" as="geometry" />
        </mxCell>
        <mxCell id="YzzFz2zKbulYp8ADT2DB-18" value="local storage&lt;div&gt;(levelDB&lt;span style=&quot;background-color: initial;&quot;&gt;)&lt;/span&gt;&lt;/div&gt;" style="shape=cylinder3;whiteSpace=wrap;html=1;boundedLbl=1;backgroundOutline=1;size=15;" vertex="1" parent="1">
          <mxGeometry x="424" y="6" width="60" height="80" as="geometry" />
        </mxCell>
        <mxCell id="YzzFz2zKbulYp8ADT2DB-22" value="" style="endArrow=classic;startArrow=classic;html=1;rounded=0;fontSize=12;startSize=8;endSize=8;curved=1;entryX=0.5;entryY=1;entryDx=0;entryDy=0;exitX=0.5;exitY=0;exitDx=0;exitDy=0;" edge="1" parent="1" source="YzzFz2zKbulYp8ADT2DB-17" target="YzzFz2zKbulYp8ADT2DB-6">
          <mxGeometry width="50" height="50" relative="1" as="geometry">
            <mxPoint x="30" y="135" as="sourcePoint" />
            <mxPoint x="223" y="133" as="targetPoint" />
          </mxGeometry>
        </mxCell>
        <mxCell id="YzzFz2zKbulYp8ADT2DB-23" value="interactions" style="edgeLabel;html=1;align=center;verticalAlign=middle;resizable=0;points=[];fontSize=12;" vertex="1" connectable="0" parent="YzzFz2zKbulYp8ADT2DB-22">
          <mxGeometry x="-0.0232" relative="1" as="geometry">
            <mxPoint as="offset" />
          </mxGeometry>
        </mxCell>
      </root>
    </mxGraphModel>
  </diagram>
  <diagram id="wFMtjNz-EPBNldc8LMQu" name="Page-5">
    <mxGraphModel dx="889" dy="510" grid="0" gridSize="10" guides="1" tooltips="1" connect="1" arrows="1" fold="1" page="0" pageScale="1" pageWidth="827" pageHeight="1169" math="0" shadow="0">
      <root>
        <mxCell id="0" />
        <mxCell id="1" parent="0" />
      </root>
    </mxGraphModel>
  </diagram>
</mxfile>
